G04 Layer_Color=65535*
%FSAX24Y24*%
%MOIN*%
G70*
G01*
G75*
%ADD14C,0.0100*%
%ADD18C,0.0020*%
%ADD19C,0.0060*%
D14*
X038000Y034050D02*
Y034500D01*
X038225D01*
X038300Y034425D01*
Y034275D01*
X038225Y034200D01*
X038000D01*
X038450Y034350D02*
Y034050D01*
Y034200D01*
X038525Y034275D01*
X038600Y034350D01*
X038675D01*
X038900Y034050D02*
Y034500D01*
X039200Y034050D01*
Y034500D01*
X039574Y034050D02*
X039425D01*
X039350Y034125D01*
Y034275D01*
X039425Y034350D01*
X039574D01*
X039649Y034275D01*
Y034200D01*
X039350D01*
X039874Y034425D02*
Y034350D01*
X039799D01*
X039949D01*
X039874D01*
Y034125D01*
X039949Y034050D01*
X040624Y034350D02*
X040774Y034050D01*
X040924Y034350D01*
X041074Y034425D02*
X041149Y034500D01*
X041299D01*
X041374Y034425D01*
Y034125D01*
X041299Y034050D01*
X041149D01*
X041074Y034125D01*
Y034425D01*
X041524Y034050D02*
Y034125D01*
X041599D01*
Y034050D01*
X041524D01*
X041899Y034425D02*
X041974Y034500D01*
X042124D01*
X042199Y034425D01*
Y034350D01*
X042124Y034275D01*
X042049D01*
X042124D01*
X042199Y034200D01*
Y034125D01*
X042124Y034050D01*
X041974D01*
X041899Y034125D01*
X043248Y034050D02*
X043473D01*
X043548Y034125D01*
X043473Y034200D01*
X043323D01*
X043248Y034275D01*
X043323Y034350D01*
X043548D01*
X043773D02*
X043923D01*
X043998Y034275D01*
Y034050D01*
X043773D01*
X043698Y034125D01*
X043773Y034200D01*
X043998D01*
X044448Y033900D02*
Y034350D01*
X044223D01*
X044148Y034275D01*
Y034125D01*
X044223Y034050D01*
X044448D01*
X044598Y034350D02*
Y034125D01*
X044673Y034050D01*
X044898D01*
Y034350D01*
X045048Y034050D02*
X045198D01*
X045123D01*
Y034350D01*
X045048D01*
X045423Y034500D02*
Y034050D01*
X045648D01*
X045723Y034125D01*
Y034200D01*
Y034275D01*
X045648Y034350D01*
X045423D01*
D18*
X045750Y029250D02*
Y032250D01*
X047650D01*
Y029250D02*
Y032250D01*
X045750Y029250D02*
X047650D01*
X039150Y033550D02*
X045150D01*
Y027550D02*
Y033550D01*
X039150Y027550D02*
X045150D01*
X039150D02*
Y033550D01*
D19*
X038640Y028920D02*
Y032590D01*
X036490Y028920D02*
X038640D01*
X036490D02*
Y032590D01*
X038640D01*
M02*
