M48
;Layer_Color=9474304
;FILE_FORMAT=2:4
INCH
;TYPE=PLATED
T1F00S00C0.0130
T2F00S00C0.0170
T3F00S00C0.0276
T4F00S00C0.0280
;TYPE=NON_PLATED
T5F00S00C0.0236
%
T01
X017950Y016300
Y026300
Y036300
Y046300
Y056300
T02
X014900Y014350
X015250Y014850
X016200Y013050
X017100Y016000
X016700Y016700
X015950Y019600
X016200Y023050
X017100Y026000
X016700Y026700
X015950Y029600
X014900Y027550
X014450
X015250Y024850
X014900Y024350
Y017550
X014450
X014900Y034350
X015250Y034850
X014900Y037550
X014450
X014900Y044350
X015250Y044850
X016200Y043050
X015950Y039600
X016700Y036700
X017100Y036000
X016200Y033050
X017100Y046000
X016700Y046700
X015950Y049600
X016200Y053050
X017100Y056000
X016700Y056700
X015950Y059600
X014900Y057550
X014450
X015250Y054850
X014900Y054350
Y047550
X014450
T03
X025661Y013601
X025650Y014599
X025639Y015596
X025650Y016599
Y017599
X025661Y023601
X025650Y024599
X025639Y025596
X025650Y026599
Y027599
X025661Y033601
X025650Y034599
X025639Y035596
X025650Y036599
Y037599
X025661Y043601
X025650Y044599
X025639Y045596
X025650Y046599
Y047599
X025661Y053601
X025650Y054599
X025639Y055596
X025650Y056599
Y057599
T04
X022250Y013750
X025650Y014600
Y024600
X022250Y023750
X018900Y019050
Y029050
X022250Y033750
X025650Y034600
Y044600
X022250Y043750
X018900Y039050
Y049050
X022250Y053750
X025650Y054600
X018900Y059050
T05
X014696Y019163
Y029163
Y039163
Y049163
Y059163
M30
