G04 Layer_Color=8388736*
%FSAX24Y24*%
%MOIN*%
G70*
G01*
G75*
%ADD20C,0.0236*%
%ADD35R,0.0277X0.0316*%
%ADD36R,0.0316X0.0316*%
%ADD37R,0.0316X0.0277*%
G04:AMPARAMS|DCode=38|XSize=140mil|YSize=40mil|CornerRadius=12mil|HoleSize=0mil|Usage=FLASHONLY|Rotation=0.000|XOffset=0mil|YOffset=0mil|HoleType=Round|Shape=RoundedRectangle|*
%AMROUNDEDRECTD38*
21,1,0.1400,0.0160,0,0,0.0*
21,1,0.1160,0.0400,0,0,0.0*
1,1,0.0240,0.0580,-0.0080*
1,1,0.0240,-0.0580,-0.0080*
1,1,0.0240,-0.0580,0.0080*
1,1,0.0240,0.0580,0.0080*
%
%ADD38ROUNDEDRECTD38*%
G04:AMPARAMS|DCode=39|XSize=23mil|YSize=41mil|CornerRadius=8.9mil|HoleSize=0mil|Usage=FLASHONLY|Rotation=0.000|XOffset=0mil|YOffset=0mil|HoleType=Round|Shape=RoundedRectangle|*
%AMROUNDEDRECTD39*
21,1,0.0230,0.0233,0,0,0.0*
21,1,0.0053,0.0410,0,0,0.0*
1,1,0.0178,0.0026,-0.0116*
1,1,0.0178,-0.0026,-0.0116*
1,1,0.0178,-0.0026,0.0116*
1,1,0.0178,0.0026,0.0116*
%
%ADD39ROUNDEDRECTD39*%
G04:AMPARAMS|DCode=40|XSize=23mil|YSize=41mil|CornerRadius=8.9mil|HoleSize=0mil|Usage=FLASHONLY|Rotation=270.000|XOffset=0mil|YOffset=0mil|HoleType=Round|Shape=RoundedRectangle|*
%AMROUNDEDRECTD40*
21,1,0.0230,0.0233,0,0,270.0*
21,1,0.0053,0.0410,0,0,270.0*
1,1,0.0178,-0.0116,-0.0026*
1,1,0.0178,-0.0116,0.0026*
1,1,0.0178,0.0116,0.0026*
1,1,0.0178,0.0116,-0.0026*
%
%ADD40ROUNDEDRECTD40*%
%ADD41R,0.0770X0.0770*%
%ADD42R,0.0300X0.0560*%
%ADD43C,0.0513*%
%ADD44C,0.0580*%
%ADD45C,0.0380*%
%ADD46C,0.0350*%
D20*
X014696Y019163D02*
D03*
Y029163D02*
D03*
Y039163D02*
D03*
Y049163D02*
D03*
Y059163D02*
D03*
D35*
X015600Y014153D02*
D03*
Y014547D02*
D03*
X017050Y019397D02*
D03*
Y019003D02*
D03*
X018100Y014847D02*
D03*
Y014453D02*
D03*
X016500Y015503D02*
D03*
Y015897D02*
D03*
X017800Y015453D02*
D03*
Y015847D02*
D03*
X017050Y018203D02*
D03*
Y018597D02*
D03*
X015600Y024153D02*
D03*
Y024547D02*
D03*
X017050Y029397D02*
D03*
Y029003D02*
D03*
X018100Y024847D02*
D03*
Y024453D02*
D03*
X016500Y025503D02*
D03*
Y025897D02*
D03*
X017800Y025453D02*
D03*
Y025847D02*
D03*
X017050Y028203D02*
D03*
Y028597D02*
D03*
X015600Y034153D02*
D03*
Y034547D02*
D03*
X017050Y039397D02*
D03*
Y039003D02*
D03*
X018100Y034847D02*
D03*
Y034453D02*
D03*
X016500Y035503D02*
D03*
Y035897D02*
D03*
X017800Y035453D02*
D03*
Y035847D02*
D03*
X017050Y038203D02*
D03*
Y038597D02*
D03*
X015600Y044153D02*
D03*
Y044547D02*
D03*
X017050Y049397D02*
D03*
Y049003D02*
D03*
X018100Y044847D02*
D03*
Y044453D02*
D03*
X016500Y045503D02*
D03*
Y045897D02*
D03*
X017800Y045453D02*
D03*
Y045847D02*
D03*
X017050Y048203D02*
D03*
Y048597D02*
D03*
X015600Y054153D02*
D03*
Y054547D02*
D03*
X017050Y059397D02*
D03*
Y059003D02*
D03*
X018100Y054847D02*
D03*
Y054453D02*
D03*
X016500Y055503D02*
D03*
Y055897D02*
D03*
X017800Y055453D02*
D03*
Y055847D02*
D03*
X017050Y058203D02*
D03*
Y058597D02*
D03*
D36*
X017500Y019397D02*
D03*
Y019003D02*
D03*
Y018597D02*
D03*
Y018203D02*
D03*
X017550Y017547D02*
D03*
Y017153D02*
D03*
X017050Y017153D02*
D03*
Y017547D02*
D03*
X017500Y029397D02*
D03*
Y029003D02*
D03*
Y028597D02*
D03*
Y028203D02*
D03*
X017550Y027547D02*
D03*
Y027153D02*
D03*
X017050Y027153D02*
D03*
Y027547D02*
D03*
X017500Y039397D02*
D03*
Y039003D02*
D03*
Y038597D02*
D03*
Y038203D02*
D03*
X017550Y037547D02*
D03*
Y037153D02*
D03*
X017050Y037153D02*
D03*
Y037547D02*
D03*
X017500Y049397D02*
D03*
Y049003D02*
D03*
Y048597D02*
D03*
Y048203D02*
D03*
X017550Y047547D02*
D03*
Y047153D02*
D03*
X017050Y047153D02*
D03*
Y047547D02*
D03*
X017500Y059397D02*
D03*
Y059003D02*
D03*
Y058597D02*
D03*
Y058203D02*
D03*
X017550Y057547D02*
D03*
Y057153D02*
D03*
X017050Y057153D02*
D03*
Y057547D02*
D03*
D37*
X016053Y017300D02*
D03*
X016447D02*
D03*
X016053Y027300D02*
D03*
X016447D02*
D03*
X016053Y037300D02*
D03*
X016447D02*
D03*
X016053Y047300D02*
D03*
X016447D02*
D03*
X016053Y057300D02*
D03*
X016447D02*
D03*
D38*
X024350Y013100D02*
D03*
Y013600D02*
D03*
Y014100D02*
D03*
Y018100D02*
D03*
Y017600D02*
D03*
Y017100D02*
D03*
Y015600D02*
D03*
Y016100D02*
D03*
Y016600D02*
D03*
Y015100D02*
D03*
Y014600D02*
D03*
X019050D02*
D03*
Y015100D02*
D03*
Y016600D02*
D03*
Y016100D02*
D03*
Y015600D02*
D03*
Y017100D02*
D03*
Y017600D02*
D03*
Y018100D02*
D03*
X024350Y023100D02*
D03*
Y023600D02*
D03*
Y024100D02*
D03*
Y028100D02*
D03*
Y027600D02*
D03*
Y027100D02*
D03*
Y025600D02*
D03*
Y026100D02*
D03*
Y026600D02*
D03*
Y025100D02*
D03*
Y024600D02*
D03*
X019050D02*
D03*
Y025100D02*
D03*
Y026600D02*
D03*
Y026100D02*
D03*
Y025600D02*
D03*
Y027100D02*
D03*
Y027600D02*
D03*
Y028100D02*
D03*
X024350Y033100D02*
D03*
Y033600D02*
D03*
Y034100D02*
D03*
Y038100D02*
D03*
Y037600D02*
D03*
Y037100D02*
D03*
Y035600D02*
D03*
Y036100D02*
D03*
Y036600D02*
D03*
Y035100D02*
D03*
Y034600D02*
D03*
X019050D02*
D03*
Y035100D02*
D03*
Y036600D02*
D03*
Y036100D02*
D03*
Y035600D02*
D03*
Y037100D02*
D03*
Y037600D02*
D03*
Y038100D02*
D03*
X024350Y043100D02*
D03*
Y043600D02*
D03*
Y044100D02*
D03*
Y048100D02*
D03*
Y047600D02*
D03*
Y047100D02*
D03*
Y045600D02*
D03*
Y046100D02*
D03*
Y046600D02*
D03*
Y045100D02*
D03*
Y044600D02*
D03*
X019050D02*
D03*
Y045100D02*
D03*
Y046600D02*
D03*
Y046100D02*
D03*
Y045600D02*
D03*
Y047100D02*
D03*
Y047600D02*
D03*
Y048100D02*
D03*
X024350Y053100D02*
D03*
Y053600D02*
D03*
Y054100D02*
D03*
Y058100D02*
D03*
Y057600D02*
D03*
Y057100D02*
D03*
Y055600D02*
D03*
Y056100D02*
D03*
Y056600D02*
D03*
Y055100D02*
D03*
Y054600D02*
D03*
X019050D02*
D03*
Y055100D02*
D03*
Y056600D02*
D03*
Y056100D02*
D03*
Y055600D02*
D03*
Y057100D02*
D03*
Y057600D02*
D03*
Y058100D02*
D03*
D39*
X016511Y013576D02*
D03*
X016771D02*
D03*
X017028D02*
D03*
X017284D02*
D03*
Y015024D02*
D03*
X017028D02*
D03*
X016771D02*
D03*
X016511D02*
D03*
Y023576D02*
D03*
X016771D02*
D03*
X017028D02*
D03*
X017284D02*
D03*
Y025024D02*
D03*
X017028D02*
D03*
X016771D02*
D03*
X016511D02*
D03*
Y033576D02*
D03*
X016771D02*
D03*
X017028D02*
D03*
X017284D02*
D03*
Y035024D02*
D03*
X017028D02*
D03*
X016771D02*
D03*
X016511D02*
D03*
Y043576D02*
D03*
X016771D02*
D03*
X017028D02*
D03*
X017284D02*
D03*
Y045024D02*
D03*
X017028D02*
D03*
X016771D02*
D03*
X016511D02*
D03*
Y053576D02*
D03*
X016771D02*
D03*
X017028D02*
D03*
X017284D02*
D03*
Y055024D02*
D03*
X017028D02*
D03*
X016771D02*
D03*
X016511D02*
D03*
D40*
X017629Y013911D02*
D03*
Y014167D02*
D03*
Y014424D02*
D03*
Y014684D02*
D03*
X016171D02*
D03*
Y014424D02*
D03*
Y014167D02*
D03*
Y013911D02*
D03*
X017629Y023911D02*
D03*
Y024167D02*
D03*
Y024424D02*
D03*
Y024684D02*
D03*
X016171D02*
D03*
Y024424D02*
D03*
Y024167D02*
D03*
Y023911D02*
D03*
X017629Y033911D02*
D03*
Y034167D02*
D03*
Y034424D02*
D03*
Y034684D02*
D03*
X016171D02*
D03*
Y034424D02*
D03*
Y034167D02*
D03*
Y033911D02*
D03*
X017629Y043911D02*
D03*
Y044167D02*
D03*
Y044424D02*
D03*
Y044684D02*
D03*
X016171D02*
D03*
Y044424D02*
D03*
Y044167D02*
D03*
Y043911D02*
D03*
X017629Y053911D02*
D03*
Y054167D02*
D03*
Y054424D02*
D03*
Y054684D02*
D03*
X016171D02*
D03*
Y054424D02*
D03*
Y054167D02*
D03*
Y053911D02*
D03*
D41*
X016881Y014294D02*
D03*
Y024294D02*
D03*
Y034294D02*
D03*
Y044294D02*
D03*
Y054294D02*
D03*
D42*
X015726Y018920D02*
D03*
X016480D02*
D03*
Y017888D02*
D03*
X016100D02*
D03*
X015726D02*
D03*
Y028920D02*
D03*
X016480D02*
D03*
Y027888D02*
D03*
X016100D02*
D03*
X015726D02*
D03*
Y038920D02*
D03*
X016480D02*
D03*
Y037888D02*
D03*
X016100D02*
D03*
X015726D02*
D03*
Y048920D02*
D03*
X016480D02*
D03*
Y047888D02*
D03*
X016100D02*
D03*
X015726D02*
D03*
Y058920D02*
D03*
X016480D02*
D03*
Y057888D02*
D03*
X016100D02*
D03*
X015726D02*
D03*
D43*
X025661Y013601D02*
D03*
X025650Y017599D02*
D03*
Y016599D02*
D03*
Y014599D02*
D03*
X025639Y015596D02*
D03*
X025661Y023601D02*
D03*
X025650Y027599D02*
D03*
Y026599D02*
D03*
Y024599D02*
D03*
X025639Y025596D02*
D03*
X025661Y033601D02*
D03*
X025650Y037599D02*
D03*
Y036599D02*
D03*
Y034599D02*
D03*
X025639Y035596D02*
D03*
X025661Y043601D02*
D03*
X025650Y047599D02*
D03*
Y046599D02*
D03*
Y044599D02*
D03*
X025639Y045596D02*
D03*
X025661Y053601D02*
D03*
X025650Y057599D02*
D03*
Y056599D02*
D03*
Y054599D02*
D03*
X025639Y055596D02*
D03*
D44*
X018900Y019050D02*
D03*
X025650Y014600D02*
D03*
X022250Y013750D02*
D03*
X018900Y029050D02*
D03*
X025650Y024600D02*
D03*
X022250Y023750D02*
D03*
X018900Y039050D02*
D03*
X025650Y034600D02*
D03*
X022250Y033750D02*
D03*
X018900Y049050D02*
D03*
X025650Y044600D02*
D03*
X022250Y043750D02*
D03*
X018900Y059050D02*
D03*
X025650Y054600D02*
D03*
X022250Y053750D02*
D03*
D45*
X017100Y016000D02*
D03*
X014900Y017550D02*
D03*
X014450D02*
D03*
X014900Y014350D02*
D03*
X016700Y016700D02*
D03*
X015950Y019600D02*
D03*
X016200Y013050D02*
D03*
X015250Y014850D02*
D03*
X017100Y026000D02*
D03*
X014900Y027550D02*
D03*
X014450D02*
D03*
X014900Y024350D02*
D03*
X016700Y026700D02*
D03*
X015950Y029600D02*
D03*
X016200Y023050D02*
D03*
X015250Y024850D02*
D03*
X017100Y036000D02*
D03*
X014900Y037550D02*
D03*
X014450D02*
D03*
X014900Y034350D02*
D03*
X016700Y036700D02*
D03*
X015950Y039600D02*
D03*
X016200Y033050D02*
D03*
X015250Y034850D02*
D03*
X017100Y046000D02*
D03*
X014900Y047550D02*
D03*
X014450D02*
D03*
X014900Y044350D02*
D03*
X016700Y046700D02*
D03*
X015950Y049600D02*
D03*
X016200Y043050D02*
D03*
X015250Y044850D02*
D03*
X017100Y056000D02*
D03*
X014900Y057550D02*
D03*
X014450D02*
D03*
X014900Y054350D02*
D03*
X016700Y056700D02*
D03*
X015950Y059600D02*
D03*
X016200Y053050D02*
D03*
X015250Y054850D02*
D03*
D46*
X017950Y016300D02*
D03*
Y026300D02*
D03*
Y036300D02*
D03*
Y046300D02*
D03*
Y056300D02*
D03*
M02*
