G04 Layer_Color=65535*
%FSAX24Y24*%
%MOIN*%
G70*
G01*
G75*
%ADD18C,0.0100*%
%ADD29C,0.0080*%
%ADD30C,0.0020*%
%ADD31C,0.0060*%
%ADD32C,0.0050*%
%ADD33C,0.0059*%
G36*
X007124Y000400D02*
X007097D01*
Y000563D01*
X007124D01*
Y000400D01*
D02*
G37*
G36*
X008540Y000563D02*
X008568D01*
Y000541D01*
X008540D01*
Y000446D01*
Y000445D01*
Y000444D01*
Y000442D01*
X008540Y000440D01*
X008540Y000434D01*
X008541Y000432D01*
X008541Y000430D01*
X008541Y000430D01*
X008542Y000429D01*
X008544Y000427D01*
X008546Y000425D01*
X008546Y000425D01*
X008548Y000424D01*
X008551Y000424D01*
X008555Y000423D01*
X008558D01*
X008560Y000424D01*
X008562D01*
X008565Y000424D01*
X008568Y000424D01*
X008571Y000400D01*
X008570D01*
X008569Y000400D01*
X008567Y000399D01*
X008564Y000399D01*
X008561Y000398D01*
X008557Y000398D01*
X008550Y000398D01*
X008547D01*
X008545Y000398D01*
X008542Y000398D01*
X008538Y000399D01*
X008534Y000400D01*
X008530Y000401D01*
X008527Y000402D01*
X008526Y000403D01*
X008525Y000403D01*
X008524Y000404D01*
X008522Y000406D01*
X008521Y000407D01*
X008519Y000410D01*
X008517Y000412D01*
X008515Y000415D01*
Y000415D01*
X008515Y000417D01*
X008514Y000419D01*
X008514Y000422D01*
X008513Y000426D01*
X008513Y000429D01*
Y000432D01*
X008512Y000435D01*
X008512Y000439D01*
Y000443D01*
Y000447D01*
Y000541D01*
X008492D01*
Y000563D01*
X008512D01*
Y000603D01*
X008540Y000619D01*
Y000563D01*
D02*
G37*
G36*
X007367Y000400D02*
X007340D01*
Y000624D01*
X007367D01*
Y000400D01*
D02*
G37*
G36*
X007242Y000566D02*
X007247Y000566D01*
X007252Y000565D01*
X007258Y000564D01*
X007263Y000563D01*
X007269Y000561D01*
X007269Y000561D01*
X007271Y000560D01*
X007273Y000559D01*
X007276Y000558D01*
X007279Y000556D01*
X007283Y000554D01*
X007285Y000551D01*
X007288Y000549D01*
X007288Y000548D01*
X007289Y000547D01*
X007290Y000546D01*
X007291Y000544D01*
X007293Y000541D01*
X007294Y000538D01*
X007296Y000534D01*
X007297Y000530D01*
Y000530D01*
X007297Y000529D01*
X007297Y000527D01*
X007297Y000524D01*
Y000521D01*
X007298Y000517D01*
X007298Y000511D01*
Y000505D01*
Y000468D01*
Y000468D01*
Y000466D01*
Y000464D01*
Y000462D01*
Y000459D01*
Y000455D01*
X007298Y000448D01*
Y000440D01*
X007299Y000431D01*
X007299Y000428D01*
Y000425D01*
X007299Y000422D01*
X007300Y000419D01*
Y000419D01*
X007300Y000418D01*
X007300Y000416D01*
X007301Y000413D01*
X007302Y000410D01*
X007303Y000407D01*
X007305Y000404D01*
X007307Y000400D01*
X007278D01*
X007277Y000400D01*
X007277Y000402D01*
X007276Y000403D01*
X007275Y000406D01*
X007274Y000409D01*
X007274Y000412D01*
X007273Y000416D01*
X007273Y000420D01*
X007272D01*
X007272Y000420D01*
X007270Y000418D01*
X007267Y000416D01*
X007263Y000413D01*
X007258Y000410D01*
X007253Y000407D01*
X007248Y000404D01*
X007243Y000402D01*
X007242Y000401D01*
X007240Y000401D01*
X007237Y000400D01*
X007234Y000399D01*
X007229Y000398D01*
X007224Y000397D01*
X007218Y000397D01*
X007212Y000396D01*
X007210D01*
X007208Y000397D01*
X007205D01*
X007203Y000397D01*
X007197Y000398D01*
X007191Y000400D01*
X007183Y000402D01*
X007177Y000405D01*
X007171Y000409D01*
X007170Y000410D01*
X007169Y000412D01*
X007167Y000415D01*
X007164Y000418D01*
X007161Y000423D01*
X007159Y000429D01*
X007157Y000436D01*
X007157Y000439D01*
X007157Y000443D01*
Y000443D01*
Y000445D01*
X007157Y000447D01*
X007157Y000450D01*
X007158Y000453D01*
X007159Y000457D01*
X007160Y000461D01*
X007162Y000464D01*
X007162Y000465D01*
X007163Y000466D01*
X007164Y000468D01*
X007166Y000470D01*
X007168Y000473D01*
X007170Y000475D01*
X007173Y000478D01*
X007176Y000480D01*
X007177Y000481D01*
X007178Y000481D01*
X007180Y000483D01*
X007182Y000484D01*
X007185Y000485D01*
X007189Y000487D01*
X007192Y000488D01*
X007196Y000489D01*
X007197D01*
X007198Y000490D01*
X007200Y000490D01*
X007203Y000491D01*
X007206Y000491D01*
X007210Y000492D01*
X007215Y000493D01*
X007221Y000494D01*
X007221D01*
X007222Y000494D01*
X007224D01*
X007226Y000494D01*
X007229Y000495D01*
X007232Y000495D01*
X007236Y000496D01*
X007239Y000496D01*
X007247Y000498D01*
X007256Y000499D01*
X007263Y000501D01*
X007267Y000502D01*
X007270Y000503D01*
Y000504D01*
Y000504D01*
X007270Y000506D01*
Y000509D01*
Y000510D01*
Y000510D01*
Y000511D01*
Y000511D01*
Y000513D01*
X007270Y000516D01*
X007269Y000520D01*
X007268Y000524D01*
X007267Y000528D01*
X007265Y000531D01*
X007262Y000534D01*
X007262Y000534D01*
X007260Y000536D01*
X007258Y000537D01*
X007254Y000539D01*
X007250Y000541D01*
X007245Y000542D01*
X007238Y000543D01*
X007231Y000544D01*
X007227D01*
X007224Y000543D01*
X007220Y000543D01*
X007215Y000542D01*
X007210Y000541D01*
X007206Y000539D01*
X007202Y000537D01*
X007202Y000536D01*
X007200Y000535D01*
X007199Y000534D01*
X007197Y000531D01*
X007195Y000528D01*
X007192Y000524D01*
X007191Y000519D01*
X007189Y000513D01*
X007162Y000516D01*
Y000517D01*
X007162Y000517D01*
Y000518D01*
X007162Y000519D01*
X007163Y000522D01*
X007165Y000526D01*
X007166Y000531D01*
X007168Y000535D01*
X007171Y000540D01*
X007174Y000544D01*
X007174Y000544D01*
X007175Y000545D01*
X007177Y000547D01*
X007180Y000550D01*
X007183Y000553D01*
X007188Y000555D01*
X007192Y000558D01*
X007198Y000560D01*
X007198D01*
X007199Y000561D01*
X007200Y000561D01*
X007201Y000561D01*
X007204Y000562D01*
X007209Y000563D01*
X007214Y000564D01*
X007220Y000565D01*
X007227Y000566D01*
X007235Y000566D01*
X007239D01*
X007242Y000566D01*
D02*
G37*
G36*
X011131Y000544D02*
X011131Y000545D01*
X011131Y000545D01*
X011132Y000546D01*
X011134Y000548D01*
X011136Y000549D01*
X011138Y000551D01*
X011140Y000553D01*
X011143Y000555D01*
X011149Y000559D01*
X011157Y000563D01*
X011161Y000564D01*
X011165Y000565D01*
X011170Y000566D01*
X011175Y000566D01*
X011178D01*
X011181Y000566D01*
X011184Y000566D01*
X011188Y000565D01*
X011193Y000564D01*
X011198Y000562D01*
X011203Y000560D01*
X011204Y000560D01*
X011206Y000559D01*
X011208Y000557D01*
X011211Y000556D01*
X011215Y000553D01*
X011218Y000550D01*
X011222Y000547D01*
X011225Y000543D01*
X011226Y000543D01*
X011227Y000541D01*
X011228Y000539D01*
X011230Y000536D01*
X011232Y000532D01*
X011235Y000527D01*
X011237Y000522D01*
X011239Y000517D01*
Y000516D01*
X011239Y000516D01*
X011240Y000515D01*
X011240Y000514D01*
X011241Y000511D01*
X011242Y000507D01*
X011242Y000502D01*
X011243Y000496D01*
X011244Y000490D01*
X011244Y000484D01*
Y000483D01*
Y000482D01*
Y000480D01*
X011244Y000477D01*
X011243Y000473D01*
X011243Y000469D01*
X011242Y000465D01*
X011242Y000460D01*
X011239Y000450D01*
X011237Y000444D01*
X011235Y000439D01*
X011233Y000433D01*
X011230Y000429D01*
X011227Y000424D01*
X011223Y000419D01*
X011223Y000419D01*
X011222Y000418D01*
X011221Y000417D01*
X011220Y000416D01*
X011218Y000414D01*
X011215Y000412D01*
X011213Y000410D01*
X011209Y000408D01*
X011206Y000406D01*
X011202Y000404D01*
X011194Y000400D01*
X011189Y000398D01*
X011184Y000397D01*
X011179Y000397D01*
X011174Y000396D01*
X011173D01*
X011171Y000397D01*
X011169D01*
X011167Y000397D01*
X011164Y000398D01*
X011157Y000399D01*
X011154Y000401D01*
X011150Y000402D01*
X011146Y000404D01*
X011143Y000406D01*
X011139Y000409D01*
X011135Y000413D01*
X011132Y000416D01*
X011129Y000420D01*
Y000400D01*
X011103D01*
Y000624D01*
X011131D01*
Y000544D01*
D02*
G37*
G36*
X006837Y000566D02*
X006840Y000566D01*
X006843Y000565D01*
X006846Y000564D01*
X006851Y000564D01*
X006859Y000561D01*
X006864Y000559D01*
X006868Y000557D01*
X006873Y000555D01*
X006878Y000551D01*
X006882Y000548D01*
X006886Y000544D01*
X006886Y000544D01*
X006887Y000543D01*
X006888Y000542D01*
X006889Y000540D01*
X006891Y000538D01*
X006893Y000535D01*
X006895Y000532D01*
X006897Y000528D01*
X006899Y000524D01*
X006901Y000520D01*
X006903Y000515D01*
X006904Y000509D01*
X006905Y000503D01*
X006906Y000497D01*
X006907Y000491D01*
X006907Y000484D01*
Y000483D01*
Y000482D01*
Y000481D01*
Y000478D01*
X006907Y000476D01*
X006907Y000473D01*
Y000469D01*
X006906Y000466D01*
X006905Y000458D01*
X006903Y000450D01*
X006901Y000441D01*
X006898Y000434D01*
Y000434D01*
X006897Y000433D01*
X006897Y000432D01*
X006896Y000431D01*
X006894Y000428D01*
X006891Y000424D01*
X006887Y000419D01*
X006882Y000415D01*
X006877Y000410D01*
X006870Y000406D01*
X006870D01*
X006869Y000406D01*
X006868Y000405D01*
X006867Y000405D01*
X006865Y000404D01*
X006863Y000403D01*
X006858Y000401D01*
X006853Y000400D01*
X006846Y000398D01*
X006839Y000397D01*
X006831Y000396D01*
X006828D01*
X006825Y000397D01*
X006822Y000397D01*
X006819Y000398D01*
X006815Y000398D01*
X006811Y000399D01*
X006803Y000402D01*
X006798Y000404D01*
X006793Y000406D01*
X006789Y000408D01*
X006784Y000411D01*
X006780Y000414D01*
X006776Y000418D01*
X006776Y000418D01*
X006775Y000419D01*
X006774Y000420D01*
X006773Y000422D01*
X006771Y000425D01*
X006769Y000427D01*
X006767Y000430D01*
X006765Y000434D01*
X006764Y000439D01*
X006762Y000443D01*
X006760Y000449D01*
X006758Y000454D01*
X006757Y000460D01*
X006756Y000467D01*
X006755Y000474D01*
X006755Y000481D01*
Y000482D01*
Y000483D01*
X006755Y000486D01*
Y000489D01*
X006756Y000492D01*
X006756Y000497D01*
X006757Y000501D01*
X006758Y000507D01*
X006760Y000512D01*
X006761Y000517D01*
X006763Y000523D01*
X006766Y000529D01*
X006768Y000534D01*
X006772Y000539D01*
X006776Y000544D01*
X006780Y000548D01*
X006780Y000548D01*
X006781Y000549D01*
X006782Y000550D01*
X006784Y000551D01*
X006786Y000552D01*
X006788Y000554D01*
X006791Y000556D01*
X006794Y000557D01*
X006798Y000559D01*
X006802Y000560D01*
X006811Y000563D01*
X006821Y000566D01*
X006826Y000566D01*
X006831Y000566D01*
X006834D01*
X006837Y000566D01*
D02*
G37*
G36*
X011612Y000625D02*
X011616Y000624D01*
X011621Y000623D01*
X011626Y000622D01*
X011631Y000620D01*
X011636Y000618D01*
X011637D01*
X011637Y000617D01*
X011639Y000616D01*
X011641Y000615D01*
X011645Y000613D01*
X011648Y000609D01*
X011652Y000606D01*
X011656Y000602D01*
X011659Y000597D01*
X011659Y000596D01*
X011661Y000594D01*
X011662Y000591D01*
X011664Y000587D01*
X011666Y000582D01*
X011669Y000577D01*
X011671Y000570D01*
X011673Y000563D01*
Y000563D01*
X011673Y000562D01*
X011674Y000561D01*
X011674Y000560D01*
X011674Y000558D01*
X011675Y000556D01*
X011675Y000553D01*
X011676Y000549D01*
X011676Y000546D01*
X011677Y000542D01*
X011677Y000537D01*
X011678Y000533D01*
X011678Y000528D01*
Y000522D01*
X011678Y000517D01*
Y000510D01*
Y000510D01*
Y000509D01*
Y000507D01*
Y000504D01*
X011678Y000500D01*
Y000497D01*
X011678Y000492D01*
X011677Y000488D01*
X011676Y000477D01*
X011675Y000467D01*
X011673Y000456D01*
X011671Y000452D01*
X011670Y000447D01*
Y000446D01*
X011670Y000446D01*
X011669Y000444D01*
X011668Y000443D01*
X011668Y000441D01*
X011666Y000438D01*
X011664Y000433D01*
X011660Y000427D01*
X011656Y000420D01*
X011651Y000415D01*
X011646Y000409D01*
X011645D01*
X011645Y000408D01*
X011644Y000408D01*
X011643Y000407D01*
X011641Y000406D01*
X011639Y000405D01*
X011635Y000403D01*
X011629Y000400D01*
X011622Y000398D01*
X011614Y000397D01*
X011605Y000396D01*
X011602D01*
X011600Y000396D01*
X011597Y000397D01*
X011594Y000397D01*
X011590Y000398D01*
X011586Y000399D01*
X011582Y000400D01*
X011578Y000402D01*
X011574Y000404D01*
X011570Y000406D01*
X011566Y000408D01*
X011561Y000412D01*
X011557Y000415D01*
X011554Y000419D01*
X011554Y000419D01*
X011553Y000420D01*
X011552Y000422D01*
X011550Y000425D01*
X011549Y000428D01*
X011547Y000431D01*
X011545Y000436D01*
X011543Y000441D01*
X011541Y000447D01*
X011539Y000454D01*
X011537Y000461D01*
X011535Y000470D01*
X011534Y000479D01*
X011533Y000488D01*
X011532Y000499D01*
X011532Y000510D01*
Y000511D01*
Y000512D01*
Y000514D01*
Y000517D01*
X011532Y000521D01*
Y000524D01*
X011532Y000529D01*
X011533Y000533D01*
X011534Y000544D01*
X011535Y000554D01*
X011537Y000565D01*
X011539Y000570D01*
X011540Y000575D01*
Y000575D01*
X011540Y000576D01*
X011541Y000577D01*
X011542Y000579D01*
X011542Y000581D01*
X011543Y000583D01*
X011546Y000589D01*
X011549Y000594D01*
X011554Y000601D01*
X011558Y000607D01*
X011564Y000612D01*
X011565D01*
X011565Y000613D01*
X011566Y000613D01*
X011567Y000614D01*
X011569Y000615D01*
X011571Y000616D01*
X011576Y000619D01*
X011581Y000621D01*
X011588Y000623D01*
X011596Y000625D01*
X011605Y000625D01*
X011608D01*
X011612Y000625D01*
D02*
G37*
G36*
X010147Y000566D02*
X010150Y000566D01*
X010153Y000565D01*
X010157Y000564D01*
X010161Y000563D01*
X010165Y000562D01*
X010169Y000561D01*
X010174Y000559D01*
X010178Y000557D01*
X010183Y000554D01*
X010187Y000551D01*
X010191Y000548D01*
X010195Y000544D01*
X010196Y000544D01*
X010196Y000543D01*
X010197Y000542D01*
X010199Y000540D01*
X010200Y000537D01*
X010202Y000535D01*
X010204Y000532D01*
X010206Y000528D01*
X010208Y000523D01*
X010210Y000519D01*
X010211Y000514D01*
X010213Y000508D01*
X010214Y000502D01*
X010215Y000496D01*
X010216Y000489D01*
X010216Y000481D01*
Y000481D01*
Y000480D01*
Y000477D01*
X010216Y000474D01*
X010094D01*
Y000474D01*
Y000473D01*
X010095Y000472D01*
Y000470D01*
X010095Y000467D01*
X010096Y000465D01*
X010096Y000459D01*
X010098Y000452D01*
X010101Y000445D01*
X010105Y000439D01*
X010109Y000433D01*
X010109D01*
X010110Y000432D01*
X010112Y000431D01*
X010115Y000429D01*
X010119Y000426D01*
X010124Y000424D01*
X010130Y000421D01*
X010136Y000420D01*
X010140Y000419D01*
X010143Y000419D01*
X010146D01*
X010149Y000419D01*
X010153Y000420D01*
X010156Y000421D01*
X010161Y000422D01*
X010165Y000424D01*
X010169Y000427D01*
X010170Y000427D01*
X010171Y000429D01*
X010173Y000430D01*
X010176Y000433D01*
X010178Y000437D01*
X010181Y000441D01*
X010184Y000446D01*
X010187Y000452D01*
X010215Y000449D01*
Y000449D01*
X010215Y000448D01*
X010214Y000447D01*
X010214Y000445D01*
X010213Y000443D01*
X010212Y000440D01*
X010209Y000435D01*
X010206Y000429D01*
X010201Y000422D01*
X010196Y000416D01*
X010190Y000410D01*
X010189D01*
X010189Y000409D01*
X010188Y000409D01*
X010187Y000408D01*
X010185Y000407D01*
X010183Y000406D01*
X010180Y000405D01*
X010177Y000403D01*
X010174Y000402D01*
X010171Y000401D01*
X010163Y000399D01*
X010154Y000397D01*
X010143Y000396D01*
X010140D01*
X010138Y000397D01*
X010135Y000397D01*
X010131Y000398D01*
X010127Y000398D01*
X010123Y000399D01*
X010114Y000402D01*
X010109Y000404D01*
X010105Y000406D01*
X010100Y000408D01*
X010095Y000411D01*
X010091Y000414D01*
X010087Y000418D01*
X010086Y000418D01*
X010086Y000419D01*
X010085Y000420D01*
X010084Y000422D01*
X010082Y000425D01*
X010080Y000427D01*
X010078Y000430D01*
X010076Y000434D01*
X010074Y000438D01*
X010073Y000443D01*
X010071Y000448D01*
X010069Y000453D01*
X010068Y000459D01*
X010067Y000466D01*
X010066Y000473D01*
X010066Y000480D01*
Y000480D01*
Y000482D01*
Y000484D01*
X010066Y000487D01*
X010067Y000490D01*
X010067Y000494D01*
X010068Y000498D01*
X010069Y000503D01*
X010071Y000513D01*
X010073Y000519D01*
X010075Y000524D01*
X010077Y000529D01*
X010080Y000534D01*
X010084Y000539D01*
X010087Y000544D01*
X010087Y000544D01*
X010088Y000545D01*
X010089Y000545D01*
X010091Y000547D01*
X010093Y000549D01*
X010096Y000551D01*
X010098Y000553D01*
X010102Y000555D01*
X010106Y000557D01*
X010110Y000559D01*
X010114Y000561D01*
X010119Y000563D01*
X010124Y000564D01*
X010130Y000565D01*
X010136Y000566D01*
X010142Y000566D01*
X010145D01*
X010147Y000566D01*
D02*
G37*
G36*
X007795D02*
X007798Y000566D01*
X007801Y000565D01*
X007805Y000564D01*
X007809Y000564D01*
X007817Y000561D01*
X007822Y000559D01*
X007827Y000557D01*
X007831Y000555D01*
X007836Y000551D01*
X007840Y000548D01*
X007844Y000544D01*
X007844Y000544D01*
X007845Y000543D01*
X007846Y000542D01*
X007847Y000540D01*
X007849Y000538D01*
X007851Y000535D01*
X007853Y000532D01*
X007855Y000528D01*
X007857Y000524D01*
X007859Y000520D01*
X007861Y000515D01*
X007862Y000509D01*
X007864Y000503D01*
X007864Y000497D01*
X007865Y000491D01*
X007865Y000484D01*
Y000483D01*
Y000482D01*
Y000481D01*
Y000478D01*
X007865Y000476D01*
X007865Y000473D01*
Y000469D01*
X007864Y000466D01*
X007863Y000458D01*
X007861Y000450D01*
X007859Y000441D01*
X007856Y000434D01*
Y000434D01*
X007855Y000433D01*
X007855Y000432D01*
X007854Y000431D01*
X007852Y000428D01*
X007849Y000424D01*
X007845Y000419D01*
X007840Y000415D01*
X007835Y000410D01*
X007828Y000406D01*
X007828D01*
X007828Y000406D01*
X007827Y000405D01*
X007825Y000405D01*
X007823Y000404D01*
X007821Y000403D01*
X007817Y000401D01*
X007811Y000400D01*
X007804Y000398D01*
X007797Y000397D01*
X007789Y000396D01*
X007786D01*
X007783Y000397D01*
X007781Y000397D01*
X007777Y000398D01*
X007773Y000398D01*
X007770Y000399D01*
X007761Y000402D01*
X007756Y000404D01*
X007751Y000406D01*
X007747Y000408D01*
X007742Y000411D01*
X007738Y000414D01*
X007734Y000418D01*
X007734Y000418D01*
X007733Y000419D01*
X007732Y000420D01*
X007731Y000422D01*
X007729Y000425D01*
X007727Y000427D01*
X007725Y000430D01*
X007724Y000434D01*
X007722Y000439D01*
X007720Y000443D01*
X007718Y000449D01*
X007716Y000454D01*
X007715Y000460D01*
X007714Y000467D01*
X007713Y000474D01*
X007713Y000481D01*
Y000482D01*
Y000483D01*
X007713Y000486D01*
Y000489D01*
X007714Y000492D01*
X007714Y000497D01*
X007715Y000501D01*
X007716Y000507D01*
X007718Y000512D01*
X007719Y000517D01*
X007721Y000523D01*
X007724Y000529D01*
X007726Y000534D01*
X007730Y000539D01*
X007734Y000544D01*
X007738Y000548D01*
X007738Y000548D01*
X007739Y000549D01*
X007740Y000550D01*
X007742Y000551D01*
X007744Y000552D01*
X007747Y000554D01*
X007749Y000556D01*
X007752Y000557D01*
X007756Y000559D01*
X007760Y000560D01*
X007769Y000563D01*
X007779Y000566D01*
X007784Y000566D01*
X007789Y000566D01*
X007793D01*
X007795Y000566D01*
D02*
G37*
G36*
X011005D02*
X011010Y000566D01*
X011016Y000565D01*
X011021Y000564D01*
X011027Y000563D01*
X011032Y000561D01*
X011033Y000561D01*
X011034Y000560D01*
X011036Y000559D01*
X011039Y000558D01*
X011043Y000556D01*
X011046Y000554D01*
X011049Y000551D01*
X011051Y000549D01*
X011052Y000548D01*
X011052Y000547D01*
X011053Y000546D01*
X011055Y000544D01*
X011056Y000541D01*
X011057Y000538D01*
X011059Y000534D01*
X011060Y000530D01*
Y000530D01*
X011060Y000529D01*
X011060Y000527D01*
X011061Y000524D01*
Y000521D01*
X011061Y000517D01*
X011061Y000511D01*
Y000505D01*
Y000468D01*
Y000468D01*
Y000466D01*
Y000464D01*
Y000462D01*
Y000459D01*
Y000455D01*
X011062Y000448D01*
Y000440D01*
X011062Y000431D01*
X011062Y000428D01*
Y000425D01*
X011063Y000422D01*
X011063Y000419D01*
Y000419D01*
X011063Y000418D01*
X011064Y000416D01*
X011065Y000413D01*
X011065Y000410D01*
X011067Y000407D01*
X011068Y000404D01*
X011070Y000400D01*
X011041D01*
X011041Y000400D01*
X011040Y000402D01*
X011040Y000403D01*
X011039Y000406D01*
X011038Y000409D01*
X011037Y000412D01*
X011036Y000416D01*
X011036Y000420D01*
X011035D01*
X011035Y000420D01*
X011033Y000418D01*
X011030Y000416D01*
X011026Y000413D01*
X011022Y000410D01*
X011017Y000407D01*
X011011Y000404D01*
X011006Y000402D01*
X011005Y000401D01*
X011003Y000401D01*
X011000Y000400D01*
X010997Y000399D01*
X010992Y000398D01*
X010987Y000397D01*
X010981Y000397D01*
X010976Y000396D01*
X010973D01*
X010971Y000397D01*
X010969D01*
X010966Y000397D01*
X010960Y000398D01*
X010954Y000400D01*
X010947Y000402D01*
X010940Y000405D01*
X010934Y000409D01*
X010934Y000410D01*
X010932Y000412D01*
X010930Y000415D01*
X010927Y000418D01*
X010925Y000423D01*
X010922Y000429D01*
X010921Y000436D01*
X010920Y000439D01*
X010920Y000443D01*
Y000443D01*
Y000445D01*
X010920Y000447D01*
X010921Y000450D01*
X010921Y000453D01*
X010922Y000457D01*
X010924Y000461D01*
X010925Y000464D01*
X010926Y000465D01*
X010926Y000466D01*
X010928Y000468D01*
X010929Y000470D01*
X010931Y000473D01*
X010934Y000475D01*
X010936Y000478D01*
X010940Y000480D01*
X010940Y000481D01*
X010941Y000481D01*
X010943Y000483D01*
X010945Y000484D01*
X010948Y000485D01*
X010952Y000487D01*
X010955Y000488D01*
X010960Y000489D01*
X010960D01*
X010961Y000490D01*
X010963Y000490D01*
X010966Y000491D01*
X010969Y000491D01*
X010973Y000492D01*
X010978Y000493D01*
X010984Y000494D01*
X010984D01*
X010986Y000494D01*
X010987D01*
X010989Y000494D01*
X010992Y000495D01*
X010995Y000495D01*
X010999Y000496D01*
X011003Y000496D01*
X011011Y000498D01*
X011019Y000499D01*
X011026Y000501D01*
X011030Y000502D01*
X011033Y000503D01*
Y000504D01*
Y000504D01*
X011034Y000506D01*
Y000509D01*
Y000510D01*
Y000510D01*
Y000511D01*
Y000511D01*
Y000513D01*
X011033Y000516D01*
X011033Y000520D01*
X011032Y000524D01*
X011030Y000528D01*
X011028Y000531D01*
X011025Y000534D01*
X011025Y000534D01*
X011023Y000536D01*
X011021Y000537D01*
X011018Y000539D01*
X011013Y000541D01*
X011008Y000542D01*
X011001Y000543D01*
X010994Y000544D01*
X010991D01*
X010987Y000543D01*
X010983Y000543D01*
X010978Y000542D01*
X010974Y000541D01*
X010969Y000539D01*
X010965Y000537D01*
X010965Y000536D01*
X010964Y000535D01*
X010962Y000534D01*
X010960Y000531D01*
X010958Y000528D01*
X010956Y000524D01*
X010954Y000519D01*
X010952Y000513D01*
X010925Y000516D01*
Y000517D01*
X010925Y000517D01*
Y000518D01*
X010926Y000519D01*
X010927Y000522D01*
X010928Y000526D01*
X010930Y000531D01*
X010931Y000535D01*
X010934Y000540D01*
X010937Y000544D01*
X010937Y000544D01*
X010939Y000545D01*
X010941Y000547D01*
X010943Y000550D01*
X010947Y000553D01*
X010951Y000555D01*
X010956Y000558D01*
X010961Y000560D01*
X010962D01*
X010962Y000561D01*
X010963Y000561D01*
X010964Y000561D01*
X010967Y000562D01*
X010972Y000563D01*
X010977Y000564D01*
X010984Y000565D01*
X010990Y000566D01*
X010998Y000566D01*
X011002D01*
X011005Y000566D01*
D02*
G37*
G36*
X010787Y000427D02*
X010898D01*
Y000400D01*
X010757D01*
Y000624D01*
X010787D01*
Y000427D01*
D02*
G37*
G36*
X011810Y000400D02*
X011782D01*
Y000575D01*
X011782Y000575D01*
X011780Y000574D01*
X011778Y000572D01*
X011775Y000569D01*
X011772Y000567D01*
X011767Y000563D01*
X011762Y000560D01*
X011756Y000556D01*
X011756D01*
X011755Y000556D01*
X011753Y000555D01*
X011750Y000553D01*
X011746Y000551D01*
X011742Y000549D01*
X011737Y000546D01*
X011732Y000544D01*
X011727Y000542D01*
Y000569D01*
X011728D01*
X011728Y000569D01*
X011729Y000570D01*
X011731Y000571D01*
X011733Y000572D01*
X011735Y000573D01*
X011741Y000576D01*
X011747Y000580D01*
X011754Y000584D01*
X011761Y000590D01*
X011767Y000595D01*
X011768Y000595D01*
X011768Y000596D01*
X011769Y000597D01*
X011770Y000598D01*
X011773Y000601D01*
X011777Y000605D01*
X011781Y000609D01*
X011785Y000614D01*
X011789Y000620D01*
X011792Y000625D01*
X011810D01*
Y000400D01*
D02*
G37*
G36*
X011437Y000625D02*
X011440Y000625D01*
X011443Y000624D01*
X011447Y000624D01*
X011450Y000623D01*
X011459Y000621D01*
X011467Y000617D01*
X011471Y000615D01*
X011475Y000613D01*
X011479Y000610D01*
X011483Y000607D01*
X011483Y000607D01*
X011484Y000606D01*
X011485Y000605D01*
X011486Y000604D01*
X011487Y000602D01*
X011489Y000600D01*
X011491Y000598D01*
X011493Y000595D01*
X011496Y000589D01*
X011499Y000581D01*
X011500Y000577D01*
X011501Y000572D01*
X011502Y000568D01*
X011502Y000563D01*
Y000562D01*
Y000561D01*
X011502Y000558D01*
X011501Y000555D01*
X011501Y000551D01*
X011499Y000546D01*
X011498Y000541D01*
X011496Y000536D01*
X011496Y000536D01*
X011495Y000534D01*
X011494Y000532D01*
X011492Y000528D01*
X011489Y000524D01*
X011486Y000519D01*
X011482Y000514D01*
X011478Y000509D01*
X011477Y000508D01*
X011475Y000506D01*
X011474Y000505D01*
X011472Y000503D01*
X011470Y000501D01*
X011468Y000498D01*
X011465Y000496D01*
X011462Y000493D01*
X011459Y000490D01*
X011455Y000486D01*
X011451Y000483D01*
X011446Y000478D01*
X011441Y000474D01*
X011436Y000470D01*
X011435Y000469D01*
X011435Y000469D01*
X011433Y000468D01*
X011432Y000466D01*
X011430Y000464D01*
X011428Y000463D01*
X011422Y000458D01*
X011417Y000453D01*
X011412Y000449D01*
X011407Y000444D01*
X011405Y000443D01*
X011404Y000441D01*
X011403Y000441D01*
X011402Y000440D01*
X011401Y000439D01*
X011399Y000437D01*
X011398Y000434D01*
X011396Y000432D01*
X011392Y000427D01*
X011502D01*
Y000400D01*
X011354D01*
Y000400D01*
Y000402D01*
Y000404D01*
X011354Y000406D01*
X011354Y000409D01*
X011355Y000412D01*
X011356Y000416D01*
X011357Y000419D01*
Y000419D01*
X011357Y000420D01*
X011358Y000422D01*
X011359Y000425D01*
X011361Y000429D01*
X011364Y000433D01*
X011367Y000438D01*
X011370Y000443D01*
X011375Y000449D01*
Y000449D01*
X011376Y000450D01*
X011377Y000452D01*
X011380Y000454D01*
X011384Y000459D01*
X011389Y000463D01*
X011395Y000469D01*
X011403Y000476D01*
X011411Y000483D01*
X011411Y000483D01*
X011413Y000484D01*
X011415Y000486D01*
X011417Y000487D01*
X011420Y000490D01*
X011423Y000493D01*
X011427Y000496D01*
X011431Y000500D01*
X011439Y000508D01*
X011447Y000515D01*
X011451Y000519D01*
X011455Y000523D01*
X011458Y000527D01*
X011461Y000530D01*
Y000531D01*
X011461Y000531D01*
X011462Y000532D01*
X011462Y000533D01*
X011465Y000537D01*
X011467Y000541D01*
X011470Y000546D01*
X011472Y000552D01*
X011473Y000558D01*
X011474Y000564D01*
Y000564D01*
Y000564D01*
X011473Y000566D01*
X011473Y000569D01*
X011472Y000573D01*
X011471Y000578D01*
X011469Y000582D01*
X011466Y000587D01*
X011462Y000591D01*
X011461Y000592D01*
X011460Y000593D01*
X011457Y000595D01*
X011454Y000597D01*
X011449Y000599D01*
X011444Y000601D01*
X011438Y000602D01*
X011431Y000602D01*
X011429D01*
X011428Y000602D01*
X011424Y000602D01*
X011419Y000601D01*
X011415Y000600D01*
X011409Y000597D01*
X011404Y000594D01*
X011399Y000591D01*
X011398Y000590D01*
X011397Y000588D01*
X011395Y000586D01*
X011393Y000582D01*
X011391Y000577D01*
X011389Y000571D01*
X011388Y000565D01*
X011387Y000557D01*
X011359Y000560D01*
Y000561D01*
X011359Y000562D01*
Y000563D01*
X011359Y000566D01*
X011360Y000568D01*
X011361Y000571D01*
X011362Y000575D01*
X011363Y000578D01*
X011365Y000586D01*
X011369Y000594D01*
X011371Y000598D01*
X011374Y000602D01*
X011377Y000605D01*
X011381Y000608D01*
X011381Y000609D01*
X011381Y000609D01*
X011382Y000610D01*
X011384Y000611D01*
X011386Y000612D01*
X011388Y000614D01*
X011391Y000615D01*
X011394Y000617D01*
X011398Y000618D01*
X011402Y000620D01*
X011406Y000621D01*
X011410Y000623D01*
X011415Y000624D01*
X011420Y000625D01*
X011426Y000625D01*
X011432Y000625D01*
X011435D01*
X011437Y000625D01*
D02*
G37*
G36*
X010570Y000566D02*
X010574Y000566D01*
X010580Y000565D01*
X010585Y000564D01*
X010591Y000563D01*
X010596Y000561D01*
X010597Y000561D01*
X010598Y000560D01*
X010601Y000559D01*
X010604Y000558D01*
X010607Y000556D01*
X010610Y000554D01*
X010613Y000551D01*
X010616Y000549D01*
X010616Y000548D01*
X010617Y000547D01*
X010618Y000546D01*
X010619Y000544D01*
X010620Y000541D01*
X010622Y000538D01*
X010623Y000534D01*
X010624Y000530D01*
Y000530D01*
X010624Y000529D01*
X010625Y000527D01*
X010625Y000524D01*
Y000521D01*
X010625Y000517D01*
X010626Y000511D01*
Y000505D01*
Y000468D01*
Y000468D01*
Y000466D01*
Y000464D01*
Y000462D01*
Y000459D01*
Y000455D01*
X010626Y000448D01*
Y000440D01*
X010626Y000431D01*
X010627Y000428D01*
Y000425D01*
X010627Y000422D01*
X010627Y000419D01*
Y000419D01*
X010628Y000418D01*
X010628Y000416D01*
X010629Y000413D01*
X010629Y000410D01*
X010631Y000407D01*
X010632Y000404D01*
X010634Y000400D01*
X010605D01*
X010605Y000400D01*
X010605Y000402D01*
X010604Y000403D01*
X010603Y000406D01*
X010602Y000409D01*
X010601Y000412D01*
X010601Y000416D01*
X010600Y000420D01*
X010600D01*
X010599Y000420D01*
X010597Y000418D01*
X010594Y000416D01*
X010591Y000413D01*
X010586Y000410D01*
X010581Y000407D01*
X010576Y000404D01*
X010570Y000402D01*
X010570Y000401D01*
X010568Y000401D01*
X010565Y000400D01*
X010561Y000399D01*
X010557Y000398D01*
X010551Y000397D01*
X010546Y000397D01*
X010540Y000396D01*
X010537D01*
X010535Y000397D01*
X010533D01*
X010530Y000397D01*
X010525Y000398D01*
X010518Y000400D01*
X010511Y000402D01*
X010504Y000405D01*
X010499Y000409D01*
X010498Y000410D01*
X010496Y000412D01*
X010494Y000415D01*
X010491Y000418D01*
X010489Y000423D01*
X010487Y000429D01*
X010485Y000436D01*
X010485Y000439D01*
X010484Y000443D01*
Y000443D01*
Y000445D01*
X010485Y000447D01*
X010485Y000450D01*
X010486Y000453D01*
X010487Y000457D01*
X010488Y000461D01*
X010490Y000464D01*
X010490Y000465D01*
X010490Y000466D01*
X010492Y000468D01*
X010493Y000470D01*
X010495Y000473D01*
X010498Y000475D01*
X010501Y000478D01*
X010504Y000480D01*
X010504Y000481D01*
X010505Y000481D01*
X010507Y000483D01*
X010510Y000484D01*
X010513Y000485D01*
X010516Y000487D01*
X010520Y000488D01*
X010524Y000489D01*
X010524D01*
X010525Y000490D01*
X010527Y000490D01*
X010530Y000491D01*
X010533Y000491D01*
X010537Y000492D01*
X010542Y000493D01*
X010548Y000494D01*
X010548D01*
X010550Y000494D01*
X010551D01*
X010554Y000494D01*
X010556Y000495D01*
X010560Y000495D01*
X010563Y000496D01*
X010567Y000496D01*
X010575Y000498D01*
X010583Y000499D01*
X010591Y000501D01*
X010594Y000502D01*
X010597Y000503D01*
Y000504D01*
Y000504D01*
X010598Y000506D01*
Y000509D01*
Y000510D01*
Y000510D01*
Y000511D01*
Y000511D01*
Y000513D01*
X010597Y000516D01*
X010597Y000520D01*
X010596Y000524D01*
X010594Y000528D01*
X010592Y000531D01*
X010590Y000534D01*
X010589Y000534D01*
X010588Y000536D01*
X010585Y000537D01*
X010582Y000539D01*
X010577Y000541D01*
X010572Y000542D01*
X010566Y000543D01*
X010558Y000544D01*
X010555D01*
X010552Y000543D01*
X010547Y000543D01*
X010543Y000542D01*
X010538Y000541D01*
X010533Y000539D01*
X010529Y000537D01*
X010529Y000536D01*
X010528Y000535D01*
X010526Y000534D01*
X010524Y000531D01*
X010522Y000528D01*
X010520Y000524D01*
X010518Y000519D01*
X010516Y000513D01*
X010489Y000516D01*
Y000517D01*
X010490Y000517D01*
Y000518D01*
X010490Y000519D01*
X010491Y000522D01*
X010492Y000526D01*
X010494Y000531D01*
X010496Y000535D01*
X010498Y000540D01*
X010501Y000544D01*
X010502Y000544D01*
X010503Y000545D01*
X010505Y000547D01*
X010507Y000550D01*
X010511Y000553D01*
X010515Y000555D01*
X010520Y000558D01*
X010525Y000560D01*
X010526D01*
X010526Y000561D01*
X010527Y000561D01*
X010528Y000561D01*
X010532Y000562D01*
X010536Y000563D01*
X010541Y000564D01*
X010548Y000565D01*
X010555Y000566D01*
X010562Y000566D01*
X010566D01*
X010570Y000566D01*
D02*
G37*
G36*
X009487Y000400D02*
X009457D01*
Y000624D01*
X009487D01*
Y000400D01*
D02*
G37*
G36*
X008622D02*
X008595D01*
Y000563D01*
X008622D01*
Y000400D01*
D02*
G37*
G36*
X010452D02*
X010424D01*
Y000563D01*
X010452D01*
Y000400D01*
D02*
G37*
G36*
X009700Y000598D02*
X009626D01*
Y000400D01*
X009596D01*
Y000598D01*
X009522D01*
Y000624D01*
X009700D01*
Y000598D01*
D02*
G37*
G36*
X002356Y003640D02*
X002320D01*
Y003671D01*
X002356D01*
Y003640D01*
D02*
G37*
G36*
X002286D02*
X002100D01*
Y003671D01*
X002286D01*
Y003640D01*
D02*
G37*
G36*
X002189Y004336D02*
X002192D01*
X002197Y004336D01*
X002202Y004335D01*
X002208Y004334D01*
X002214Y004334D01*
X002220Y004332D01*
X002234Y004329D01*
X002248Y004325D01*
X002255Y004322D01*
X002263Y004319D01*
X002263Y004319D01*
X002265Y004318D01*
X002267Y004317D01*
X002271Y004315D01*
X002275Y004313D01*
X002279Y004310D01*
X002284Y004307D01*
X002290Y004304D01*
X002295Y004300D01*
X002301Y004295D01*
X002307Y004290D01*
X002313Y004285D01*
X002319Y004279D01*
X002325Y004273D01*
X002331Y004266D01*
X002335Y004259D01*
X002336Y004259D01*
X002336Y004257D01*
X002338Y004255D01*
X002339Y004252D01*
X002341Y004248D01*
X002343Y004243D01*
X002346Y004238D01*
X002348Y004232D01*
X002350Y004226D01*
X002353Y004218D01*
X002355Y004210D01*
X002356Y004202D01*
X002358Y004193D01*
X002359Y004183D01*
X002360Y004174D01*
X002360Y004163D01*
Y004163D01*
Y004162D01*
Y004159D01*
X002360Y004156D01*
Y004152D01*
X002360Y004148D01*
X002359Y004143D01*
X002358Y004138D01*
X002357Y004132D01*
X002356Y004125D01*
X002353Y004112D01*
X002349Y004099D01*
X002346Y004092D01*
X002343Y004086D01*
X002342Y004085D01*
X002342Y004084D01*
X002341Y004082D01*
X002339Y004080D01*
X002338Y004077D01*
X002335Y004074D01*
X002333Y004070D01*
X002329Y004066D01*
X002326Y004062D01*
X002322Y004057D01*
X002318Y004052D01*
X002313Y004048D01*
X002308Y004044D01*
X002302Y004039D01*
X002296Y004035D01*
X002290Y004031D01*
X002289Y004031D01*
X002288Y004030D01*
X002287Y004030D01*
X002285Y004028D01*
X002282Y004027D01*
X002278Y004025D01*
X002275Y004024D01*
X002270Y004022D01*
X002265Y004021D01*
X002261Y004020D01*
X002249Y004017D01*
X002237Y004015D01*
X002231Y004014D01*
X002222D01*
X002220Y004014D01*
X002216D01*
X002211Y004015D01*
X002206Y004016D01*
X002200Y004017D01*
X002194Y004018D01*
X002187Y004020D01*
X002180Y004023D01*
X002173Y004025D01*
X002165Y004029D01*
X002157Y004033D01*
X002150Y004038D01*
X002142Y004044D01*
X002134Y004050D01*
X002134Y004050D01*
X002133Y004051D01*
X002131Y004053D01*
X002129Y004055D01*
X002126Y004058D01*
X002123Y004062D01*
X002120Y004066D01*
X002117Y004071D01*
X002114Y004075D01*
X002110Y004081D01*
X002107Y004087D01*
X002105Y004092D01*
X002103Y004099D01*
X002101Y004105D01*
X002100Y004112D01*
X002099Y004119D01*
Y004119D01*
Y004121D01*
X002100Y004123D01*
Y004126D01*
X002101Y004132D01*
X002102Y004136D01*
X002103Y004139D01*
Y004139D01*
X002104Y004140D01*
X002104Y004141D01*
X002106Y004143D01*
X002109Y004146D01*
X002113Y004150D01*
X002114D01*
X002114Y004150D01*
X002115Y004151D01*
X002117Y004151D01*
X002119Y004152D01*
X002121Y004152D01*
X002125Y004152D01*
X002128Y004153D01*
X002128Y004153D01*
X002126Y004155D01*
X002124Y004157D01*
X002121Y004160D01*
X002118Y004164D01*
X002114Y004168D01*
X002111Y004173D01*
X002107Y004178D01*
X002107Y004179D01*
X002106Y004181D01*
X002105Y004183D01*
X002104Y004187D01*
X002102Y004191D01*
X002101Y004196D01*
X002100Y004201D01*
X002100Y004207D01*
Y004207D01*
Y004209D01*
X002100Y004212D01*
X002101Y004216D01*
X002102Y004221D01*
X002103Y004226D01*
X002106Y004232D01*
X002109Y004237D01*
X002109Y004238D01*
X002110Y004239D01*
X002113Y004242D01*
X002116Y004246D01*
X002120Y004249D01*
X002124Y004253D01*
X002130Y004257D01*
X002137Y004261D01*
X002137D01*
X002137Y004261D01*
X002138Y004262D01*
X002140Y004262D01*
X002144Y004264D01*
X002149Y004265D01*
X002155Y004267D01*
X002162Y004268D01*
X002170Y004269D01*
X002178Y004270D01*
X002181D01*
X002183Y004269D01*
X002185D01*
X002188Y004269D01*
X002192Y004269D01*
X002195Y004268D01*
X002204Y004266D01*
X002213Y004264D01*
X002223Y004260D01*
X002234Y004256D01*
X002234D01*
X002235Y004255D01*
X002236Y004254D01*
X002238Y004253D01*
X002241Y004252D01*
X002243Y004250D01*
X002249Y004246D01*
X002256Y004240D01*
X002263Y004234D01*
X002270Y004227D01*
X002276Y004220D01*
Y004220D01*
X002276Y004219D01*
X002277Y004218D01*
X002278Y004216D01*
X002280Y004212D01*
X002283Y004207D01*
X002285Y004201D01*
X002288Y004194D01*
X002289Y004186D01*
X002290Y004179D01*
Y004178D01*
Y004176D01*
X002289Y004173D01*
X002289Y004170D01*
X002288Y004165D01*
X002286Y004160D01*
X002284Y004155D01*
X002282Y004150D01*
X002281Y004149D01*
X002280Y004148D01*
X002278Y004145D01*
X002276Y004142D01*
X002272Y004138D01*
X002268Y004134D01*
X002263Y004130D01*
X002258Y004126D01*
X002285Y004121D01*
Y004089D01*
X002167Y004114D01*
X002167D01*
X002166Y004115D01*
X002165D01*
X002163Y004115D01*
X002159Y004116D01*
X002154Y004117D01*
X002150Y004118D01*
X002145Y004119D01*
X002143Y004119D01*
X002142D01*
X002141Y004119D01*
X002139D01*
X002137Y004119D01*
X002134Y004118D01*
X002132Y004116D01*
X002131Y004115D01*
X002130Y004114D01*
X002129Y004111D01*
X002128Y004107D01*
Y004107D01*
Y004105D01*
X002129Y004104D01*
X002130Y004101D01*
X002131Y004097D01*
X002133Y004093D01*
X002136Y004088D01*
X002139Y004083D01*
Y004083D01*
X002140Y004082D01*
X002140Y004081D01*
X002141Y004080D01*
X002144Y004076D01*
X002149Y004072D01*
X002154Y004067D01*
X002161Y004061D01*
X002168Y004057D01*
X002176Y004052D01*
X002177D01*
X002177Y004051D01*
X002178Y004051D01*
X002180Y004050D01*
X002183Y004049D01*
X002185Y004048D01*
X002191Y004046D01*
X002198Y004044D01*
X002207Y004042D01*
X002215Y004040D01*
X002225Y004040D01*
X002228D01*
X002229Y004040D01*
X002232D01*
X002235Y004041D01*
X002239Y004041D01*
X002242Y004042D01*
X002251Y004044D01*
X002260Y004046D01*
X002269Y004050D01*
X002279Y004055D01*
X002279D01*
X002280Y004056D01*
X002282Y004057D01*
X002283Y004058D01*
X002285Y004059D01*
X002288Y004061D01*
X002294Y004066D01*
X002300Y004072D01*
X002307Y004080D01*
X002314Y004089D01*
X002320Y004099D01*
Y004100D01*
X002321Y004101D01*
X002321Y004102D01*
X002322Y004105D01*
X002323Y004107D01*
X002325Y004111D01*
X002326Y004115D01*
X002328Y004119D01*
X002329Y004123D01*
X002330Y004128D01*
X002333Y004139D01*
X002334Y004152D01*
X002335Y004165D01*
Y004165D01*
Y004167D01*
Y004169D01*
X002335Y004172D01*
X002334Y004176D01*
X002334Y004180D01*
X002333Y004185D01*
X002333Y004190D01*
X002332Y004195D01*
X002330Y004201D01*
X002327Y004214D01*
X002325Y004220D01*
X002322Y004227D01*
X002319Y004234D01*
X002316Y004240D01*
X002315Y004240D01*
X002315Y004242D01*
X002314Y004243D01*
X002312Y004246D01*
X002310Y004249D01*
X002308Y004252D01*
X002305Y004255D01*
X002302Y004259D01*
X002298Y004263D01*
X002294Y004267D01*
X002289Y004272D01*
X002284Y004276D01*
X002279Y004280D01*
X002273Y004285D01*
X002267Y004289D01*
X002261Y004292D01*
X002260Y004293D01*
X002259Y004293D01*
X002257Y004294D01*
X002254Y004295D01*
X002251Y004297D01*
X002247Y004298D01*
X002243Y004300D01*
X002238Y004301D01*
X002232Y004303D01*
X002227Y004305D01*
X002220Y004306D01*
X002214Y004308D01*
X002199Y004310D01*
X002192Y004310D01*
X002184Y004311D01*
X002180D01*
X002177Y004310D01*
X002174Y004310D01*
X002169Y004310D01*
X002164Y004309D01*
X002159Y004308D01*
X002147Y004306D01*
X002135Y004303D01*
X002129Y004301D01*
X002123Y004298D01*
X002117Y004296D01*
X002111Y004292D01*
X002110Y004292D01*
X002109Y004291D01*
X002108Y004290D01*
X002106Y004289D01*
X002103Y004287D01*
X002100Y004284D01*
X002097Y004282D01*
X002094Y004279D01*
X002090Y004275D01*
X002086Y004271D01*
X002082Y004267D01*
X002079Y004262D01*
X002075Y004257D01*
X002072Y004251D01*
X002068Y004245D01*
X002065Y004239D01*
Y004238D01*
X002064Y004237D01*
X002064Y004235D01*
X002063Y004232D01*
X002062Y004229D01*
X002060Y004225D01*
X002059Y004221D01*
X002058Y004216D01*
X002056Y004210D01*
X002055Y004204D01*
X002054Y004198D01*
X002053Y004191D01*
X002051Y004176D01*
X002050Y004160D01*
Y004160D01*
Y004158D01*
Y004156D01*
X002051Y004153D01*
Y004149D01*
X002051Y004144D01*
X002052Y004139D01*
X002052Y004134D01*
X002054Y004122D01*
X002057Y004109D01*
X002061Y004096D01*
X002066Y004084D01*
X002066Y004084D01*
X002067Y004082D01*
X002067Y004081D01*
X002069Y004079D01*
X002070Y004076D01*
X002072Y004073D01*
X002076Y004067D01*
X002081Y004059D01*
X002088Y004051D01*
X002095Y004044D01*
X002103Y004037D01*
Y004006D01*
X002103D01*
X002102Y004006D01*
X002101Y004007D01*
X002100Y004008D01*
X002096Y004010D01*
X002091Y004013D01*
X002086Y004017D01*
X002080Y004023D01*
X002073Y004029D01*
X002066Y004037D01*
X002066Y004037D01*
X002065Y004038D01*
X002064Y004039D01*
X002063Y004041D01*
X002061Y004043D01*
X002059Y004045D01*
X002057Y004048D01*
X002055Y004051D01*
X002050Y004059D01*
X002045Y004068D01*
X002040Y004078D01*
X002036Y004088D01*
Y004089D01*
X002035Y004090D01*
X002035Y004091D01*
X002034Y004094D01*
X002033Y004096D01*
X002032Y004100D01*
X002031Y004104D01*
X002030Y004108D01*
X002029Y004114D01*
X002028Y004119D01*
X002027Y004125D01*
X002026Y004131D01*
X002026Y004138D01*
X002025Y004145D01*
X002025Y004160D01*
Y004160D01*
Y004162D01*
Y004164D01*
Y004167D01*
X002025Y004170D01*
Y004174D01*
X002025Y004179D01*
X002026Y004184D01*
X002026Y004189D01*
X002027Y004195D01*
X002029Y004207D01*
X002031Y004219D01*
X002035Y004232D01*
Y004232D01*
X002035Y004233D01*
X002036Y004235D01*
X002036Y004237D01*
X002037Y004240D01*
X002039Y004243D01*
X002040Y004247D01*
X002042Y004251D01*
X002046Y004260D01*
X002052Y004269D01*
X002057Y004279D01*
X002064Y004287D01*
X002065Y004288D01*
X002065Y004289D01*
X002066Y004290D01*
X002068Y004291D01*
X002070Y004293D01*
X002072Y004295D01*
X002078Y004300D01*
X002084Y004306D01*
X002092Y004312D01*
X002101Y004317D01*
X002110Y004322D01*
X002111D01*
X002112Y004323D01*
X002114Y004324D01*
X002116Y004324D01*
X002119Y004326D01*
X002123Y004327D01*
X002127Y004328D01*
X002131Y004329D01*
X002137Y004331D01*
X002142Y004332D01*
X002154Y004334D01*
X002167Y004336D01*
X002181Y004337D01*
X002185D01*
X002189Y004336D01*
D02*
G37*
G36*
X002286Y003941D02*
X002259D01*
X002260Y003941D01*
X002261Y003940D01*
X002264Y003938D01*
X002267Y003935D01*
X002271Y003932D01*
X002274Y003928D01*
X002278Y003923D01*
X002281Y003918D01*
X002282Y003917D01*
X002283Y003916D01*
X002284Y003913D01*
X002286Y003909D01*
X002287Y003904D01*
X002288Y003898D01*
X002289Y003892D01*
X002290Y003885D01*
Y003885D01*
Y003884D01*
Y003883D01*
Y003882D01*
X002289Y003878D01*
X002289Y003873D01*
X002288Y003868D01*
X002286Y003862D01*
X002284Y003857D01*
X002281Y003852D01*
X002281Y003851D01*
X002279Y003849D01*
X002278Y003847D01*
X002275Y003844D01*
X002271Y003841D01*
X002267Y003838D01*
X002262Y003835D01*
X002257Y003833D01*
X002257Y003832D01*
X002258Y003832D01*
X002260Y003830D01*
X002262Y003829D01*
X002265Y003826D01*
X002267Y003824D01*
X002270Y003821D01*
X002274Y003817D01*
X002276Y003813D01*
X002279Y003809D01*
X002282Y003804D01*
X002285Y003799D01*
X002287Y003793D01*
X002288Y003788D01*
X002289Y003782D01*
X002290Y003775D01*
Y003775D01*
Y003774D01*
Y003772D01*
X002289Y003771D01*
Y003768D01*
X002289Y003765D01*
X002288Y003759D01*
X002286Y003752D01*
X002283Y003745D01*
X002279Y003738D01*
X002274Y003732D01*
X002274Y003732D01*
X002271Y003730D01*
X002268Y003728D01*
X002265Y003726D01*
X002263Y003725D01*
X002259Y003724D01*
X002256Y003722D01*
X002252Y003721D01*
X002248Y003720D01*
X002244Y003719D01*
X002238Y003718D01*
X002233Y003718D01*
X002100D01*
Y003749D01*
X002223D01*
X002227Y003749D01*
X002231Y003750D01*
X002236Y003750D01*
X002240Y003751D01*
X002244Y003752D01*
X002244D01*
X002245Y003753D01*
X002247Y003753D01*
X002248Y003755D01*
X002251Y003756D01*
X002253Y003758D01*
X002255Y003760D01*
X002257Y003763D01*
X002258Y003763D01*
X002258Y003765D01*
X002259Y003766D01*
X002260Y003769D01*
X002261Y003771D01*
X002262Y003775D01*
X002262Y003778D01*
X002262Y003782D01*
Y003782D01*
Y003783D01*
Y003784D01*
X002262Y003785D01*
X002262Y003789D01*
X002261Y003793D01*
X002259Y003799D01*
X002257Y003804D01*
X002254Y003810D01*
X002249Y003815D01*
X002248Y003815D01*
X002247Y003817D01*
X002244Y003819D01*
X002239Y003821D01*
X002233Y003824D01*
X002226Y003826D01*
X002218Y003827D01*
X002208Y003828D01*
X002100D01*
Y003859D01*
X002224D01*
X002228Y003860D01*
X002232Y003860D01*
X002237Y003861D01*
X002242Y003863D01*
X002247Y003864D01*
X002252Y003867D01*
X002252Y003867D01*
X002254Y003869D01*
X002255Y003870D01*
X002257Y003873D01*
X002259Y003876D01*
X002261Y003881D01*
X002262Y003886D01*
X002262Y003892D01*
Y003893D01*
Y003894D01*
X002262Y003897D01*
X002262Y003900D01*
X002261Y003904D01*
X002259Y003908D01*
X002258Y003912D01*
X002255Y003917D01*
X002255Y003917D01*
X002254Y003919D01*
X002252Y003920D01*
X002250Y003923D01*
X002247Y003926D01*
X002244Y003928D01*
X002239Y003931D01*
X002235Y003933D01*
X002234Y003933D01*
X002232Y003934D01*
X002229Y003934D01*
X002225Y003936D01*
X002220Y003937D01*
X002213Y003937D01*
X002205Y003938D01*
X002196Y003938D01*
X002100D01*
Y003970D01*
X002286D01*
Y003941D01*
D02*
G37*
G36*
Y003586D02*
X002332D01*
X002350Y003555D01*
X002286D01*
Y003523D01*
X002261D01*
Y003555D01*
X002148D01*
X002145Y003554D01*
X002139Y003554D01*
X002137Y003554D01*
X002135Y003553D01*
X002134Y003553D01*
X002133Y003552D01*
X002131Y003550D01*
X002129Y003548D01*
X002128Y003547D01*
X002128Y003545D01*
X002127Y003542D01*
X002127Y003537D01*
Y003537D01*
Y003536D01*
Y003535D01*
Y003533D01*
X002127Y003532D01*
Y003529D01*
X002127Y003526D01*
X002128Y003523D01*
X002100Y003519D01*
Y003520D01*
X002100Y003521D01*
X002099Y003524D01*
X002099Y003527D01*
X002098Y003531D01*
X002098Y003535D01*
X002097Y003543D01*
Y003544D01*
Y003546D01*
X002098Y003549D01*
X002098Y003553D01*
X002099Y003557D01*
X002100Y003561D01*
X002101Y003566D01*
X002103Y003570D01*
X002103Y003570D01*
X002104Y003571D01*
X002105Y003573D01*
X002107Y003575D01*
X002109Y003577D01*
X002111Y003579D01*
X002114Y003581D01*
X002117Y003583D01*
X002117D01*
X002119Y003583D01*
X002121Y003584D01*
X002125Y003584D01*
X002130Y003585D01*
X002133Y003586D01*
X002136D01*
X002140Y003586D01*
X002144Y003586D01*
X002261D01*
Y003610D01*
X002286D01*
Y003586D01*
D02*
G37*
G36*
X002200Y003205D02*
X002202D01*
X002209Y003204D01*
X002217Y003203D01*
X002225Y003201D01*
X002234Y003199D01*
X002243Y003196D01*
X002243D01*
X002244Y003196D01*
X002245Y003195D01*
X002247Y003194D01*
X002251Y003192D01*
X002256Y003189D01*
X002261Y003185D01*
X002267Y003180D01*
X002273Y003175D01*
X002278Y003168D01*
Y003168D01*
X002278Y003167D01*
X002279Y003166D01*
X002279Y003165D01*
X002281Y003161D01*
X002284Y003156D01*
X002286Y003150D01*
X002288Y003143D01*
X002289Y003135D01*
X002290Y003127D01*
Y003127D01*
Y003126D01*
Y003124D01*
X002289Y003121D01*
X002289Y003117D01*
X002288Y003112D01*
X002287Y003107D01*
X002285Y003102D01*
X002282Y003097D01*
X002282Y003096D01*
X002281Y003095D01*
X002279Y003093D01*
X002278Y003090D01*
X002275Y003086D01*
X002272Y003083D01*
X002268Y003079D01*
X002264Y003076D01*
X002356D01*
Y003044D01*
X002100D01*
Y003073D01*
X002123D01*
X002123Y003074D01*
X002122Y003074D01*
X002121Y003075D01*
X002119Y003077D01*
X002117Y003079D01*
X002115Y003081D01*
X002112Y003083D01*
X002110Y003087D01*
X002107Y003090D01*
X002104Y003094D01*
X002102Y003098D01*
X002100Y003103D01*
X002099Y003108D01*
X002097Y003113D01*
X002096Y003119D01*
X002096Y003126D01*
Y003126D01*
Y003127D01*
Y003128D01*
X002096Y003129D01*
X002097Y003134D01*
X002097Y003139D01*
X002099Y003145D01*
X002101Y003152D01*
X002104Y003159D01*
X002108Y003166D01*
Y003167D01*
X002109Y003167D01*
X002110Y003169D01*
X002113Y003173D01*
X002117Y003177D01*
X002122Y003181D01*
X002128Y003186D01*
X002134Y003191D01*
X002142Y003195D01*
X002143D01*
X002143Y003196D01*
X002144Y003196D01*
X002146Y003197D01*
X002148Y003197D01*
X002151Y003198D01*
X002153Y003199D01*
X002157Y003200D01*
X002164Y003202D01*
X002173Y003204D01*
X002182Y003205D01*
X002192Y003205D01*
X002197D01*
X002200Y003205D01*
D02*
G37*
G36*
X002286Y002964D02*
X002174D01*
X002169Y002963D01*
X002164D01*
X002158Y002963D01*
X002153Y002962D01*
X002149Y002962D01*
X002149D01*
X002147Y002961D01*
X002145Y002960D01*
X002142Y002959D01*
X002139Y002957D01*
X002136Y002955D01*
X002133Y002952D01*
X002130Y002949D01*
X002130Y002949D01*
X002129Y002947D01*
X002128Y002945D01*
X002127Y002942D01*
X002125Y002939D01*
X002124Y002935D01*
X002123Y002931D01*
X002123Y002925D01*
Y002925D01*
Y002923D01*
X002123Y002920D01*
X002124Y002917D01*
X002125Y002913D01*
X002126Y002908D01*
X002128Y002904D01*
X002130Y002899D01*
X002130Y002898D01*
X002131Y002897D01*
X002133Y002894D01*
X002135Y002892D01*
X002138Y002889D01*
X002141Y002886D01*
X002145Y002883D01*
X002150Y002881D01*
X002150Y002881D01*
X002152Y002880D01*
X002155Y002880D01*
X002159Y002878D01*
X002164Y002877D01*
X002170Y002877D01*
X002178Y002876D01*
X002186Y002876D01*
X002286D01*
Y002844D01*
X002100D01*
Y002873D01*
X002127D01*
X002127Y002873D01*
X002126Y002874D01*
X002124Y002875D01*
X002122Y002877D01*
X002120Y002879D01*
X002117Y002881D01*
X002114Y002884D01*
X002111Y002888D01*
X002109Y002892D01*
X002106Y002897D01*
X002103Y002901D01*
X002101Y002907D01*
X002099Y002912D01*
X002097Y002918D01*
X002096Y002925D01*
X002096Y002932D01*
Y002932D01*
Y002934D01*
X002096Y002938D01*
X002097Y002942D01*
X002097Y002947D01*
X002099Y002952D01*
X002100Y002957D01*
X002102Y002962D01*
X002103Y002963D01*
X002103Y002965D01*
X002105Y002967D01*
X002107Y002970D01*
X002109Y002974D01*
X002111Y002977D01*
X002114Y002981D01*
X002118Y002984D01*
X002118Y002984D01*
X002120Y002985D01*
X002121Y002986D01*
X002124Y002987D01*
X002128Y002989D01*
X002132Y002991D01*
X002136Y002992D01*
X002141Y002993D01*
X002141D01*
X002143Y002994D01*
X002145Y002994D01*
X002148D01*
X002153Y002994D01*
X002157Y002995D01*
X002164Y002995D01*
X002286D01*
Y002964D01*
D02*
G37*
G36*
X002136Y003447D02*
X002100D01*
Y003483D01*
X002136D01*
Y003447D01*
D02*
G37*
G36*
X002199Y003403D02*
X002203Y003402D01*
X002207Y003402D01*
X002212Y003401D01*
X002218Y003400D01*
X002229Y003397D01*
X002235Y003395D01*
X002242Y003393D01*
X002248Y003390D01*
X002253Y003387D01*
X002259Y003383D01*
X002264Y003379D01*
X002264Y003379D01*
X002265Y003378D01*
X002266Y003376D01*
X002268Y003375D01*
X002270Y003372D01*
X002272Y003369D01*
X002275Y003366D01*
X002277Y003362D01*
X002279Y003358D01*
X002282Y003353D01*
X002284Y003348D01*
X002286Y003342D01*
X002288Y003337D01*
X002289Y003330D01*
X002289Y003324D01*
X002290Y003317D01*
Y003316D01*
Y003315D01*
Y003313D01*
X002289Y003310D01*
X002289Y003307D01*
X002288Y003304D01*
X002288Y003300D01*
X002286Y003295D01*
X002285Y003290D01*
X002284Y003285D01*
X002282Y003280D01*
X002279Y003275D01*
X002276Y003270D01*
X002273Y003265D01*
X002269Y003260D01*
X002264Y003255D01*
X002264Y003255D01*
X002263Y003254D01*
X002262Y003253D01*
X002259Y003252D01*
X002257Y003250D01*
X002254Y003248D01*
X002250Y003246D01*
X002246Y003244D01*
X002241Y003241D01*
X002236Y003239D01*
X002230Y003237D01*
X002224Y003235D01*
X002217Y003234D01*
X002209Y003233D01*
X002201Y003232D01*
X002193Y003232D01*
X002188D01*
X002185Y003232D01*
Y003371D01*
X002183D01*
X002182Y003371D01*
X002180D01*
X002177Y003370D01*
X002174Y003369D01*
X002167Y003368D01*
X002160Y003366D01*
X002152Y003363D01*
X002144Y003359D01*
X002138Y003354D01*
Y003354D01*
X002137Y003353D01*
X002135Y003351D01*
X002133Y003348D01*
X002130Y003343D01*
X002127Y003337D01*
X002124Y003331D01*
X002123Y003323D01*
X002122Y003319D01*
X002122Y003315D01*
Y003314D01*
Y003314D01*
Y003312D01*
X002122Y003308D01*
X002123Y003304D01*
X002124Y003300D01*
X002126Y003295D01*
X002128Y003290D01*
X002131Y003285D01*
X002131Y003285D01*
X002133Y003283D01*
X002135Y003281D01*
X002138Y003278D01*
X002142Y003275D01*
X002147Y003272D01*
X002153Y003268D01*
X002160Y003265D01*
X002156Y003233D01*
X002156D01*
X002155Y003233D01*
X002153Y003234D01*
X002151Y003234D01*
X002149Y003235D01*
X002146Y003237D01*
X002140Y003240D01*
X002133Y003243D01*
X002125Y003248D01*
X002118Y003254D01*
X002111Y003262D01*
Y003262D01*
X002111Y003263D01*
X002110Y003264D01*
X002109Y003265D01*
X002108Y003268D01*
X002107Y003270D01*
X002105Y003273D01*
X002104Y003276D01*
X002102Y003280D01*
X002101Y003284D01*
X002099Y003293D01*
X002097Y003303D01*
X002096Y003315D01*
Y003315D01*
Y003317D01*
Y003319D01*
X002096Y003321D01*
X002097Y003325D01*
X002097Y003329D01*
X002098Y003333D01*
X002099Y003338D01*
X002102Y003348D01*
X002104Y003354D01*
X002106Y003359D01*
X002109Y003365D01*
X002113Y003370D01*
X002116Y003375D01*
X002121Y003379D01*
X002121Y003380D01*
X002122Y003381D01*
X002123Y003382D01*
X002126Y003383D01*
X002128Y003385D01*
X002131Y003387D01*
X002135Y003389D01*
X002139Y003391D01*
X002144Y003393D01*
X002149Y003396D01*
X002155Y003398D01*
X002161Y003399D01*
X002168Y003401D01*
X002175Y003402D01*
X002183Y003403D01*
X002191Y003403D01*
X002195D01*
X002199Y003403D01*
D02*
G37*
G36*
X002160Y005369D02*
X002160D01*
X002157Y005368D01*
X002154Y005367D01*
X002150Y005366D01*
X002145Y005364D01*
X002140Y005362D01*
X002136Y005359D01*
X002131Y005354D01*
X002131Y005354D01*
X002130Y005352D01*
X002128Y005349D01*
X002127Y005346D01*
X002125Y005341D01*
X002123Y005335D01*
X002122Y005329D01*
X002122Y005321D01*
Y005320D01*
Y005320D01*
Y005319D01*
Y005317D01*
X002122Y005313D01*
X002123Y005309D01*
X002124Y005303D01*
X002126Y005298D01*
X002127Y005293D01*
X002130Y005289D01*
X002131Y005288D01*
X002132Y005287D01*
X002134Y005285D01*
X002136Y005283D01*
X002139Y005281D01*
X002143Y005279D01*
X002147Y005278D01*
X002151Y005278D01*
X002153D01*
X002155Y005278D01*
X002157Y005279D01*
X002160Y005280D01*
X002163Y005282D01*
X002165Y005284D01*
X002168Y005288D01*
X002168Y005288D01*
X002168Y005289D01*
X002170Y005291D01*
X002171Y005294D01*
X002172Y005298D01*
X002173Y005301D01*
X002174Y005304D01*
X002175Y005307D01*
X002176Y005311D01*
X002177Y005315D01*
X002178Y005320D01*
Y005320D01*
X002179Y005321D01*
X002179Y005323D01*
X002180Y005325D01*
X002181Y005328D01*
X002182Y005332D01*
X002184Y005339D01*
X002186Y005347D01*
X002188Y005354D01*
X002191Y005362D01*
X002192Y005365D01*
X002194Y005368D01*
X002194Y005369D01*
X002195Y005370D01*
X002196Y005372D01*
X002198Y005375D01*
X002201Y005379D01*
X002204Y005382D01*
X002207Y005385D01*
X002211Y005388D01*
X002211Y005389D01*
X002213Y005389D01*
X002215Y005390D01*
X002218Y005391D01*
X002222Y005393D01*
X002227Y005394D01*
X002231Y005394D01*
X002236Y005395D01*
X002238D01*
X002241Y005394D01*
X002244Y005394D01*
X002247Y005393D01*
X002251Y005393D01*
X002255Y005391D01*
X002259Y005389D01*
X002259Y005389D01*
X002261Y005388D01*
X002263Y005387D01*
X002265Y005385D01*
X002268Y005383D01*
X002271Y005380D01*
X002274Y005377D01*
X002277Y005374D01*
X002277Y005373D01*
X002278Y005372D01*
X002279Y005371D01*
X002280Y005369D01*
X002281Y005366D01*
X002283Y005362D01*
X002284Y005358D01*
X002286Y005354D01*
X002286Y005353D01*
X002286Y005352D01*
X002287Y005349D01*
X002288Y005346D01*
X002289Y005342D01*
X002289Y005337D01*
X002290Y005332D01*
Y005327D01*
Y005326D01*
Y005326D01*
Y005325D01*
Y005323D01*
X002289Y005319D01*
X002289Y005313D01*
X002288Y005307D01*
X002287Y005301D01*
X002285Y005295D01*
X002283Y005288D01*
Y005288D01*
X002283Y005288D01*
X002282Y005286D01*
X002281Y005283D01*
X002279Y005279D01*
X002276Y005275D01*
X002273Y005271D01*
X002270Y005267D01*
X002266Y005264D01*
X002266Y005263D01*
X002264Y005263D01*
X002262Y005261D01*
X002259Y005259D01*
X002254Y005258D01*
X002249Y005256D01*
X002244Y005254D01*
X002238Y005253D01*
X002234Y005283D01*
X002234D01*
X002236Y005284D01*
X002238Y005285D01*
X002242Y005286D01*
X002245Y005288D01*
X002249Y005290D01*
X002252Y005292D01*
X002256Y005296D01*
X002256Y005296D01*
X002257Y005298D01*
X002258Y005300D01*
X002260Y005303D01*
X002261Y005307D01*
X002263Y005312D01*
X002264Y005318D01*
X002264Y005324D01*
Y005325D01*
Y005325D01*
Y005326D01*
Y005328D01*
X002264Y005332D01*
X002263Y005336D01*
X002262Y005341D01*
X002261Y005346D01*
X002259Y005351D01*
X002257Y005355D01*
X002256Y005356D01*
X002255Y005357D01*
X002254Y005358D01*
X002252Y005360D01*
X002249Y005362D01*
X002247Y005363D01*
X002243Y005364D01*
X002240Y005364D01*
X002239D01*
X002238Y005364D01*
X002236D01*
X002232Y005363D01*
X002229Y005361D01*
X002228Y005360D01*
X002228Y005360D01*
X002227Y005359D01*
X002226Y005358D01*
X002225Y005356D01*
X002223Y005354D01*
X002222Y005352D01*
X002221Y005349D01*
Y005348D01*
X002220Y005347D01*
X002220Y005346D01*
X002219Y005343D01*
X002218Y005340D01*
X002217Y005335D01*
X002215Y005332D01*
X002215Y005329D01*
X002214Y005325D01*
X002212Y005321D01*
Y005320D01*
X002212Y005319D01*
X002212Y005317D01*
X002211Y005315D01*
X002210Y005313D01*
X002210Y005309D01*
X002207Y005302D01*
X002205Y005295D01*
X002202Y005287D01*
X002200Y005280D01*
X002199Y005277D01*
X002198Y005274D01*
X002197Y005273D01*
X002197Y005272D01*
X002195Y005270D01*
X002194Y005266D01*
X002191Y005263D01*
X002188Y005260D01*
X002185Y005256D01*
X002181Y005253D01*
X002181Y005253D01*
X002180Y005252D01*
X002177Y005251D01*
X002174Y005249D01*
X002170Y005248D01*
X002165Y005247D01*
X002160Y005246D01*
X002154Y005246D01*
X002152D01*
X002149Y005246D01*
X002145Y005247D01*
X002140Y005248D01*
X002136Y005250D01*
X002130Y005252D01*
X002125Y005255D01*
X002124Y005255D01*
X002123Y005257D01*
X002120Y005259D01*
X002117Y005262D01*
X002114Y005266D01*
X002110Y005270D01*
X002107Y005275D01*
X002103Y005282D01*
Y005282D01*
X002103Y005282D01*
X002102Y005285D01*
X002101Y005288D01*
X002100Y005293D01*
X002098Y005299D01*
X002097Y005306D01*
X002096Y005313D01*
X002096Y005321D01*
Y005321D01*
Y005322D01*
Y005324D01*
X002096Y005327D01*
Y005330D01*
X002097Y005333D01*
X002097Y005337D01*
X002098Y005341D01*
X002100Y005350D01*
X002102Y005359D01*
X002106Y005368D01*
X002108Y005372D01*
X002111Y005376D01*
X002111Y005376D01*
X002111Y005377D01*
X002114Y005379D01*
X002117Y005382D01*
X002122Y005386D01*
X002128Y005390D01*
X002136Y005394D01*
X002145Y005397D01*
X002156Y005400D01*
X002160Y005369D01*
D02*
G37*
G36*
X002154Y005219D02*
X002157Y005218D01*
X002161Y005218D01*
X002165Y005216D01*
X002170Y005215D01*
X002174Y005213D01*
X002174Y005213D01*
X002175Y005212D01*
X002178Y005211D01*
X002180Y005209D01*
X002183Y005206D01*
X002186Y005204D01*
X002189Y005201D01*
X002192Y005197D01*
X002192Y005196D01*
X002193Y005195D01*
X002194Y005193D01*
X002196Y005190D01*
X002197Y005187D01*
X002199Y005183D01*
X002201Y005179D01*
X002202Y005174D01*
Y005174D01*
X002202Y005172D01*
X002203Y005170D01*
X002204Y005167D01*
X002204Y005163D01*
X002205Y005158D01*
X002206Y005153D01*
X002207Y005146D01*
Y005146D01*
X002207Y005144D01*
Y005142D01*
X002208Y005140D01*
X002208Y005137D01*
X002209Y005133D01*
X002209Y005129D01*
X002210Y005125D01*
X002212Y005116D01*
X002214Y005106D01*
X002216Y005098D01*
X002217Y005094D01*
X002218Y005090D01*
X002219D01*
X002221Y005090D01*
X002229D01*
X002233Y005090D01*
X002237Y005091D01*
X002241Y005092D01*
X002246Y005094D01*
X002250Y005096D01*
X002253Y005099D01*
X002254Y005099D01*
X002255Y005101D01*
X002257Y005104D01*
X002259Y005108D01*
X002261Y005113D01*
X002262Y005119D01*
X002264Y005126D01*
X002264Y005135D01*
Y005135D01*
Y005136D01*
Y005137D01*
Y005138D01*
X002264Y005142D01*
X002263Y005147D01*
X002262Y005152D01*
X002261Y005158D01*
X002259Y005163D01*
X002256Y005168D01*
X002256Y005168D01*
X002255Y005169D01*
X002253Y005171D01*
X002250Y005174D01*
X002246Y005176D01*
X002241Y005178D01*
X002235Y005181D01*
X002229Y005183D01*
X002233Y005214D01*
X002233D01*
X002234Y005213D01*
X002235D01*
X002236Y005213D01*
X002239Y005212D01*
X002244Y005210D01*
X002249Y005208D01*
X002254Y005206D01*
X002259Y005203D01*
X002264Y005200D01*
X002265Y005199D01*
X002266Y005198D01*
X002268Y005196D01*
X002271Y005193D01*
X002274Y005189D01*
X002277Y005184D01*
X002281Y005178D01*
X002283Y005172D01*
Y005172D01*
X002284Y005171D01*
X002284Y005170D01*
X002284Y005169D01*
X002285Y005165D01*
X002286Y005160D01*
X002288Y005154D01*
X002289Y005147D01*
X002289Y005139D01*
X002290Y005130D01*
Y005130D01*
Y005129D01*
Y005128D01*
Y005126D01*
X002289Y005122D01*
X002289Y005116D01*
X002288Y005110D01*
X002287Y005104D01*
X002286Y005097D01*
X002284Y005091D01*
X002284Y005091D01*
X002283Y005089D01*
X002282Y005086D01*
X002280Y005083D01*
X002278Y005079D01*
X002276Y005076D01*
X002273Y005072D01*
X002270Y005069D01*
X002269Y005069D01*
X002268Y005068D01*
X002266Y005067D01*
X002264Y005066D01*
X002261Y005064D01*
X002258Y005062D01*
X002254Y005061D01*
X002249Y005060D01*
X002248D01*
X002247Y005059D01*
X002245Y005059D01*
X002242Y005058D01*
X002238D01*
X002233Y005058D01*
X002227Y005058D01*
X002163D01*
X002154Y005057D01*
X002145D01*
X002136Y005057D01*
X002132Y005057D01*
X002128D01*
X002125Y005056D01*
X002122Y005056D01*
X002122D01*
X002120Y005056D01*
X002118Y005055D01*
X002115Y005054D01*
X002112Y005053D01*
X002108Y005052D01*
X002104Y005050D01*
X002100Y005048D01*
Y005081D01*
X002100Y005081D01*
X002102Y005082D01*
X002104Y005083D01*
X002107Y005084D01*
X002110Y005085D01*
X002114Y005085D01*
X002119Y005086D01*
X002123Y005087D01*
Y005087D01*
X002123Y005088D01*
X002121Y005090D01*
X002118Y005093D01*
X002115Y005098D01*
X002111Y005103D01*
X002108Y005109D01*
X002104Y005115D01*
X002102Y005121D01*
X002101Y005122D01*
X002101Y005124D01*
X002100Y005127D01*
X002099Y005131D01*
X002098Y005137D01*
X002097Y005142D01*
X002096Y005149D01*
X002096Y005156D01*
Y005156D01*
Y005157D01*
Y005159D01*
X002096Y005161D01*
Y005164D01*
X002097Y005167D01*
X002098Y005173D01*
X002100Y005181D01*
X002102Y005189D01*
X002106Y005196D01*
X002111Y005203D01*
X002111Y005204D01*
X002113Y005205D01*
X002117Y005208D01*
X002121Y005211D01*
X002127Y005214D01*
X002133Y005216D01*
X002141Y005218D01*
X002144Y005219D01*
X002149Y005219D01*
X002151D01*
X002154Y005219D01*
D02*
G37*
G36*
X008903Y000566D02*
X008905Y000566D01*
X008908Y000565D01*
X008912Y000564D01*
X008915Y000563D01*
X008919Y000562D01*
X008923Y000560D01*
X008927Y000558D01*
X008931Y000556D01*
X008935Y000554D01*
X008939Y000550D01*
X008942Y000547D01*
X008946Y000543D01*
Y000563D01*
X008971D01*
Y000422D01*
Y000422D01*
Y000420D01*
Y000418D01*
Y000416D01*
X008971Y000413D01*
Y000409D01*
X008971Y000406D01*
X008970Y000401D01*
X008969Y000393D01*
X008968Y000383D01*
X008967Y000379D01*
X008966Y000375D01*
X008965Y000372D01*
X008963Y000369D01*
Y000368D01*
X008963Y000368D01*
X008962Y000366D01*
X008960Y000363D01*
X008958Y000360D01*
X008954Y000356D01*
X008950Y000351D01*
X008945Y000347D01*
X008939Y000344D01*
X008939D01*
X008938Y000343D01*
X008937Y000343D01*
X008936Y000342D01*
X008934Y000341D01*
X008932Y000341D01*
X008928Y000339D01*
X008922Y000337D01*
X008915Y000336D01*
X008906Y000335D01*
X008898Y000334D01*
X008895D01*
X008893Y000335D01*
X008890D01*
X008888Y000335D01*
X008884Y000335D01*
X008881Y000336D01*
X008873Y000337D01*
X008866Y000340D01*
X008858Y000343D01*
X008851Y000348D01*
X008850Y000348D01*
X008850Y000348D01*
X008848Y000350D01*
X008845Y000353D01*
X008842Y000357D01*
X008839Y000363D01*
X008836Y000370D01*
X008835Y000373D01*
X008834Y000378D01*
X008834Y000382D01*
Y000387D01*
X008860Y000383D01*
Y000382D01*
X008861Y000381D01*
X008861Y000379D01*
X008862Y000376D01*
X008863Y000373D01*
X008865Y000370D01*
X008867Y000367D01*
X008870Y000365D01*
X008870Y000365D01*
X008871Y000364D01*
X008874Y000362D01*
X008877Y000361D01*
X008881Y000360D01*
X008886Y000358D01*
X008892Y000357D01*
X008898Y000357D01*
X008901D01*
X008904Y000357D01*
X008909Y000358D01*
X008913Y000359D01*
X008918Y000360D01*
X008923Y000362D01*
X008927Y000365D01*
X008928Y000365D01*
X008929Y000366D01*
X008931Y000368D01*
X008933Y000370D01*
X008935Y000373D01*
X008938Y000377D01*
X008940Y000381D01*
X008941Y000386D01*
Y000386D01*
X008942Y000388D01*
X008942Y000390D01*
X008942Y000394D01*
X008943Y000396D01*
Y000398D01*
X008943Y000401D01*
Y000405D01*
Y000408D01*
X008943Y000412D01*
Y000417D01*
Y000421D01*
X008943Y000421D01*
X008942Y000420D01*
X008941Y000419D01*
X008940Y000418D01*
X008939Y000417D01*
X008936Y000415D01*
X008934Y000413D01*
X008931Y000411D01*
X008924Y000407D01*
X008917Y000403D01*
X008913Y000402D01*
X008908Y000401D01*
X008903Y000400D01*
X008898Y000400D01*
X008897D01*
X008895Y000400D01*
X008893D01*
X008890Y000401D01*
X008887Y000401D01*
X008883Y000402D01*
X008879Y000403D01*
X008875Y000404D01*
X008871Y000406D01*
X008867Y000408D01*
X008862Y000410D01*
X008858Y000413D01*
X008854Y000416D01*
X008850Y000420D01*
X008846Y000424D01*
X008846Y000424D01*
X008846Y000425D01*
X008845Y000427D01*
X008843Y000428D01*
X008842Y000431D01*
X008840Y000433D01*
X008839Y000437D01*
X008837Y000441D01*
X008835Y000444D01*
X008834Y000449D01*
X008832Y000453D01*
X008831Y000459D01*
X008829Y000470D01*
X008828Y000476D01*
X008828Y000482D01*
Y000482D01*
Y000483D01*
Y000484D01*
Y000486D01*
X008828Y000488D01*
Y000490D01*
X008829Y000496D01*
X008830Y000503D01*
X008832Y000510D01*
X008834Y000517D01*
X008836Y000525D01*
Y000525D01*
X008837Y000526D01*
X008837Y000527D01*
X008838Y000528D01*
X008840Y000532D01*
X008843Y000536D01*
X008846Y000541D01*
X008850Y000546D01*
X008855Y000551D01*
X008861Y000555D01*
X008861D01*
X008861Y000556D01*
X008862Y000556D01*
X008864Y000557D01*
X008867Y000559D01*
X008871Y000561D01*
X008877Y000563D01*
X008883Y000565D01*
X008891Y000566D01*
X008898Y000566D01*
X008901D01*
X008903Y000566D01*
D02*
G37*
G36*
X009052Y000400D02*
Y000400D01*
Y000399D01*
Y000398D01*
Y000397D01*
X009051Y000394D01*
X009051Y000390D01*
X009050Y000386D01*
X009049Y000381D01*
X009047Y000376D01*
X009045Y000372D01*
X009045Y000372D01*
X009044Y000371D01*
X009043Y000369D01*
X009041Y000366D01*
X009038Y000363D01*
X009035Y000361D01*
X009031Y000358D01*
X009026Y000356D01*
X009018Y000367D01*
X009019Y000368D01*
X009020Y000368D01*
X009021Y000369D01*
X009023Y000370D01*
X009025Y000372D01*
X009027Y000374D01*
X009029Y000376D01*
X009031Y000379D01*
X009031Y000379D01*
X009032Y000380D01*
X009032Y000382D01*
X009033Y000384D01*
X009034Y000387D01*
X009035Y000391D01*
X009035Y000395D01*
X009036Y000400D01*
X009020D01*
Y000431D01*
X009052D01*
Y000400D01*
D02*
G37*
G36*
X002201Y005020D02*
X002204D01*
X002211Y005019D01*
X002219Y005018D01*
X002227Y005016D01*
X002236Y005014D01*
X002245Y005011D01*
X002245D01*
X002246Y005010D01*
X002247Y005010D01*
X002248Y005009D01*
X002252Y005007D01*
X002257Y005004D01*
X002263Y005000D01*
X002268Y004995D01*
X002274Y004989D01*
X002278Y004983D01*
Y004982D01*
X002279Y004982D01*
X002279Y004981D01*
X002280Y004979D01*
X002282Y004976D01*
X002284Y004970D01*
X002286Y004965D01*
X002288Y004957D01*
X002289Y004950D01*
X002290Y004942D01*
Y004942D01*
Y004940D01*
Y004939D01*
X002289Y004936D01*
X002289Y004933D01*
X002288Y004930D01*
X002287Y004926D01*
X002286Y004922D01*
X002285Y004918D01*
X002283Y004913D01*
X002280Y004909D01*
X002278Y004905D01*
X002274Y004900D01*
X002270Y004896D01*
X002266Y004892D01*
X002261Y004888D01*
X002286D01*
Y004860D01*
X002029D01*
Y004891D01*
X002120D01*
X002119Y004892D01*
X002118Y004893D01*
X002116Y004894D01*
X002114Y004896D01*
X002111Y004899D01*
X002108Y004903D01*
X002105Y004907D01*
X002103Y004912D01*
X002102Y004913D01*
X002101Y004914D01*
X002100Y004917D01*
X002099Y004920D01*
X002098Y004925D01*
X002097Y004929D01*
X002096Y004934D01*
X002096Y004940D01*
Y004940D01*
Y004941D01*
Y004943D01*
X002096Y004945D01*
X002097Y004948D01*
X002097Y004952D01*
X002098Y004955D01*
X002099Y004959D01*
X002101Y004963D01*
X002102Y004968D01*
X002104Y004973D01*
X002107Y004977D01*
X002110Y004983D01*
X002114Y004987D01*
X002118Y004992D01*
X002122Y004997D01*
X002123Y004997D01*
X002123Y004998D01*
X002125Y004999D01*
X002127Y005000D01*
X002130Y005002D01*
X002133Y005004D01*
X002137Y005006D01*
X002141Y005009D01*
X002146Y005011D01*
X002151Y005013D01*
X002157Y005015D01*
X002164Y005017D01*
X002171Y005018D01*
X002178Y005019D01*
X002186Y005020D01*
X002194Y005020D01*
X002199D01*
X002201Y005020D01*
D02*
G37*
G36*
X002286Y004580D02*
X002100D01*
Y004611D01*
X002286D01*
Y004580D01*
D02*
G37*
G36*
X002356Y004501D02*
X002265D01*
X002265Y004501D01*
X002266Y004500D01*
X002267Y004499D01*
X002269Y004497D01*
X002271Y004495D01*
X002273Y004493D01*
X002275Y004490D01*
X002277Y004487D01*
X002282Y004480D01*
X002286Y004471D01*
X002288Y004466D01*
X002289Y004461D01*
X002289Y004456D01*
X002290Y004450D01*
Y004450D01*
Y004449D01*
Y004447D01*
X002289Y004444D01*
X002289Y004440D01*
X002288Y004435D01*
X002287Y004429D01*
X002285Y004424D01*
X002283Y004418D01*
X002282Y004417D01*
X002282Y004415D01*
X002280Y004412D01*
X002278Y004409D01*
X002275Y004405D01*
X002272Y004401D01*
X002268Y004397D01*
X002263Y004393D01*
X002263Y004392D01*
X002261Y004391D01*
X002258Y004390D01*
X002255Y004387D01*
X002251Y004385D01*
X002245Y004382D01*
X002239Y004380D01*
X002233Y004377D01*
X002233D01*
X002232Y004377D01*
X002231Y004377D01*
X002230Y004376D01*
X002227Y004375D01*
X002222Y004374D01*
X002216Y004373D01*
X002210Y004372D01*
X002203Y004372D01*
X002195Y004371D01*
X002191D01*
X002188Y004372D01*
X002184Y004372D01*
X002179Y004373D01*
X002174Y004373D01*
X002168Y004374D01*
X002157Y004377D01*
X002150Y004379D01*
X002144Y004381D01*
X002138Y004384D01*
X002133Y004387D01*
X002127Y004391D01*
X002122Y004395D01*
X002121Y004395D01*
X002121Y004396D01*
X002120Y004397D01*
X002118Y004399D01*
X002116Y004402D01*
X002114Y004404D01*
X002111Y004407D01*
X002109Y004411D01*
X002107Y004415D01*
X002104Y004419D01*
X002100Y004429D01*
X002098Y004434D01*
X002097Y004440D01*
X002096Y004446D01*
X002096Y004452D01*
Y004452D01*
Y004453D01*
X002096Y004455D01*
Y004457D01*
X002097Y004460D01*
X002097Y004463D01*
X002099Y004471D01*
X002101Y004475D01*
X002103Y004479D01*
X002105Y004483D01*
X002107Y004487D01*
X002111Y004492D01*
X002114Y004496D01*
X002119Y004499D01*
X002123Y004503D01*
X002100D01*
Y004532D01*
X002356D01*
Y004501D01*
D02*
G37*
G36*
X002286Y004780D02*
X002174D01*
X002169Y004779D01*
X002164D01*
X002158Y004779D01*
X002153Y004778D01*
X002149Y004778D01*
X002149D01*
X002147Y004777D01*
X002145Y004776D01*
X002142Y004775D01*
X002139Y004773D01*
X002136Y004771D01*
X002133Y004768D01*
X002130Y004765D01*
X002130Y004765D01*
X002129Y004763D01*
X002128Y004761D01*
X002127Y004758D01*
X002125Y004755D01*
X002124Y004751D01*
X002123Y004747D01*
X002123Y004741D01*
Y004741D01*
Y004739D01*
X002123Y004736D01*
X002124Y004733D01*
X002125Y004729D01*
X002126Y004724D01*
X002128Y004720D01*
X002130Y004715D01*
X002130Y004714D01*
X002131Y004713D01*
X002133Y004710D01*
X002135Y004708D01*
X002138Y004705D01*
X002141Y004702D01*
X002145Y004699D01*
X002150Y004697D01*
X002150Y004697D01*
X002152Y004696D01*
X002155Y004696D01*
X002159Y004694D01*
X002164Y004693D01*
X002170Y004693D01*
X002178Y004692D01*
X002186Y004692D01*
X002286D01*
Y004660D01*
X002100D01*
Y004688D01*
X002127D01*
X002127Y004689D01*
X002126Y004690D01*
X002124Y004691D01*
X002122Y004693D01*
X002120Y004695D01*
X002117Y004697D01*
X002114Y004700D01*
X002111Y004704D01*
X002109Y004708D01*
X002106Y004713D01*
X002103Y004717D01*
X002101Y004723D01*
X002099Y004728D01*
X002097Y004734D01*
X002096Y004741D01*
X002096Y004748D01*
Y004748D01*
Y004750D01*
X002096Y004754D01*
X002097Y004758D01*
X002097Y004762D01*
X002099Y004768D01*
X002100Y004773D01*
X002102Y004778D01*
X002103Y004779D01*
X002103Y004781D01*
X002105Y004783D01*
X002107Y004786D01*
X002109Y004790D01*
X002111Y004793D01*
X002114Y004797D01*
X002118Y004799D01*
X002118Y004800D01*
X002120Y004801D01*
X002121Y004802D01*
X002124Y004803D01*
X002128Y004805D01*
X002132Y004807D01*
X002136Y004808D01*
X002141Y004809D01*
X002141D01*
X002143Y004809D01*
X002145Y004810D01*
X002148D01*
X002153Y004810D01*
X002157Y004811D01*
X002164Y004811D01*
X002286D01*
Y004780D01*
D02*
G37*
G36*
X002356Y004580D02*
X002320D01*
Y004611D01*
X002356D01*
Y004580D01*
D02*
G37*
G36*
X007124Y000593D02*
X007097D01*
Y000624D01*
X007124D01*
Y000593D01*
D02*
G37*
G36*
X006644Y000628D02*
X006646D01*
X006652Y000627D01*
X006659Y000626D01*
X006666Y000625D01*
X006674Y000623D01*
X006681Y000620D01*
X006681D01*
X006682Y000620D01*
X006683Y000619D01*
X006684Y000618D01*
X006687Y000617D01*
X006692Y000614D01*
X006696Y000611D01*
X006701Y000606D01*
X006706Y000602D01*
X006710Y000596D01*
Y000596D01*
X006710Y000595D01*
X006711Y000594D01*
X006712Y000593D01*
X006713Y000590D01*
X006715Y000586D01*
X006718Y000581D01*
X006719Y000575D01*
X006721Y000568D01*
X006721Y000561D01*
X006693Y000559D01*
Y000559D01*
Y000560D01*
X006693Y000561D01*
X006692Y000562D01*
X006691Y000566D01*
X006690Y000571D01*
X006688Y000576D01*
X006685Y000581D01*
X006682Y000586D01*
X006677Y000591D01*
X006676Y000591D01*
X006675Y000592D01*
X006672Y000594D01*
X006667Y000596D01*
X006662Y000598D01*
X006655Y000600D01*
X006647Y000601D01*
X006638Y000602D01*
X006634D01*
X006632Y000601D01*
X006629Y000601D01*
X006623Y000600D01*
X006617Y000599D01*
X006610Y000597D01*
X006604Y000595D01*
X006602Y000593D01*
X006599Y000591D01*
X006598Y000591D01*
X006597Y000590D01*
X006595Y000588D01*
X006593Y000585D01*
X006591Y000581D01*
X006589Y000578D01*
X006588Y000573D01*
X006587Y000568D01*
Y000567D01*
Y000566D01*
X006587Y000564D01*
X006588Y000561D01*
X006589Y000558D01*
X006590Y000555D01*
X006592Y000551D01*
X006595Y000548D01*
X006596Y000548D01*
X006597Y000547D01*
X006599Y000546D01*
X006600Y000545D01*
X006602Y000544D01*
X006604Y000543D01*
X006607Y000542D01*
X006610Y000541D01*
X006614Y000539D01*
X006618Y000538D01*
X006623Y000536D01*
X006628Y000535D01*
X006634Y000533D01*
X006640Y000532D01*
X006640D01*
X006642Y000532D01*
X006644Y000531D01*
X006646Y000531D01*
X006649Y000530D01*
X006652Y000529D01*
X006656Y000528D01*
X006660Y000527D01*
X006668Y000525D01*
X006676Y000522D01*
X006680Y000521D01*
X006684Y000520D01*
X006687Y000519D01*
X006690Y000518D01*
X006690D01*
X006691Y000517D01*
X006692Y000517D01*
X006693Y000516D01*
X006696Y000514D01*
X006701Y000511D01*
X006706Y000508D01*
X006710Y000504D01*
X006715Y000499D01*
X006719Y000495D01*
X006719Y000494D01*
X006720Y000492D01*
X006722Y000489D01*
X006724Y000486D01*
X006725Y000481D01*
X006727Y000475D01*
X006728Y000469D01*
X006728Y000463D01*
Y000463D01*
Y000462D01*
Y000461D01*
Y000460D01*
X006728Y000456D01*
X006727Y000452D01*
X006726Y000447D01*
X006724Y000441D01*
X006721Y000435D01*
X006718Y000429D01*
Y000429D01*
X006718Y000429D01*
X006716Y000427D01*
X006714Y000424D01*
X006710Y000420D01*
X006706Y000417D01*
X006701Y000412D01*
X006695Y000408D01*
X006688Y000405D01*
X006688D01*
X006687Y000405D01*
X006686Y000404D01*
X006685Y000404D01*
X006683Y000403D01*
X006681Y000402D01*
X006676Y000401D01*
X006670Y000399D01*
X006662Y000397D01*
X006654Y000396D01*
X006645Y000396D01*
X006640D01*
X006637Y000396D01*
X006635D01*
X006631Y000397D01*
X006627Y000397D01*
X006619Y000398D01*
X006611Y000400D01*
X006602Y000402D01*
X006594Y000405D01*
X006594D01*
X006593Y000405D01*
X006592Y000406D01*
X006591Y000406D01*
X006587Y000408D01*
X006583Y000411D01*
X006578Y000415D01*
X006572Y000420D01*
X006567Y000425D01*
X006562Y000431D01*
Y000432D01*
X006561Y000432D01*
X006561Y000433D01*
X006560Y000435D01*
X006559Y000436D01*
X006558Y000438D01*
X006556Y000443D01*
X006554Y000449D01*
X006552Y000456D01*
X006551Y000464D01*
X006550Y000472D01*
X006578Y000475D01*
Y000474D01*
Y000474D01*
X006578Y000473D01*
Y000472D01*
X006579Y000469D01*
X006580Y000464D01*
X006581Y000460D01*
X006582Y000455D01*
X006585Y000451D01*
X006587Y000447D01*
X006587Y000446D01*
X006588Y000445D01*
X006590Y000443D01*
X006592Y000441D01*
X006596Y000438D01*
X006599Y000435D01*
X006604Y000432D01*
X006609Y000429D01*
X006610D01*
X006610Y000429D01*
X006611Y000429D01*
X006612Y000428D01*
X006615Y000427D01*
X006619Y000426D01*
X006625Y000425D01*
X006630Y000424D01*
X006637Y000423D01*
X006644Y000423D01*
X006647D01*
X006650Y000423D01*
X006654Y000423D01*
X006659Y000424D01*
X006664Y000425D01*
X006669Y000426D01*
X006674Y000428D01*
X006674Y000428D01*
X006676Y000429D01*
X006678Y000430D01*
X006681Y000431D01*
X006684Y000433D01*
X006687Y000436D01*
X006691Y000438D01*
X006693Y000441D01*
X006694Y000442D01*
X006694Y000443D01*
X006695Y000445D01*
X006696Y000447D01*
X006698Y000450D01*
X006699Y000453D01*
X006699Y000457D01*
X006700Y000461D01*
Y000461D01*
Y000463D01*
X006699Y000464D01*
X006699Y000467D01*
X006698Y000470D01*
X006697Y000473D01*
X006695Y000476D01*
X006693Y000479D01*
X006693Y000479D01*
X006692Y000480D01*
X006691Y000482D01*
X006688Y000484D01*
X006686Y000486D01*
X006682Y000488D01*
X006678Y000490D01*
X006673Y000492D01*
X006673Y000492D01*
X006671Y000493D01*
X006669Y000494D01*
X006667Y000494D01*
X006665Y000495D01*
X006662Y000496D01*
X006660Y000496D01*
X006656Y000497D01*
X006652Y000498D01*
X006648Y000499D01*
X006644Y000500D01*
X006639Y000502D01*
X006633Y000503D01*
X006633D01*
X006632Y000503D01*
X006630Y000504D01*
X006628Y000504D01*
X006626Y000505D01*
X006623Y000506D01*
X006616Y000508D01*
X006609Y000510D01*
X006602Y000512D01*
X006595Y000514D01*
X006592Y000516D01*
X006590Y000517D01*
X006590D01*
X006589Y000517D01*
X006587Y000519D01*
X006584Y000520D01*
X006581Y000523D01*
X006577Y000526D01*
X006573Y000529D01*
X006569Y000533D01*
X006566Y000538D01*
X006566Y000539D01*
X006565Y000540D01*
X006564Y000543D01*
X006562Y000546D01*
X006561Y000550D01*
X006560Y000555D01*
X006559Y000560D01*
X006558Y000566D01*
Y000566D01*
Y000567D01*
Y000568D01*
Y000569D01*
X006559Y000572D01*
X006560Y000576D01*
X006561Y000581D01*
X006562Y000587D01*
X006565Y000592D01*
X006568Y000598D01*
Y000598D01*
X006568Y000598D01*
X006570Y000600D01*
X006572Y000603D01*
X006575Y000606D01*
X006579Y000610D01*
X006584Y000614D01*
X006590Y000617D01*
X006596Y000620D01*
X006596D01*
X006597Y000621D01*
X006598Y000621D01*
X006599Y000622D01*
X006601Y000622D01*
X006603Y000623D01*
X006608Y000624D01*
X006614Y000626D01*
X006621Y000627D01*
X006629Y000628D01*
X006637Y000628D01*
X006641D01*
X006644Y000628D01*
D02*
G37*
G36*
X010452Y000593D02*
X010424D01*
Y000624D01*
X010452D01*
Y000593D01*
D02*
G37*
G36*
X008622D02*
X008595D01*
Y000624D01*
X008622D01*
Y000593D01*
D02*
G37*
G36*
X008236Y000566D02*
X008238Y000566D01*
X008243Y000565D01*
X008249Y000564D01*
X008255Y000562D01*
X008261Y000559D01*
X008268Y000555D01*
X008268D01*
X008268Y000555D01*
X008270Y000553D01*
X008273Y000551D01*
X008277Y000547D01*
X008280Y000543D01*
X008284Y000538D01*
X008288Y000532D01*
X008292Y000525D01*
Y000525D01*
X008292Y000524D01*
X008292Y000523D01*
X008293Y000522D01*
X008293Y000520D01*
X008294Y000518D01*
X008296Y000512D01*
X008297Y000506D01*
X008299Y000499D01*
X008300Y000491D01*
X008300Y000482D01*
Y000482D01*
Y000481D01*
Y000480D01*
Y000478D01*
X008300Y000476D01*
Y000473D01*
X008299Y000467D01*
X008298Y000460D01*
X008296Y000453D01*
X008294Y000445D01*
X008291Y000437D01*
Y000437D01*
X008291Y000436D01*
X008290Y000435D01*
X008289Y000434D01*
X008287Y000430D01*
X008284Y000426D01*
X008280Y000421D01*
X008276Y000416D01*
X008271Y000411D01*
X008265Y000407D01*
X008264D01*
X008264Y000406D01*
X008263Y000406D01*
X008262Y000405D01*
X008258Y000404D01*
X008254Y000402D01*
X008248Y000400D01*
X008243Y000398D01*
X008236Y000397D01*
X008229Y000396D01*
X008227D01*
X008224Y000397D01*
X008221Y000397D01*
X008217Y000398D01*
X008213Y000399D01*
X008209Y000400D01*
X008204Y000402D01*
X008204Y000402D01*
X008202Y000403D01*
X008200Y000404D01*
X008198Y000406D01*
X008195Y000408D01*
X008192Y000411D01*
X008189Y000414D01*
X008187Y000417D01*
Y000338D01*
X008159D01*
Y000563D01*
X008184D01*
Y000541D01*
X008184Y000542D01*
X008186Y000543D01*
X008187Y000545D01*
X008190Y000548D01*
X008193Y000551D01*
X008196Y000554D01*
X008200Y000557D01*
X008204Y000560D01*
X008204Y000560D01*
X008206Y000561D01*
X008208Y000562D01*
X008211Y000563D01*
X008215Y000564D01*
X008220Y000565D01*
X008225Y000566D01*
X008231Y000566D01*
X008234D01*
X008236Y000566D01*
D02*
G37*
G36*
X008746D02*
X008749Y000566D01*
X008754Y000565D01*
X008758Y000564D01*
X008763Y000563D01*
X008767Y000561D01*
X008768Y000560D01*
X008769Y000560D01*
X008772Y000559D01*
X008774Y000557D01*
X008777Y000555D01*
X008780Y000553D01*
X008783Y000550D01*
X008786Y000547D01*
X008786Y000546D01*
X008787Y000545D01*
X008788Y000544D01*
X008789Y000541D01*
X008791Y000538D01*
X008792Y000535D01*
X008794Y000531D01*
X008795Y000527D01*
Y000526D01*
X008795Y000525D01*
X008795Y000523D01*
X008796Y000521D01*
Y000517D01*
X008796Y000512D01*
X008796Y000507D01*
Y000500D01*
Y000400D01*
X008769D01*
Y000498D01*
Y000499D01*
Y000499D01*
Y000501D01*
Y000504D01*
X008768Y000508D01*
X008768Y000512D01*
X008767Y000516D01*
X008766Y000520D01*
X008766Y000524D01*
Y000524D01*
X008765Y000525D01*
X008764Y000527D01*
X008763Y000529D01*
X008761Y000531D01*
X008759Y000533D01*
X008757Y000535D01*
X008754Y000537D01*
X008754Y000537D01*
X008753Y000538D01*
X008751Y000539D01*
X008748Y000540D01*
X008746Y000541D01*
X008743Y000542D01*
X008739Y000542D01*
X008735Y000542D01*
X008733D01*
X008732Y000542D01*
X008729Y000542D01*
X008724Y000541D01*
X008720Y000539D01*
X008715Y000537D01*
X008709Y000535D01*
X008705Y000531D01*
X008704Y000530D01*
X008703Y000529D01*
X008702Y000527D01*
X008701Y000526D01*
X008699Y000524D01*
X008698Y000521D01*
X008697Y000519D01*
X008696Y000516D01*
X008695Y000512D01*
X008694Y000508D01*
X008693Y000504D01*
X008693Y000499D01*
X008692Y000494D01*
Y000488D01*
Y000400D01*
X008664D01*
Y000563D01*
X008689D01*
Y000539D01*
X008689Y000540D01*
X008690Y000541D01*
X008691Y000542D01*
X008692Y000544D01*
X008694Y000545D01*
X008697Y000548D01*
X008699Y000550D01*
X008702Y000553D01*
X008706Y000555D01*
X008709Y000558D01*
X008714Y000560D01*
X008718Y000562D01*
X008723Y000564D01*
X008729Y000565D01*
X008734Y000566D01*
X008741Y000566D01*
X008743D01*
X008746Y000566D01*
D02*
G37*
G36*
X007603Y000628D02*
X007606Y000627D01*
X007610Y000627D01*
X007613Y000627D01*
X007618Y000626D01*
X007626Y000624D01*
X007636Y000621D01*
X007641Y000619D01*
X007645Y000617D01*
X007650Y000614D01*
X007655Y000611D01*
X007655Y000611D01*
X007655Y000610D01*
X007657Y000609D01*
X007658Y000608D01*
X007660Y000606D01*
X007662Y000604D01*
X007665Y000601D01*
X007667Y000599D01*
X007670Y000595D01*
X007672Y000591D01*
X007675Y000588D01*
X007678Y000583D01*
X007680Y000579D01*
X007683Y000574D01*
X007685Y000568D01*
X007687Y000563D01*
X007657Y000556D01*
Y000556D01*
X007657Y000557D01*
X007656Y000558D01*
X007656Y000560D01*
X007655Y000562D01*
X007654Y000564D01*
X007652Y000569D01*
X007648Y000575D01*
X007644Y000581D01*
X007640Y000587D01*
X007634Y000591D01*
X007634Y000592D01*
X007632Y000593D01*
X007629Y000595D01*
X007624Y000597D01*
X007619Y000599D01*
X007613Y000601D01*
X007605Y000602D01*
X007597Y000603D01*
X007595D01*
X007593Y000602D01*
X007591D01*
X007588Y000602D01*
X007582Y000601D01*
X007575Y000600D01*
X007568Y000598D01*
X007561Y000594D01*
X007554Y000590D01*
X007553D01*
X007553Y000590D01*
X007551Y000588D01*
X007548Y000585D01*
X007544Y000581D01*
X007540Y000577D01*
X007536Y000571D01*
X007533Y000564D01*
X007529Y000557D01*
Y000556D01*
X007529Y000556D01*
X007529Y000555D01*
X007528Y000553D01*
X007528Y000551D01*
X007527Y000549D01*
X007526Y000544D01*
X007525Y000537D01*
X007524Y000530D01*
X007523Y000522D01*
X007523Y000514D01*
Y000513D01*
Y000512D01*
Y000511D01*
Y000509D01*
X007523Y000507D01*
Y000504D01*
X007523Y000500D01*
X007524Y000497D01*
X007525Y000489D01*
X007526Y000481D01*
X007528Y000472D01*
X007531Y000464D01*
Y000463D01*
X007531Y000463D01*
X007532Y000462D01*
X007532Y000460D01*
X007534Y000456D01*
X007537Y000452D01*
X007541Y000447D01*
X007545Y000441D01*
X007551Y000436D01*
X007557Y000432D01*
X007557D01*
X007558Y000431D01*
X007559Y000431D01*
X007560Y000430D01*
X007562Y000429D01*
X007563Y000429D01*
X007568Y000427D01*
X007574Y000425D01*
X007580Y000423D01*
X007587Y000422D01*
X007595Y000421D01*
X007597D01*
X007599Y000422D01*
X007601D01*
X007604Y000422D01*
X007609Y000423D01*
X007616Y000425D01*
X007623Y000428D01*
X007630Y000431D01*
X007634Y000433D01*
X007637Y000436D01*
X007637Y000436D01*
X007638Y000436D01*
X007639Y000437D01*
X007640Y000438D01*
X007641Y000440D01*
X007643Y000442D01*
X007645Y000444D01*
X007646Y000446D01*
X007648Y000449D01*
X007651Y000452D01*
X007653Y000456D01*
X007655Y000460D01*
X007656Y000464D01*
X007658Y000468D01*
X007659Y000473D01*
X007661Y000478D01*
X007690Y000471D01*
Y000471D01*
X007690Y000469D01*
X007690Y000467D01*
X007689Y000465D01*
X007688Y000462D01*
X007686Y000458D01*
X007685Y000454D01*
X007683Y000450D01*
X007678Y000441D01*
X007672Y000432D01*
X007669Y000428D01*
X007665Y000423D01*
X007661Y000419D01*
X007657Y000415D01*
X007656Y000415D01*
X007656Y000414D01*
X007654Y000414D01*
X007653Y000412D01*
X007650Y000411D01*
X007647Y000409D01*
X007644Y000407D01*
X007640Y000406D01*
X007636Y000404D01*
X007632Y000402D01*
X007627Y000401D01*
X007621Y000399D01*
X007616Y000398D01*
X007610Y000397D01*
X007604Y000396D01*
X007597Y000396D01*
X007594D01*
X007591Y000396D01*
X007588D01*
X007585Y000397D01*
X007581Y000397D01*
X007576Y000398D01*
X007567Y000400D01*
X007557Y000402D01*
X007548Y000406D01*
X007543Y000408D01*
X007539Y000411D01*
X007538Y000411D01*
X007538Y000411D01*
X007536Y000412D01*
X007535Y000414D01*
X007533Y000415D01*
X007531Y000417D01*
X007528Y000419D01*
X007526Y000422D01*
X007523Y000425D01*
X007520Y000428D01*
X007514Y000435D01*
X007509Y000444D01*
X007504Y000453D01*
Y000454D01*
X007503Y000455D01*
X007503Y000456D01*
X007502Y000458D01*
X007501Y000461D01*
X007500Y000464D01*
X007499Y000468D01*
X007498Y000472D01*
X007497Y000476D01*
X007496Y000481D01*
X007494Y000491D01*
X007493Y000502D01*
X007492Y000514D01*
Y000514D01*
Y000515D01*
Y000517D01*
X007493Y000520D01*
Y000523D01*
X007493Y000526D01*
X007493Y000530D01*
X007494Y000534D01*
X007495Y000544D01*
X007498Y000554D01*
X007501Y000565D01*
X007505Y000575D01*
X007506Y000575D01*
X007506Y000576D01*
X007507Y000577D01*
X007508Y000579D01*
X007509Y000581D01*
X007511Y000584D01*
X007515Y000590D01*
X007521Y000596D01*
X007527Y000602D01*
X007535Y000609D01*
X007543Y000614D01*
X007544Y000615D01*
X007545Y000615D01*
X007546Y000616D01*
X007548Y000617D01*
X007550Y000618D01*
X007553Y000619D01*
X007556Y000620D01*
X007560Y000621D01*
X007563Y000623D01*
X007568Y000624D01*
X007577Y000626D01*
X007587Y000627D01*
X007598Y000628D01*
X007601D01*
X007603Y000628D01*
D02*
G37*
G36*
X010380Y000400D02*
X010355D01*
Y000420D01*
X010354Y000420D01*
X010354Y000419D01*
X010353Y000418D01*
X010352Y000417D01*
X010350Y000415D01*
X010348Y000413D01*
X010346Y000411D01*
X010343Y000408D01*
X010340Y000406D01*
X010337Y000404D01*
X010333Y000402D01*
X010329Y000400D01*
X010325Y000399D01*
X010320Y000397D01*
X010315Y000397D01*
X010309Y000396D01*
X010307D01*
X010306Y000397D01*
X010302Y000397D01*
X010297Y000398D01*
X010292Y000399D01*
X010286Y000401D01*
X010280Y000404D01*
X010273Y000407D01*
X010273D01*
X010273Y000408D01*
X010271Y000409D01*
X010268Y000412D01*
X010264Y000415D01*
X010260Y000419D01*
X010256Y000424D01*
X010252Y000430D01*
X010248Y000437D01*
Y000437D01*
X010248Y000438D01*
X010247Y000439D01*
X010247Y000440D01*
X010246Y000442D01*
X010245Y000444D01*
X010245Y000447D01*
X010244Y000450D01*
X010242Y000456D01*
X010241Y000463D01*
X010240Y000472D01*
X010239Y000481D01*
Y000481D01*
Y000482D01*
Y000483D01*
Y000485D01*
X010240Y000487D01*
Y000490D01*
X010240Y000496D01*
X010241Y000502D01*
X010243Y000510D01*
X010245Y000518D01*
X010247Y000525D01*
Y000525D01*
X010248Y000526D01*
X010248Y000527D01*
X010249Y000528D01*
X010251Y000532D01*
X010254Y000536D01*
X010257Y000541D01*
X010261Y000546D01*
X010266Y000551D01*
X010272Y000556D01*
X010272D01*
X010272Y000556D01*
X010273Y000556D01*
X010275Y000557D01*
X010278Y000559D01*
X010282Y000561D01*
X010288Y000563D01*
X010294Y000565D01*
X010301Y000566D01*
X010308Y000566D01*
X010310D01*
X010313Y000566D01*
X010316Y000566D01*
X010321Y000565D01*
X010325Y000564D01*
X010330Y000562D01*
X010334Y000560D01*
X010335Y000559D01*
X010336Y000559D01*
X010338Y000557D01*
X010340Y000556D01*
X010344Y000553D01*
X010347Y000550D01*
X010350Y000547D01*
X010353Y000544D01*
Y000624D01*
X010380D01*
Y000400D01*
D02*
G37*
G36*
X010787Y007671D02*
X010793Y007670D01*
X010800Y007668D01*
X010808Y007666D01*
X010816Y007664D01*
X010823Y007660D01*
X010823D01*
X010824Y007660D01*
X010826Y007659D01*
X010830Y007656D01*
X010835Y007653D01*
X010840Y007648D01*
X010845Y007643D01*
X010850Y007637D01*
X010855Y007630D01*
X010856Y007630D01*
X010858Y007627D01*
X010860Y007623D01*
X010863Y007617D01*
X010866Y007610D01*
X010869Y007602D01*
X010872Y007593D01*
X010875Y007583D01*
Y007582D01*
X010876Y007581D01*
X010876Y007580D01*
X010877Y007578D01*
X010877Y007575D01*
X010878Y007572D01*
X010878Y007568D01*
X010879Y007563D01*
X010880Y007558D01*
X010880Y007552D01*
X010881Y007546D01*
X010882Y007539D01*
X010882Y007532D01*
Y007525D01*
X010883Y007516D01*
Y007508D01*
Y007507D01*
Y007505D01*
Y007502D01*
Y007498D01*
X010882Y007493D01*
Y007488D01*
X010882Y007482D01*
X010881Y007475D01*
X010880Y007460D01*
X010878Y007445D01*
X010875Y007430D01*
X010873Y007423D01*
X010871Y007417D01*
Y007416D01*
X010870Y007415D01*
X010869Y007413D01*
X010868Y007411D01*
X010867Y007408D01*
X010866Y007405D01*
X010862Y007397D01*
X010857Y007388D01*
X010851Y007379D01*
X010844Y007371D01*
X010836Y007363D01*
X010835D01*
X010835Y007362D01*
X010834Y007361D01*
X010832Y007360D01*
X010829Y007359D01*
X010827Y007357D01*
X010820Y007354D01*
X010812Y007350D01*
X010802Y007347D01*
X010791Y007345D01*
X010778Y007344D01*
X010774D01*
X010770Y007345D01*
X010767Y007345D01*
X010762Y007346D01*
X010757Y007347D01*
X010751Y007349D01*
X010746Y007350D01*
X010740Y007352D01*
X010734Y007355D01*
X010728Y007358D01*
X010722Y007362D01*
X010716Y007367D01*
X010710Y007372D01*
X010705Y007377D01*
X010705Y007378D01*
X010704Y007379D01*
X010702Y007381D01*
X010700Y007385D01*
X010698Y007389D01*
X010695Y007395D01*
X010692Y007401D01*
X010689Y007409D01*
X010687Y007417D01*
X010684Y007427D01*
X010681Y007437D01*
X010679Y007449D01*
X010677Y007462D01*
X010675Y007476D01*
X010674Y007491D01*
X010674Y007508D01*
Y007508D01*
Y007510D01*
Y007513D01*
Y007517D01*
X010674Y007522D01*
Y007527D01*
X010675Y007533D01*
X010675Y007540D01*
X010677Y007555D01*
X010679Y007570D01*
X010682Y007585D01*
X010683Y007592D01*
X010685Y007599D01*
Y007599D01*
X010686Y007600D01*
X010687Y007602D01*
X010688Y007605D01*
X010689Y007608D01*
X010690Y007611D01*
X010694Y007619D01*
X010699Y007627D01*
X010705Y007636D01*
X010712Y007645D01*
X010720Y007652D01*
X010720D01*
X010721Y007653D01*
X010722Y007654D01*
X010724Y007655D01*
X010726Y007657D01*
X010729Y007658D01*
X010736Y007662D01*
X010744Y007665D01*
X010754Y007668D01*
X010766Y007670D01*
X010778Y007671D01*
X010782D01*
X010787Y007671D01*
D02*
G37*
G36*
X010562Y007350D02*
X010524D01*
X010437Y007582D01*
X010478D01*
X010528Y007443D01*
Y007442D01*
X010529Y007442D01*
X010529Y007441D01*
X010530Y007439D01*
X010531Y007435D01*
X010533Y007429D01*
X010535Y007422D01*
X010538Y007414D01*
X010540Y007405D01*
X010543Y007396D01*
X010544Y007397D01*
X010544Y007399D01*
X010545Y007403D01*
X010547Y007409D01*
X010549Y007415D01*
X010551Y007423D01*
X010555Y007431D01*
X010558Y007440D01*
X010609Y007582D01*
X010650D01*
X010562Y007350D01*
D02*
G37*
G36*
X011212Y007463D02*
X011255D01*
Y007427D01*
X011212D01*
Y007350D01*
X011172D01*
Y007427D01*
X011033D01*
Y007463D01*
X011180Y007670D01*
X011212D01*
Y007463D01*
D02*
G37*
G36*
X009585Y007587D02*
X009590Y007586D01*
X009596Y007584D01*
X009603Y007581D01*
X009610Y007578D01*
X009618Y007574D01*
X009604Y007538D01*
X009603Y007538D01*
X009601Y007539D01*
X009599Y007541D01*
X009595Y007542D01*
X009591Y007544D01*
X009586Y007545D01*
X009581Y007546D01*
X009576Y007546D01*
X009573D01*
X009571Y007546D01*
X009568Y007545D01*
X009565Y007545D01*
X009560Y007543D01*
X009556Y007541D01*
X009553Y007538D01*
X009552Y007538D01*
X009551Y007537D01*
X009549Y007535D01*
X009547Y007533D01*
X009545Y007530D01*
X009542Y007526D01*
X009540Y007522D01*
X009538Y007517D01*
X009538Y007516D01*
X009537Y007513D01*
X009536Y007509D01*
X009535Y007503D01*
X009534Y007496D01*
X009533Y007489D01*
X009532Y007480D01*
X009532Y007471D01*
Y007350D01*
X009492D01*
Y007582D01*
X009528D01*
Y007547D01*
X009528Y007547D01*
X009530Y007551D01*
X009533Y007555D01*
X009536Y007560D01*
X009540Y007565D01*
X009544Y007570D01*
X009548Y007575D01*
X009553Y007579D01*
X009553Y007579D01*
X009554Y007580D01*
X009557Y007581D01*
X009560Y007583D01*
X009564Y007584D01*
X009568Y007586D01*
X009573Y007587D01*
X009578Y007587D01*
X009581D01*
X009585Y007587D01*
D02*
G37*
G36*
X009898Y007350D02*
X009854D01*
X009687Y007601D01*
Y007350D01*
X009646D01*
Y007670D01*
X009690D01*
X009857Y007418D01*
Y007670D01*
X009898D01*
Y007350D01*
D02*
G37*
G36*
X010258Y007582D02*
X010298D01*
Y007551D01*
X010258D01*
Y007415D01*
Y007414D01*
Y007412D01*
Y007410D01*
X010259Y007406D01*
X010259Y007399D01*
X010260Y007396D01*
X010260Y007393D01*
X010261Y007393D01*
X010262Y007391D01*
X010264Y007388D01*
X010267Y007386D01*
X010268Y007386D01*
X010270Y007385D01*
X010275Y007384D01*
X010281Y007383D01*
X010285D01*
X010288Y007384D01*
X010291D01*
X010294Y007384D01*
X010298Y007385D01*
X010303Y007350D01*
X010302D01*
X010300Y007350D01*
X010297Y007349D01*
X010293Y007349D01*
X010288Y007348D01*
X010283Y007347D01*
X010273Y007347D01*
X010270D01*
X010266Y007347D01*
X010261Y007348D01*
X010256Y007348D01*
X010250Y007350D01*
X010245Y007351D01*
X010240Y007353D01*
X010239Y007354D01*
X010238Y007355D01*
X010236Y007356D01*
X010233Y007358D01*
X010231Y007361D01*
X010228Y007364D01*
X010226Y007367D01*
X010224Y007371D01*
Y007372D01*
X010223Y007374D01*
X010222Y007377D01*
X010221Y007381D01*
X010221Y007387D01*
X010220Y007391D01*
Y007395D01*
X010220Y007400D01*
X010219Y007405D01*
Y007411D01*
Y007417D01*
Y007551D01*
X010190D01*
Y007582D01*
X010219D01*
Y007639D01*
X010258Y007663D01*
Y007582D01*
D02*
G37*
G36*
X010067Y007587D02*
X010070Y007586D01*
X010075Y007585D01*
X010080Y007584D01*
X010086Y007583D01*
X010092Y007581D01*
X010098Y007579D01*
X010104Y007577D01*
X010111Y007574D01*
X010117Y007570D01*
X010124Y007566D01*
X010130Y007561D01*
X010135Y007555D01*
X010136Y007555D01*
X010136Y007554D01*
X010138Y007552D01*
X010140Y007549D01*
X010142Y007546D01*
X010144Y007542D01*
X010147Y007538D01*
X010150Y007532D01*
X010153Y007526D01*
X010155Y007520D01*
X010158Y007512D01*
X010160Y007504D01*
X010162Y007496D01*
X010163Y007486D01*
X010164Y007477D01*
X010165Y007466D01*
Y007466D01*
Y007464D01*
Y007460D01*
X010164Y007456D01*
X009991D01*
Y007455D01*
Y007454D01*
X009991Y007452D01*
Y007449D01*
X009992Y007446D01*
X009993Y007442D01*
X009994Y007434D01*
X009997Y007425D01*
X010001Y007415D01*
X010006Y007405D01*
X010012Y007397D01*
X010013D01*
X010013Y007396D01*
X010016Y007394D01*
X010020Y007391D01*
X010026Y007387D01*
X010033Y007384D01*
X010041Y007380D01*
X010051Y007378D01*
X010056Y007378D01*
X010061Y007377D01*
X010065D01*
X010069Y007378D01*
X010074Y007379D01*
X010080Y007380D01*
X010086Y007382D01*
X010092Y007385D01*
X010098Y007388D01*
X010099Y007389D01*
X010101Y007391D01*
X010104Y007393D01*
X010107Y007397D01*
X010111Y007402D01*
X010115Y007409D01*
X010119Y007416D01*
X010123Y007425D01*
X010163Y007420D01*
Y007419D01*
X010163Y007418D01*
X010162Y007417D01*
X010161Y007414D01*
X010160Y007411D01*
X010159Y007407D01*
X010155Y007399D01*
X010150Y007391D01*
X010144Y007381D01*
X010136Y007373D01*
X010127Y007364D01*
X010127D01*
X010126Y007363D01*
X010124Y007362D01*
X010123Y007361D01*
X010120Y007360D01*
X010117Y007358D01*
X010113Y007356D01*
X010109Y007355D01*
X010105Y007353D01*
X010100Y007351D01*
X010088Y007348D01*
X010075Y007346D01*
X010061Y007345D01*
X010056D01*
X010053Y007345D01*
X010049Y007346D01*
X010044Y007347D01*
X010038Y007348D01*
X010032Y007349D01*
X010019Y007352D01*
X010012Y007355D01*
X010006Y007358D01*
X009999Y007362D01*
X009992Y007366D01*
X009986Y007370D01*
X009980Y007376D01*
X009980Y007376D01*
X009979Y007377D01*
X009978Y007379D01*
X009976Y007382D01*
X009973Y007385D01*
X009971Y007389D01*
X009968Y007393D01*
X009966Y007399D01*
X009963Y007405D01*
X009960Y007411D01*
X009958Y007418D01*
X009955Y007426D01*
X009954Y007435D01*
X009952Y007444D01*
X009951Y007453D01*
X009951Y007464D01*
Y007464D01*
Y007466D01*
Y007469D01*
X009951Y007473D01*
X009952Y007478D01*
X009952Y007484D01*
X009953Y007490D01*
X009954Y007497D01*
X009958Y007512D01*
X009960Y007519D01*
X009963Y007527D01*
X009967Y007534D01*
X009971Y007541D01*
X009976Y007548D01*
X009981Y007555D01*
X009981Y007555D01*
X009982Y007556D01*
X009984Y007557D01*
X009986Y007560D01*
X009989Y007562D01*
X009993Y007565D01*
X009997Y007568D01*
X010002Y007571D01*
X010007Y007574D01*
X010013Y007577D01*
X010020Y007580D01*
X010027Y007582D01*
X010034Y007584D01*
X010042Y007586D01*
X010050Y007587D01*
X010059Y007587D01*
X010063D01*
X010067Y007587D01*
D02*
G37*
G36*
X010989Y007350D02*
X010945D01*
Y007395D01*
X010989D01*
Y007350D01*
D02*
G37*
G36*
X009338Y007669D02*
X009346Y007669D01*
X009354Y007668D01*
X009362Y007667D01*
X009369Y007666D01*
X009370D01*
X009373Y007666D01*
X009377Y007665D01*
X009383Y007663D01*
X009389Y007661D01*
X009395Y007658D01*
X009402Y007655D01*
X009408Y007651D01*
X009409Y007651D01*
X009411Y007649D01*
X009414Y007647D01*
X009418Y007643D01*
X009422Y007639D01*
X009426Y007634D01*
X009431Y007628D01*
X009434Y007621D01*
X009435Y007620D01*
X009436Y007617D01*
X009437Y007613D01*
X009439Y007608D01*
X009441Y007601D01*
X009443Y007594D01*
X009443Y007586D01*
X009444Y007577D01*
Y007576D01*
Y007575D01*
Y007573D01*
X009443Y007570D01*
X009443Y007567D01*
X009443Y007563D01*
X009442Y007558D01*
X009441Y007553D01*
X009437Y007542D01*
X009436Y007537D01*
X009433Y007531D01*
X009430Y007525D01*
X009426Y007519D01*
X009422Y007514D01*
X009418Y007508D01*
X009417Y007508D01*
X009416Y007507D01*
X009415Y007505D01*
X009413Y007504D01*
X009410Y007502D01*
X009406Y007499D01*
X009401Y007496D01*
X009396Y007494D01*
X009390Y007491D01*
X009383Y007489D01*
X009376Y007486D01*
X009367Y007484D01*
X009358Y007483D01*
X009348Y007481D01*
X009336Y007480D01*
X009324Y007480D01*
X009243D01*
Y007350D01*
X009200D01*
Y007670D01*
X009331D01*
X009338Y007669D01*
D02*
G37*
G36*
X009404Y000400D02*
X009375D01*
Y000588D01*
X009310Y000400D01*
X009283D01*
X009218Y000591D01*
Y000400D01*
X009190D01*
Y000624D01*
X009234D01*
X009287Y000465D01*
Y000465D01*
X009288Y000464D01*
X009288Y000463D01*
X009289Y000462D01*
X009290Y000458D01*
X009292Y000453D01*
X009293Y000447D01*
X009295Y000442D01*
X009297Y000437D01*
X009298Y000432D01*
X009298Y000433D01*
X009299Y000434D01*
X009300Y000437D01*
X009301Y000441D01*
X009303Y000446D01*
X009305Y000452D01*
X009307Y000460D01*
X009310Y000468D01*
X009364Y000624D01*
X009404D01*
Y000400D01*
D02*
G37*
G36*
X008465D02*
X008440D01*
Y000424D01*
X008440Y000423D01*
X008439Y000422D01*
X008438Y000421D01*
X008436Y000419D01*
X008434Y000417D01*
X008432Y000415D01*
X008430Y000413D01*
X008426Y000410D01*
X008423Y000407D01*
X008419Y000405D01*
X008415Y000403D01*
X008410Y000401D01*
X008405Y000399D01*
X008400Y000398D01*
X008394Y000397D01*
X008388Y000396D01*
X008386D01*
X008383Y000397D01*
X008379Y000397D01*
X008375Y000398D01*
X008371Y000399D01*
X008366Y000400D01*
X008361Y000402D01*
X008361Y000402D01*
X008359Y000403D01*
X008357Y000404D01*
X008354Y000406D01*
X008351Y000408D01*
X008348Y000410D01*
X008345Y000413D01*
X008343Y000416D01*
X008342Y000416D01*
X008342Y000417D01*
X008341Y000419D01*
X008339Y000421D01*
X008338Y000424D01*
X008337Y000428D01*
X008335Y000432D01*
X008334Y000436D01*
Y000436D01*
X008334Y000438D01*
X008334Y000440D01*
Y000442D01*
X008333Y000446D01*
X008333Y000450D01*
X008333Y000456D01*
Y000462D01*
Y000563D01*
X008360D01*
Y000472D01*
Y000472D01*
Y000471D01*
Y000470D01*
Y000469D01*
Y000465D01*
X008361Y000461D01*
Y000456D01*
X008361Y000451D01*
X008361Y000447D01*
X008362Y000443D01*
Y000443D01*
X008362Y000441D01*
X008363Y000440D01*
X008364Y000437D01*
X008366Y000434D01*
X008368Y000431D01*
X008370Y000429D01*
X008373Y000426D01*
X008373Y000426D01*
X008374Y000425D01*
X008376Y000424D01*
X008379Y000423D01*
X008382Y000422D01*
X008385Y000421D01*
X008389Y000420D01*
X008394Y000420D01*
X008396D01*
X008398Y000420D01*
X008401Y000421D01*
X008405Y000422D01*
X008408Y000423D01*
X008413Y000424D01*
X008417Y000426D01*
X008418Y000427D01*
X008419Y000428D01*
X008421Y000429D01*
X008423Y000431D01*
X008426Y000433D01*
X008428Y000436D01*
X008431Y000440D01*
X008432Y000443D01*
X008433Y000444D01*
X008433Y000445D01*
X008434Y000448D01*
X008435Y000452D01*
X008436Y000456D01*
X008436Y000462D01*
X008437Y000468D01*
X008437Y000475D01*
Y000563D01*
X008465D01*
Y000400D01*
D02*
G37*
G36*
X012018Y000595D02*
X011929D01*
X011917Y000534D01*
X011917Y000535D01*
X011918Y000535D01*
X011919Y000536D01*
X011920Y000537D01*
X011922Y000538D01*
X011925Y000539D01*
X011930Y000542D01*
X011936Y000544D01*
X011943Y000546D01*
X011951Y000548D01*
X011955Y000549D01*
X011962D01*
X011964Y000548D01*
X011967Y000548D01*
X011970Y000548D01*
X011973Y000547D01*
X011976Y000546D01*
X011984Y000544D01*
X011988Y000542D01*
X011993Y000540D01*
X011997Y000538D01*
X012001Y000535D01*
X012005Y000532D01*
X012009Y000528D01*
X012009Y000528D01*
X012010Y000527D01*
X012011Y000526D01*
X012012Y000525D01*
X012014Y000522D01*
X012015Y000520D01*
X012017Y000517D01*
X012019Y000514D01*
X012021Y000510D01*
X012023Y000507D01*
X012024Y000502D01*
X012026Y000498D01*
X012027Y000493D01*
X012028Y000487D01*
X012029Y000482D01*
X012029Y000476D01*
Y000475D01*
Y000475D01*
Y000473D01*
X012029Y000471D01*
X012029Y000468D01*
X012028Y000465D01*
X012028Y000462D01*
X012027Y000458D01*
X012025Y000450D01*
X012022Y000441D01*
X012020Y000436D01*
X012017Y000432D01*
X012015Y000428D01*
X012011Y000423D01*
X012011Y000423D01*
X012010Y000422D01*
X012009Y000421D01*
X012007Y000419D01*
X012005Y000417D01*
X012003Y000415D01*
X011999Y000412D01*
X011996Y000410D01*
X011992Y000407D01*
X011987Y000405D01*
X011983Y000403D01*
X011977Y000400D01*
X011972Y000399D01*
X011966Y000397D01*
X011959Y000396D01*
X011952Y000396D01*
X011949D01*
X011947Y000396D01*
X011945Y000397D01*
X011942Y000397D01*
X011938Y000397D01*
X011935Y000398D01*
X011926Y000400D01*
X011918Y000403D01*
X011914Y000405D01*
X011910Y000407D01*
X011906Y000410D01*
X011902Y000413D01*
X011902Y000413D01*
X011901Y000414D01*
X011901Y000415D01*
X011899Y000416D01*
X011898Y000418D01*
X011896Y000420D01*
X011894Y000422D01*
X011892Y000425D01*
X011890Y000428D01*
X011889Y000432D01*
X011885Y000440D01*
X011882Y000449D01*
X011881Y000453D01*
X011880Y000459D01*
X011909Y000461D01*
Y000461D01*
Y000460D01*
X011910Y000459D01*
X011910Y000457D01*
X011911Y000454D01*
X011912Y000449D01*
X011914Y000444D01*
X011917Y000439D01*
X011920Y000434D01*
X011924Y000429D01*
X011925Y000429D01*
X011926Y000428D01*
X011928Y000426D01*
X011932Y000424D01*
X011936Y000422D01*
X011941Y000420D01*
X011946Y000419D01*
X011952Y000419D01*
X011954D01*
X011956Y000419D01*
X011960Y000419D01*
X011964Y000421D01*
X011970Y000422D01*
X011975Y000425D01*
X011981Y000429D01*
X011983Y000431D01*
X011986Y000434D01*
X011986Y000434D01*
X011987Y000434D01*
X011987Y000435D01*
X011988Y000436D01*
X011991Y000440D01*
X011993Y000444D01*
X011995Y000450D01*
X011998Y000457D01*
X011999Y000465D01*
X012000Y000469D01*
Y000474D01*
Y000474D01*
Y000475D01*
Y000476D01*
X012000Y000477D01*
Y000479D01*
X011999Y000482D01*
X011998Y000487D01*
X011997Y000493D01*
X011995Y000499D01*
X011991Y000505D01*
X011987Y000510D01*
Y000511D01*
X011986Y000511D01*
X011984Y000513D01*
X011982Y000515D01*
X011978Y000518D01*
X011972Y000520D01*
X011967Y000522D01*
X011960Y000524D01*
X011956Y000524D01*
X011950D01*
X011947Y000524D01*
X011944Y000524D01*
X011940Y000523D01*
X011936Y000522D01*
X011932Y000520D01*
X011928Y000518D01*
X011927Y000518D01*
X011926Y000517D01*
X011924Y000516D01*
X011922Y000514D01*
X011919Y000512D01*
X011916Y000509D01*
X011913Y000506D01*
X011911Y000502D01*
X011885Y000506D01*
X011907Y000621D01*
X012018D01*
Y000595D01*
D02*
G37*
G36*
X010031Y000400D02*
X010002D01*
Y000588D01*
X009937Y000400D01*
X009910D01*
X009845Y000591D01*
Y000400D01*
X009817D01*
Y000624D01*
X009861D01*
X009914Y000465D01*
Y000465D01*
X009915Y000464D01*
X009915Y000463D01*
X009916Y000462D01*
X009917Y000458D01*
X009919Y000453D01*
X009920Y000447D01*
X009922Y000442D01*
X009924Y000437D01*
X009925Y000432D01*
X009925Y000433D01*
X009926Y000434D01*
X009927Y000437D01*
X009928Y000441D01*
X009930Y000446D01*
X009932Y000452D01*
X009934Y000460D01*
X009937Y000468D01*
X009991Y000624D01*
X010031D01*
Y000400D01*
D02*
G37*
G36*
X007010Y000566D02*
X007012D01*
X007015Y000566D01*
X007021Y000565D01*
X007028Y000563D01*
X007035Y000560D01*
X007042Y000557D01*
X007049Y000553D01*
X007049D01*
X007049Y000552D01*
X007051Y000550D01*
X007054Y000547D01*
X007058Y000543D01*
X007061Y000538D01*
X007065Y000531D01*
X007068Y000524D01*
X007070Y000515D01*
X007043Y000511D01*
Y000511D01*
X007043Y000511D01*
X007043Y000513D01*
X007042Y000516D01*
X007040Y000520D01*
X007039Y000524D01*
X007036Y000528D01*
X007033Y000532D01*
X007030Y000535D01*
X007030Y000535D01*
X007028Y000536D01*
X007026Y000538D01*
X007023Y000539D01*
X007020Y000541D01*
X007016Y000542D01*
X007011Y000543D01*
X007007Y000544D01*
X007005D01*
X007003Y000543D01*
X006999Y000543D01*
X006995Y000542D01*
X006989Y000540D01*
X006984Y000537D01*
X006978Y000533D01*
X006975Y000531D01*
X006973Y000529D01*
Y000528D01*
X006972Y000528D01*
X006972Y000527D01*
X006971Y000526D01*
X006970Y000524D01*
X006969Y000522D01*
X006968Y000520D01*
X006966Y000517D01*
X006965Y000514D01*
X006964Y000510D01*
X006963Y000507D01*
X006962Y000502D01*
X006961Y000498D01*
X006961Y000493D01*
X006960Y000487D01*
Y000481D01*
Y000481D01*
Y000480D01*
Y000478D01*
X006960Y000476D01*
Y000473D01*
X006961Y000470D01*
X006961Y000463D01*
X006963Y000455D01*
X006965Y000447D01*
X006968Y000440D01*
X006970Y000437D01*
X006972Y000434D01*
X006973Y000433D01*
X006974Y000431D01*
X006977Y000429D01*
X006981Y000427D01*
X006986Y000424D01*
X006991Y000421D01*
X006998Y000420D01*
X007001Y000419D01*
X007005Y000419D01*
X007006D01*
X007007Y000419D01*
X007011Y000420D01*
X007014Y000420D01*
X007018Y000421D01*
X007023Y000423D01*
X007028Y000426D01*
X007032Y000429D01*
X007032Y000429D01*
X007033Y000431D01*
X007035Y000433D01*
X007038Y000437D01*
X007040Y000441D01*
X007042Y000446D01*
X007044Y000452D01*
X007046Y000460D01*
X007073Y000456D01*
Y000456D01*
X007073Y000455D01*
X007072Y000453D01*
X007072Y000452D01*
X007071Y000449D01*
X007071Y000446D01*
X007068Y000440D01*
X007065Y000433D01*
X007061Y000426D01*
X007056Y000418D01*
X007053Y000415D01*
X007050Y000412D01*
X007050Y000412D01*
X007049Y000411D01*
X007048Y000411D01*
X007047Y000410D01*
X007045Y000408D01*
X007043Y000407D01*
X007040Y000406D01*
X007038Y000404D01*
X007031Y000401D01*
X007023Y000399D01*
X007015Y000397D01*
X007010Y000397D01*
X007005Y000396D01*
X007002D01*
X007000Y000397D01*
X006997Y000397D01*
X006994Y000398D01*
X006990Y000398D01*
X006986Y000399D01*
X006977Y000402D01*
X006973Y000404D01*
X006969Y000406D01*
X006964Y000408D01*
X006960Y000411D01*
X006956Y000414D01*
X006952Y000418D01*
X006951Y000418D01*
X006951Y000419D01*
X006950Y000420D01*
X006949Y000422D01*
X006947Y000424D01*
X006945Y000427D01*
X006944Y000430D01*
X006942Y000434D01*
X006940Y000438D01*
X006938Y000443D01*
X006936Y000448D01*
X006935Y000454D01*
X006934Y000460D01*
X006933Y000466D01*
X006932Y000473D01*
X006932Y000481D01*
Y000481D01*
Y000482D01*
Y000483D01*
Y000485D01*
X006932Y000487D01*
Y000490D01*
X006932Y000493D01*
X006933Y000496D01*
X006934Y000503D01*
X006935Y000511D01*
X006937Y000519D01*
X006940Y000527D01*
Y000527D01*
X006940Y000528D01*
X006941Y000529D01*
X006942Y000530D01*
X006944Y000533D01*
X006947Y000538D01*
X006950Y000543D01*
X006955Y000547D01*
X006961Y000552D01*
X006967Y000556D01*
X006967D01*
X006968Y000556D01*
X006969Y000557D01*
X006970Y000558D01*
X006972Y000558D01*
X006973Y000559D01*
X006978Y000561D01*
X006984Y000563D01*
X006991Y000565D01*
X006998Y000566D01*
X007006Y000566D01*
X007008D01*
X007010Y000566D01*
D02*
G37*
G36*
X008072D02*
X008074D01*
X008076Y000566D01*
X008082Y000565D01*
X008088Y000563D01*
X008094Y000560D01*
X008100Y000557D01*
X008105Y000553D01*
X008106Y000552D01*
X008107Y000550D01*
X008109Y000547D01*
X008110Y000545D01*
X008112Y000543D01*
X008113Y000540D01*
X008114Y000537D01*
X008115Y000533D01*
X008116Y000530D01*
X008117Y000526D01*
X008118Y000521D01*
X008118Y000517D01*
Y000511D01*
Y000400D01*
X008091D01*
Y000502D01*
Y000502D01*
Y000503D01*
Y000505D01*
Y000508D01*
X008090Y000511D01*
X008090Y000515D01*
X008090Y000519D01*
X008089Y000523D01*
X008088Y000526D01*
Y000526D01*
X008087Y000527D01*
X008087Y000528D01*
X008086Y000530D01*
X008084Y000532D01*
X008083Y000534D01*
X008081Y000536D01*
X008078Y000538D01*
X008078Y000538D01*
X008077Y000538D01*
X008076Y000539D01*
X008073Y000540D01*
X008071Y000541D01*
X008068Y000542D01*
X008065Y000542D01*
X008062Y000542D01*
X008060D01*
X008059Y000542D01*
X008056Y000542D01*
X008052Y000541D01*
X008047Y000539D01*
X008042Y000537D01*
X008037Y000534D01*
X008033Y000531D01*
X008033Y000530D01*
X008031Y000528D01*
X008029Y000526D01*
X008027Y000522D01*
X008025Y000517D01*
X008024Y000510D01*
X008022Y000503D01*
X008022Y000494D01*
Y000400D01*
X007994D01*
Y000505D01*
Y000506D01*
Y000506D01*
Y000507D01*
Y000508D01*
X007994Y000512D01*
X007993Y000516D01*
X007992Y000520D01*
X007991Y000525D01*
X007990Y000529D01*
X007987Y000533D01*
X007987Y000533D01*
X007986Y000534D01*
X007984Y000536D01*
X007982Y000538D01*
X007979Y000539D01*
X007975Y000541D01*
X007971Y000542D01*
X007965Y000542D01*
X007963D01*
X007961Y000542D01*
X007958Y000542D01*
X007955Y000541D01*
X007951Y000540D01*
X007948Y000538D01*
X007944Y000536D01*
X007944Y000536D01*
X007942Y000535D01*
X007941Y000533D01*
X007938Y000532D01*
X007936Y000529D01*
X007934Y000526D01*
X007932Y000522D01*
X007930Y000518D01*
X007929Y000517D01*
X007929Y000516D01*
X007928Y000513D01*
X007927Y000510D01*
X007926Y000505D01*
X007926Y000499D01*
X007925Y000492D01*
X007925Y000484D01*
Y000400D01*
X007898D01*
Y000563D01*
X007922D01*
Y000539D01*
X007922Y000540D01*
X007923Y000541D01*
X007925Y000544D01*
X007928Y000546D01*
X007931Y000549D01*
X007934Y000553D01*
X007938Y000556D01*
X007943Y000559D01*
X007943Y000559D01*
X007945Y000560D01*
X007947Y000561D01*
X007951Y000563D01*
X007955Y000564D01*
X007960Y000565D01*
X007966Y000566D01*
X007971Y000566D01*
X007974D01*
X007978Y000566D01*
X007982Y000565D01*
X007987Y000564D01*
X007991Y000563D01*
X007996Y000561D01*
X008001Y000558D01*
X008002Y000558D01*
X008003Y000557D01*
X008005Y000556D01*
X008007Y000553D01*
X008010Y000550D01*
X008013Y000546D01*
X008015Y000542D01*
X008017Y000537D01*
X008018Y000538D01*
X008018Y000539D01*
X008019Y000540D01*
X008021Y000542D01*
X008023Y000544D01*
X008025Y000546D01*
X008028Y000549D01*
X008031Y000552D01*
X008035Y000555D01*
X008038Y000557D01*
X008042Y000559D01*
X008047Y000562D01*
X008052Y000564D01*
X008057Y000565D01*
X008062Y000566D01*
X008068Y000566D01*
X008070D01*
X008072Y000566D01*
D02*
G37*
%LPC*%
G36*
X011034Y000482D02*
X011033D01*
X011033Y000481D01*
X011032Y000481D01*
X011031Y000481D01*
X011029Y000480D01*
X011027Y000479D01*
X011025Y000479D01*
X011022Y000478D01*
X011019Y000477D01*
X011016Y000476D01*
X011012Y000475D01*
X011008Y000475D01*
X011003Y000474D01*
X010999Y000473D01*
X010994Y000472D01*
X010988Y000471D01*
X010987D01*
X010986Y000471D01*
X010982Y000470D01*
X010979Y000469D01*
X010975Y000469D01*
X010971Y000468D01*
X010967Y000467D01*
X010964Y000465D01*
X010964D01*
X010963Y000465D01*
X010962Y000464D01*
X010960Y000463D01*
X010956Y000461D01*
X010953Y000457D01*
Y000456D01*
X010953Y000456D01*
X010952Y000454D01*
X010952Y000453D01*
X010951Y000451D01*
X010950Y000449D01*
X010950Y000446D01*
X010950Y000444D01*
Y000443D01*
Y000442D01*
X010950Y000440D01*
X010951Y000437D01*
X010952Y000434D01*
X010953Y000431D01*
X010955Y000428D01*
X010958Y000425D01*
X010958Y000425D01*
X010959Y000424D01*
X010961Y000423D01*
X010964Y000422D01*
X010967Y000420D01*
X010972Y000419D01*
X010976Y000418D01*
X010982Y000418D01*
X010985D01*
X010988Y000418D01*
X010992Y000419D01*
X010996Y000420D01*
X011001Y000421D01*
X011006Y000423D01*
X011011Y000425D01*
X011011Y000425D01*
X011012Y000426D01*
X011015Y000428D01*
X011017Y000430D01*
X011020Y000433D01*
X011023Y000436D01*
X011026Y000440D01*
X011029Y000444D01*
X011029Y000444D01*
X011029Y000446D01*
X011030Y000448D01*
X011031Y000451D01*
X011032Y000455D01*
X011033Y000459D01*
X011033Y000465D01*
X011033Y000471D01*
X011034Y000482D01*
D02*
G37*
G36*
X007270D02*
X007270D01*
X007270Y000481D01*
X007269Y000481D01*
X007267Y000481D01*
X007266Y000480D01*
X007264Y000479D01*
X007261Y000479D01*
X007259Y000478D01*
X007256Y000477D01*
X007252Y000476D01*
X007249Y000475D01*
X007245Y000475D01*
X007240Y000474D01*
X007236Y000473D01*
X007230Y000472D01*
X007225Y000471D01*
X007224D01*
X007222Y000471D01*
X007219Y000470D01*
X007215Y000469D01*
X007212Y000469D01*
X007208Y000468D01*
X007204Y000467D01*
X007201Y000465D01*
X007201D01*
X007200Y000465D01*
X007198Y000464D01*
X007197Y000463D01*
X007193Y000461D01*
X007190Y000457D01*
Y000456D01*
X007189Y000456D01*
X007189Y000454D01*
X007188Y000453D01*
X007188Y000451D01*
X007187Y000449D01*
X007187Y000446D01*
X007186Y000444D01*
Y000443D01*
Y000442D01*
X007187Y000440D01*
X007187Y000437D01*
X007188Y000434D01*
X007190Y000431D01*
X007192Y000428D01*
X007194Y000425D01*
X007195Y000425D01*
X007196Y000424D01*
X007198Y000423D01*
X007201Y000422D01*
X007204Y000420D01*
X007208Y000419D01*
X007213Y000418D01*
X007219Y000418D01*
X007222D01*
X007225Y000418D01*
X007228Y000419D01*
X007233Y000420D01*
X007238Y000421D01*
X007242Y000423D01*
X007247Y000425D01*
X007248Y000425D01*
X007249Y000426D01*
X007251Y000428D01*
X007254Y000430D01*
X007257Y000433D01*
X007260Y000436D01*
X007263Y000440D01*
X007265Y000444D01*
X007266Y000444D01*
X007266Y000446D01*
X007267Y000448D01*
X007268Y000451D01*
X007269Y000455D01*
X007269Y000459D01*
X007270Y000465D01*
X007270Y000471D01*
X007270Y000482D01*
D02*
G37*
G36*
X011605Y000602D02*
X011603D01*
X011601Y000602D01*
X011598Y000602D01*
X011594Y000601D01*
X011589Y000599D01*
X011584Y000596D01*
X011581Y000594D01*
X011578Y000592D01*
X011576Y000589D01*
X011574Y000586D01*
Y000586D01*
X011573Y000585D01*
X011573Y000584D01*
X011572Y000582D01*
X011571Y000580D01*
X011569Y000577D01*
X011568Y000573D01*
X011567Y000569D01*
X011566Y000564D01*
X011565Y000559D01*
X011563Y000553D01*
X011562Y000546D01*
X011561Y000538D01*
X011561Y000530D01*
X011560Y000521D01*
X011560Y000510D01*
Y000510D01*
Y000508D01*
Y000505D01*
X011560Y000501D01*
Y000497D01*
X011561Y000492D01*
X011561Y000487D01*
X011562Y000481D01*
X011563Y000468D01*
X011564Y000462D01*
X011566Y000456D01*
X011567Y000451D01*
X011569Y000445D01*
X011571Y000441D01*
X011573Y000437D01*
Y000437D01*
X011574Y000436D01*
X011575Y000434D01*
X011578Y000431D01*
X011582Y000428D01*
X011587Y000425D01*
X011592Y000422D01*
X011598Y000419D01*
X011601Y000419D01*
X011605Y000419D01*
X011607D01*
X011608Y000419D01*
X011612Y000420D01*
X011616Y000421D01*
X011621Y000423D01*
X011626Y000427D01*
X011629Y000429D01*
X011632Y000431D01*
X011634Y000434D01*
X011637Y000437D01*
Y000437D01*
X011637Y000438D01*
X011638Y000439D01*
X011639Y000441D01*
X011640Y000443D01*
X011641Y000446D01*
X011642Y000449D01*
X011644Y000453D01*
X011645Y000458D01*
X011646Y000463D01*
X011647Y000469D01*
X011648Y000475D01*
X011649Y000483D01*
X011649Y000491D01*
X011650Y000500D01*
Y000510D01*
Y000511D01*
Y000511D01*
Y000513D01*
Y000516D01*
X011650Y000520D01*
Y000524D01*
X011649Y000529D01*
X011649Y000534D01*
X011648Y000541D01*
X011647Y000553D01*
X011646Y000559D01*
X011645Y000565D01*
X011643Y000570D01*
X011641Y000576D01*
X011639Y000580D01*
X011637Y000584D01*
Y000584D01*
X011636Y000585D01*
X011636Y000586D01*
X011635Y000587D01*
X011632Y000590D01*
X011628Y000593D01*
X011624Y000597D01*
X011618Y000600D01*
X011615Y000601D01*
X011612Y000602D01*
X011608Y000602D01*
X011605Y000602D01*
D02*
G37*
G36*
X010778Y007639D02*
X010775D01*
X010773Y007638D01*
X010768Y007637D01*
X010762Y007636D01*
X010755Y007633D01*
X010748Y007629D01*
X010744Y007626D01*
X010740Y007624D01*
X010737Y007620D01*
X010734Y007616D01*
Y007615D01*
X010733Y007614D01*
X010732Y007612D01*
X010731Y007610D01*
X010729Y007606D01*
X010727Y007602D01*
X010726Y007597D01*
X010724Y007591D01*
X010722Y007584D01*
X010720Y007576D01*
X010719Y007568D01*
X010717Y007558D01*
X010716Y007547D01*
X010715Y007535D01*
X010714Y007522D01*
X010714Y007508D01*
Y007507D01*
Y007504D01*
Y007500D01*
X010714Y007495D01*
Y007489D01*
X010715Y007481D01*
X010715Y007473D01*
X010716Y007465D01*
X010719Y007447D01*
X010720Y007438D01*
X010722Y007430D01*
X010724Y007422D01*
X010726Y007415D01*
X010729Y007408D01*
X010732Y007403D01*
Y007402D01*
X010733Y007402D01*
X010736Y007399D01*
X010740Y007394D01*
X010745Y007390D01*
X010752Y007385D01*
X010760Y007381D01*
X010768Y007378D01*
X010773Y007377D01*
X010778Y007377D01*
X010781D01*
X010783Y007377D01*
X010787Y007378D01*
X010794Y007380D01*
X010801Y007383D01*
X010809Y007388D01*
X010812Y007391D01*
X010816Y007394D01*
X010820Y007398D01*
X010823Y007403D01*
Y007403D01*
X010824Y007404D01*
X010825Y007405D01*
X010826Y007408D01*
X010828Y007411D01*
X010829Y007415D01*
X010831Y007420D01*
X010833Y007425D01*
X010835Y007432D01*
X010836Y007440D01*
X010838Y007448D01*
X010840Y007458D01*
X010841Y007469D01*
X010841Y007480D01*
X010842Y007493D01*
Y007508D01*
Y007508D01*
Y007508D01*
Y007511D01*
Y007515D01*
X010842Y007520D01*
Y007526D01*
X010841Y007534D01*
X010841Y007542D01*
X010840Y007551D01*
X010838Y007568D01*
X010836Y007577D01*
X010835Y007585D01*
X010833Y007593D01*
X010830Y007600D01*
X010827Y007607D01*
X010824Y007612D01*
Y007613D01*
X010823Y007613D01*
X010822Y007615D01*
X010821Y007617D01*
X010817Y007621D01*
X010811Y007626D01*
X010805Y007630D01*
X010797Y007635D01*
X010793Y007636D01*
X010788Y007638D01*
X010783Y007638D01*
X010778Y007639D01*
D02*
G37*
G36*
X011172Y007606D02*
X011072Y007463D01*
X011172D01*
Y007606D01*
D02*
G37*
G36*
X009334Y007632D02*
X009243D01*
Y007518D01*
X009328D01*
X009332Y007518D01*
X009335D01*
X009339Y007519D01*
X009347Y007520D01*
X009357Y007521D01*
X009367Y007524D01*
X009376Y007528D01*
X009380Y007530D01*
X009383Y007533D01*
X009384Y007534D01*
X009386Y007536D01*
X009388Y007539D01*
X009392Y007544D01*
X009395Y007550D01*
X009398Y007557D01*
X009400Y007566D01*
X009401Y007575D01*
Y007576D01*
Y007576D01*
Y007579D01*
X009400Y007583D01*
X009399Y007587D01*
X009398Y007593D01*
X009396Y007599D01*
X009394Y007604D01*
X009390Y007610D01*
X009390Y007610D01*
X009388Y007612D01*
X009386Y007614D01*
X009383Y007617D01*
X009379Y007621D01*
X009375Y007624D01*
X009370Y007626D01*
X009364Y007629D01*
X009363D01*
X009361Y007629D01*
X009358Y007630D01*
X009355Y007630D01*
X009349Y007631D01*
X009342Y007631D01*
X009334Y007632D01*
D02*
G37*
G36*
X010598Y000482D02*
X010597D01*
X010597Y000481D01*
X010596Y000481D01*
X010595Y000481D01*
X010593Y000480D01*
X010591Y000479D01*
X010589Y000479D01*
X010586Y000478D01*
X010583Y000477D01*
X010580Y000476D01*
X010576Y000475D01*
X010572Y000475D01*
X010568Y000474D01*
X010563Y000473D01*
X010558Y000472D01*
X010552Y000471D01*
X010552D01*
X010550Y000471D01*
X010547Y000470D01*
X010543Y000469D01*
X010539Y000469D01*
X010535Y000468D01*
X010532Y000467D01*
X010528Y000465D01*
X010528D01*
X010527Y000465D01*
X010526Y000464D01*
X010525Y000463D01*
X010521Y000461D01*
X010517Y000457D01*
Y000456D01*
X010517Y000456D01*
X010516Y000454D01*
X010516Y000453D01*
X010515Y000451D01*
X010514Y000449D01*
X010514Y000446D01*
X010514Y000444D01*
Y000443D01*
Y000442D01*
X010514Y000440D01*
X010515Y000437D01*
X010516Y000434D01*
X010517Y000431D01*
X010519Y000428D01*
X010522Y000425D01*
X010522Y000425D01*
X010524Y000424D01*
X010525Y000423D01*
X010528Y000422D01*
X010532Y000420D01*
X010536Y000419D01*
X010541Y000418D01*
X010547Y000418D01*
X010549D01*
X010552Y000418D01*
X010556Y000419D01*
X010560Y000420D01*
X010565Y000421D01*
X010570Y000423D01*
X010575Y000425D01*
X010575Y000425D01*
X010577Y000426D01*
X010579Y000428D01*
X010582Y000430D01*
X010584Y000433D01*
X010588Y000436D01*
X010590Y000440D01*
X010593Y000444D01*
X010593Y000444D01*
X010594Y000446D01*
X010594Y000448D01*
X010595Y000451D01*
X010596Y000455D01*
X010597Y000459D01*
X010597Y000465D01*
X010597Y000471D01*
X010598Y000482D01*
D02*
G37*
G36*
X002199Y003173D02*
X002189D01*
X002187Y003173D01*
X002184D01*
X002180Y003172D01*
X002173Y003171D01*
X002164Y003169D01*
X002155Y003167D01*
X002147Y003163D01*
X002143Y003161D01*
X002139Y003158D01*
Y003158D01*
X002138Y003157D01*
X002137Y003156D01*
X002134Y003152D01*
X002131Y003148D01*
X002127Y003143D01*
X002124Y003137D01*
X002123Y003130D01*
X002122Y003126D01*
X002122Y003123D01*
Y003122D01*
Y003122D01*
Y003121D01*
X002122Y003119D01*
X002123Y003115D01*
X002124Y003110D01*
X002126Y003105D01*
X002129Y003099D01*
X002133Y003093D01*
X002136Y003090D01*
X002138Y003088D01*
X002139D01*
X002139Y003087D01*
X002140Y003086D01*
X002142Y003085D01*
X002144Y003084D01*
X002146Y003083D01*
X002148Y003082D01*
X002151Y003080D01*
X002155Y003079D01*
X002158Y003078D01*
X002163Y003076D01*
X002167Y003075D01*
X002173Y003074D01*
X002178Y003073D01*
X002184Y003073D01*
X002194D01*
X002196Y003073D01*
X002199D01*
X002203Y003073D01*
X002207Y003074D01*
X002211Y003075D01*
X002220Y003076D01*
X002229Y003079D01*
X002238Y003083D01*
X002242Y003085D01*
X002246Y003088D01*
X002246D01*
X002247Y003088D01*
X002249Y003090D01*
X002252Y003093D01*
X002255Y003097D01*
X002258Y003103D01*
X002261Y003109D01*
X002263Y003116D01*
X002264Y003120D01*
X002264Y003124D01*
Y003124D01*
Y003124D01*
Y003126D01*
X002264Y003127D01*
X002263Y003131D01*
X002262Y003136D01*
X002260Y003142D01*
X002257Y003147D01*
X002252Y003153D01*
X002249Y003156D01*
X002247Y003159D01*
X002246D01*
X002246Y003160D01*
X002245Y003160D01*
X002243Y003161D01*
X002241Y003162D01*
X002239Y003163D01*
X002237Y003164D01*
X002234Y003166D01*
X002230Y003167D01*
X002226Y003169D01*
X002221Y003170D01*
X002217Y003171D01*
X002211Y003171D01*
X002205Y003172D01*
X002199Y003173D01*
D02*
G37*
G36*
X002211Y003369D02*
Y003265D01*
X002212D01*
X002213Y003265D01*
X002214D01*
X002219Y003266D01*
X002224Y003267D01*
X002229Y003269D01*
X002235Y003271D01*
X002241Y003274D01*
X002245Y003277D01*
X002246D01*
X002246Y003278D01*
X002248Y003280D01*
X002251Y003283D01*
X002255Y003288D01*
X002258Y003293D01*
X002261Y003300D01*
X002263Y003308D01*
X002264Y003312D01*
X002264Y003316D01*
Y003317D01*
Y003317D01*
Y003318D01*
X002264Y003320D01*
X002263Y003324D01*
X002262Y003329D01*
X002260Y003335D01*
X002258Y003341D01*
X002254Y003347D01*
X002249Y003353D01*
X002248Y003354D01*
X002247Y003355D01*
X002243Y003358D01*
X002239Y003360D01*
X002234Y003363D01*
X002227Y003366D01*
X002219Y003368D01*
X002211Y003369D01*
D02*
G37*
G36*
X010059Y007555D02*
X010057D01*
X010055Y007554D01*
X010050Y007554D01*
X010044Y007552D01*
X010036Y007550D01*
X010028Y007547D01*
X010021Y007542D01*
X010014Y007536D01*
X010013Y007535D01*
X010011Y007533D01*
X010008Y007529D01*
X010004Y007523D01*
X010001Y007517D01*
X009997Y007508D01*
X009995Y007499D01*
X009993Y007488D01*
X010123D01*
Y007489D01*
Y007490D01*
X010123Y007491D01*
Y007493D01*
X010122Y007498D01*
X010120Y007504D01*
X010118Y007512D01*
X010116Y007519D01*
X010112Y007526D01*
X010108Y007532D01*
Y007532D01*
X010107Y007532D01*
X010105Y007535D01*
X010100Y007539D01*
X010095Y007543D01*
X010088Y007547D01*
X010080Y007551D01*
X010070Y007554D01*
X010065Y007554D01*
X010059Y007555D01*
D02*
G37*
G36*
X002200Y004988D02*
X002190D01*
X002187Y004988D01*
X002184D01*
X002181Y004987D01*
X002173Y004986D01*
X002164Y004984D01*
X002156Y004982D01*
X002147Y004978D01*
X002143Y004976D01*
X002140Y004973D01*
X002139Y004973D01*
X002139Y004973D01*
X002137Y004971D01*
X002134Y004967D01*
X002131Y004963D01*
X002127Y004958D01*
X002125Y004952D01*
X002123Y004945D01*
X002122Y004941D01*
X002122Y004937D01*
Y004937D01*
Y004936D01*
Y004935D01*
X002122Y004934D01*
X002123Y004930D01*
X002124Y004925D01*
X002126Y004920D01*
X002129Y004914D01*
X002133Y004908D01*
X002136Y004905D01*
X002139Y004903D01*
X002139D01*
X002140Y004902D01*
X002141Y004901D01*
X002142Y004900D01*
X002144Y004899D01*
X002146Y004898D01*
X002149Y004897D01*
X002152Y004895D01*
X002155Y004894D01*
X002159Y004893D01*
X002163Y004891D01*
X002168Y004890D01*
X002173Y004889D01*
X002178Y004889D01*
X002184Y004888D01*
X002194D01*
X002197Y004888D01*
X002200D01*
X002203Y004889D01*
X002207Y004889D01*
X002211Y004890D01*
X002220Y004892D01*
X002229Y004895D01*
X002238Y004898D01*
X002242Y004901D01*
X002246Y004903D01*
X002247D01*
X002247Y004904D01*
X002249Y004906D01*
X002252Y004909D01*
X002256Y004913D01*
X002259Y004919D01*
X002262Y004925D01*
X002264Y004932D01*
X002265Y004936D01*
X002265Y004939D01*
Y004940D01*
Y004940D01*
Y004941D01*
X002265Y004943D01*
X002264Y004946D01*
X002263Y004951D01*
X002261Y004957D01*
X002258Y004963D01*
X002254Y004969D01*
X002251Y004971D01*
X002248Y004974D01*
X002247D01*
X002247Y004975D01*
X002246Y004975D01*
X002244Y004976D01*
X002242Y004977D01*
X002240Y004979D01*
X002238Y004980D01*
X002234Y004981D01*
X002231Y004983D01*
X002227Y004984D01*
X002222Y004985D01*
X002217Y004986D01*
X002212Y004987D01*
X002206Y004987D01*
X002200Y004988D01*
D02*
G37*
G36*
X011176Y000544D02*
X011171D01*
X011170Y000543D01*
X011166Y000543D01*
X011162Y000542D01*
X011157Y000540D01*
X011152Y000537D01*
X011149Y000535D01*
X011147Y000533D01*
X011144Y000531D01*
X011141Y000528D01*
Y000527D01*
X011141Y000527D01*
X011140Y000526D01*
X011139Y000525D01*
X011138Y000523D01*
X011137Y000521D01*
X011136Y000519D01*
X011135Y000516D01*
X011134Y000513D01*
X011133Y000510D01*
X011131Y000506D01*
X011130Y000502D01*
X011130Y000498D01*
X011129Y000493D01*
X011128Y000488D01*
Y000482D01*
Y000482D01*
Y000481D01*
Y000479D01*
Y000477D01*
X011129Y000475D01*
Y000472D01*
X011129Y000466D01*
X011130Y000459D01*
X011132Y000452D01*
X011134Y000446D01*
X011135Y000443D01*
X011136Y000440D01*
Y000440D01*
X011137Y000439D01*
X011138Y000438D01*
X011138Y000437D01*
X011141Y000433D01*
X011146Y000430D01*
X011150Y000426D01*
X011157Y000422D01*
X011160Y000421D01*
X011164Y000420D01*
X011167Y000419D01*
X011172Y000419D01*
X011173D01*
X011174Y000419D01*
X011178Y000420D01*
X011182Y000421D01*
X011187Y000423D01*
X011192Y000426D01*
X011197Y000429D01*
X011200Y000432D01*
X011203Y000435D01*
Y000435D01*
X011203Y000435D01*
X011204Y000436D01*
X011205Y000438D01*
X011206Y000439D01*
X011207Y000441D01*
X011208Y000444D01*
X011209Y000446D01*
X011210Y000450D01*
X011212Y000453D01*
X011213Y000457D01*
X011214Y000461D01*
X011215Y000465D01*
X011215Y000470D01*
X011216Y000476D01*
Y000481D01*
Y000482D01*
Y000483D01*
Y000484D01*
X011216Y000487D01*
Y000489D01*
X011215Y000492D01*
X011214Y000499D01*
X011213Y000507D01*
X011211Y000515D01*
X011207Y000522D01*
X011206Y000525D01*
X011203Y000528D01*
Y000529D01*
X011203Y000529D01*
X011201Y000531D01*
X011198Y000533D01*
X011195Y000536D01*
X011190Y000539D01*
X011185Y000541D01*
X011179Y000543D01*
X011176Y000544D01*
D02*
G37*
G36*
X002150Y005185D02*
X002148D01*
X002146Y005185D01*
X002143Y005184D01*
X002139Y005183D01*
X002136Y005181D01*
X002132Y005179D01*
X002129Y005176D01*
X002128Y005176D01*
X002128Y005174D01*
X002126Y005172D01*
X002125Y005169D01*
X002123Y005165D01*
X002122Y005160D01*
X002121Y005155D01*
X002121Y005148D01*
Y005148D01*
Y005147D01*
Y005145D01*
X002121Y005141D01*
X002122Y005137D01*
X002123Y005132D01*
X002124Y005127D01*
X002126Y005121D01*
X002128Y005116D01*
X002129Y005115D01*
X002130Y005114D01*
X002132Y005111D01*
X002134Y005108D01*
X002137Y005105D01*
X002141Y005101D01*
X002146Y005098D01*
X002150Y005095D01*
X002151Y005095D01*
X002152Y005094D01*
X002155Y005094D01*
X002158Y005093D01*
X002163Y005091D01*
X002168Y005091D01*
X002174Y005090D01*
X002181Y005090D01*
X002193Y005090D01*
Y005090D01*
X002193Y005090D01*
X002192Y005091D01*
X002192Y005093D01*
X002191Y005095D01*
X002191Y005097D01*
X002190Y005100D01*
X002189Y005103D01*
X002188Y005106D01*
X002187Y005110D01*
X002186Y005114D01*
X002185Y005119D01*
X002184Y005124D01*
X002183Y005129D01*
X002182Y005135D01*
X002181Y005141D01*
Y005142D01*
Y005142D01*
X002181Y005144D01*
X002180Y005148D01*
X002179Y005152D01*
X002178Y005157D01*
X002177Y005161D01*
X002176Y005165D01*
X002175Y005169D01*
Y005169D01*
X002174Y005170D01*
X002173Y005172D01*
X002172Y005173D01*
X002169Y005178D01*
X002165Y005181D01*
X002164D01*
X002164Y005182D01*
X002162Y005182D01*
X002160Y005183D01*
X002158Y005184D01*
X002156Y005185D01*
X002153Y005185D01*
X002150Y005185D01*
D02*
G37*
G36*
X010142Y000544D02*
X010140D01*
X010139Y000543D01*
X010135Y000543D01*
X010131Y000542D01*
X010126Y000540D01*
X010120Y000538D01*
X010115Y000535D01*
X010110Y000531D01*
X010109Y000530D01*
X010108Y000528D01*
X010106Y000525D01*
X010104Y000521D01*
X010101Y000517D01*
X010099Y000511D01*
X010097Y000504D01*
X010096Y000497D01*
X010187D01*
Y000497D01*
Y000498D01*
X010187Y000499D01*
Y000500D01*
X010186Y000504D01*
X010185Y000508D01*
X010183Y000513D01*
X010182Y000518D01*
X010179Y000523D01*
X010176Y000527D01*
Y000528D01*
X010176Y000528D01*
X010174Y000530D01*
X010171Y000533D01*
X010167Y000535D01*
X010162Y000538D01*
X010156Y000541D01*
X010150Y000543D01*
X010146Y000543D01*
X010142Y000544D01*
D02*
G37*
G36*
X008904D02*
X008899D01*
X008897Y000543D01*
X008894Y000543D01*
X008890Y000542D01*
X008884Y000540D01*
X008879Y000537D01*
X008874Y000533D01*
X008871Y000531D01*
X008869Y000528D01*
Y000528D01*
X008868Y000528D01*
X008868Y000527D01*
X008867Y000525D01*
X008866Y000524D01*
X008865Y000522D01*
X008864Y000520D01*
X008863Y000517D01*
X008861Y000514D01*
X008860Y000511D01*
X008859Y000507D01*
X008858Y000503D01*
X008858Y000499D01*
X008857Y000494D01*
X008856Y000489D01*
Y000484D01*
Y000484D01*
Y000483D01*
Y000481D01*
X008857Y000479D01*
Y000476D01*
X008857Y000473D01*
X008858Y000466D01*
X008859Y000458D01*
X008861Y000451D01*
X008865Y000443D01*
X008867Y000440D01*
X008869Y000437D01*
X008870Y000437D01*
X008871Y000435D01*
X008874Y000433D01*
X008878Y000430D01*
X008882Y000427D01*
X008888Y000425D01*
X008894Y000423D01*
X008897Y000423D01*
X008901Y000423D01*
X008903D01*
X008904Y000423D01*
X008907Y000423D01*
X008912Y000425D01*
X008917Y000426D01*
X008922Y000429D01*
X008928Y000432D01*
X008930Y000435D01*
X008933Y000437D01*
Y000438D01*
X008933Y000438D01*
X008934Y000439D01*
X008935Y000440D01*
X008936Y000441D01*
X008937Y000443D01*
X008938Y000446D01*
X008939Y000449D01*
X008940Y000452D01*
X008941Y000455D01*
X008943Y000459D01*
X008944Y000463D01*
X008944Y000467D01*
X008945Y000472D01*
X008946Y000477D01*
Y000483D01*
Y000483D01*
Y000484D01*
Y000486D01*
X008945Y000488D01*
Y000490D01*
X008945Y000493D01*
X008944Y000500D01*
X008942Y000507D01*
X008940Y000515D01*
X008937Y000522D01*
X008935Y000525D01*
X008932Y000528D01*
Y000529D01*
X008932Y000529D01*
X008930Y000531D01*
X008927Y000533D01*
X008923Y000536D01*
X008919Y000539D01*
X008913Y000541D01*
X008907Y000543D01*
X008904Y000544D01*
D02*
G37*
G36*
X010311D02*
X010309D01*
X010308Y000543D01*
X010304Y000543D01*
X010300Y000542D01*
X010295Y000540D01*
X010290Y000537D01*
X010285Y000533D01*
X010282Y000531D01*
X010280Y000528D01*
Y000528D01*
X010279Y000528D01*
X010279Y000527D01*
X010278Y000525D01*
X010277Y000524D01*
X010276Y000522D01*
X010275Y000520D01*
X010274Y000517D01*
X010272Y000514D01*
X010271Y000510D01*
X010270Y000506D01*
X010270Y000502D01*
X010269Y000498D01*
X010268Y000492D01*
X010268Y000487D01*
Y000481D01*
Y000481D01*
Y000480D01*
Y000478D01*
X010268Y000476D01*
Y000473D01*
X010268Y000470D01*
X010269Y000463D01*
X010271Y000456D01*
X010273Y000448D01*
X010276Y000441D01*
X010278Y000438D01*
X010281Y000434D01*
X010281D01*
X010281Y000434D01*
X010283Y000432D01*
X010286Y000429D01*
X010289Y000427D01*
X010294Y000424D01*
X010299Y000421D01*
X010305Y000420D01*
X010308Y000419D01*
X010312Y000419D01*
X010313D01*
X010315Y000419D01*
X010318Y000420D01*
X010322Y000421D01*
X010327Y000423D01*
X010332Y000425D01*
X010338Y000429D01*
X010340Y000431D01*
X010342Y000434D01*
Y000434D01*
X010343Y000434D01*
X010344Y000435D01*
X010344Y000437D01*
X010345Y000438D01*
X010347Y000440D01*
X010348Y000442D01*
X010349Y000445D01*
X010350Y000448D01*
X010351Y000451D01*
X010352Y000455D01*
X010353Y000459D01*
X010354Y000463D01*
X010355Y000468D01*
X010355Y000473D01*
Y000479D01*
Y000479D01*
Y000480D01*
Y000482D01*
X010355Y000484D01*
Y000487D01*
X010355Y000490D01*
X010354Y000494D01*
X010354Y000498D01*
X010352Y000505D01*
X010350Y000513D01*
X010347Y000521D01*
X010345Y000524D01*
X010342Y000528D01*
Y000528D01*
X010342Y000528D01*
X010340Y000530D01*
X010337Y000533D01*
X010334Y000536D01*
X010329Y000539D01*
X010324Y000541D01*
X010317Y000543D01*
X010314Y000543D01*
X010311Y000544D01*
D02*
G37*
G36*
X006831D02*
X006829D01*
X006828Y000543D01*
X006824Y000543D01*
X006819Y000542D01*
X006814Y000540D01*
X006808Y000537D01*
X006802Y000533D01*
X006799Y000531D01*
X006797Y000528D01*
Y000528D01*
X006796Y000527D01*
X006796Y000526D01*
X006795Y000525D01*
X006794Y000523D01*
X006793Y000521D01*
X006791Y000519D01*
X006790Y000516D01*
X006789Y000513D01*
X006787Y000510D01*
X006787Y000506D01*
X006786Y000502D01*
X006785Y000497D01*
X006784Y000492D01*
X006784Y000487D01*
X006783Y000481D01*
Y000481D01*
Y000480D01*
Y000478D01*
X006784Y000476D01*
Y000474D01*
X006784Y000471D01*
X006785Y000464D01*
X006787Y000456D01*
X006789Y000448D01*
X006792Y000441D01*
X006795Y000438D01*
X006797Y000434D01*
X006797D01*
X006798Y000434D01*
X006799Y000432D01*
X006802Y000429D01*
X006806Y000427D01*
X006811Y000424D01*
X006817Y000421D01*
X006824Y000420D01*
X006827Y000419D01*
X006831Y000419D01*
X006833D01*
X006835Y000419D01*
X006838Y000420D01*
X006843Y000421D01*
X006848Y000423D01*
X006854Y000426D01*
X006860Y000429D01*
X006863Y000432D01*
X006865Y000435D01*
X006866Y000435D01*
X006866Y000435D01*
X006867Y000436D01*
X006868Y000438D01*
X006868Y000439D01*
X006870Y000441D01*
X006871Y000444D01*
X006872Y000446D01*
X006874Y000450D01*
X006875Y000453D01*
X006876Y000457D01*
X006877Y000461D01*
X006878Y000466D01*
X006879Y000471D01*
X006879Y000476D01*
Y000482D01*
Y000483D01*
Y000484D01*
Y000485D01*
X006879Y000487D01*
Y000490D01*
X006879Y000493D01*
X006878Y000499D01*
X006876Y000507D01*
X006873Y000514D01*
X006870Y000521D01*
X006868Y000525D01*
X006865Y000528D01*
Y000528D01*
X006865Y000529D01*
X006863Y000531D01*
X006860Y000533D01*
X006856Y000536D01*
X006851Y000539D01*
X006845Y000541D01*
X006839Y000543D01*
X006835Y000543D01*
X006831Y000544D01*
D02*
G37*
G36*
X002176Y004237D02*
X002174D01*
X002172Y004237D01*
X002168Y004237D01*
X002162Y004236D01*
X002156Y004235D01*
X002150Y004233D01*
X002144Y004230D01*
X002138Y004226D01*
X002138Y004226D01*
X002137Y004224D01*
X002134Y004222D01*
X002132Y004219D01*
X002130Y004215D01*
X002128Y004210D01*
X002126Y004206D01*
X002126Y004200D01*
Y004200D01*
Y004198D01*
X002126Y004196D01*
X002126Y004194D01*
X002127Y004191D01*
X002128Y004188D01*
X002129Y004184D01*
X002131Y004180D01*
X002131Y004179D01*
X002132Y004178D01*
X002134Y004176D01*
X002136Y004173D01*
X002138Y004170D01*
X002141Y004166D01*
X002144Y004163D01*
X002148Y004159D01*
X002149Y004159D01*
X002151Y004157D01*
X002153Y004156D01*
X002157Y004153D01*
X002161Y004151D01*
X002166Y004148D01*
X002172Y004145D01*
X002178Y004143D01*
X002178D01*
X002179Y004142D01*
X002181Y004142D01*
X002185Y004141D01*
X002189Y004139D01*
X002195Y004138D01*
X002201Y004137D01*
X002207Y004136D01*
X002214Y004136D01*
X002218D01*
X002222Y004137D01*
X002227Y004138D01*
X002233Y004139D01*
X002239Y004141D01*
X002245Y004144D01*
X002251Y004148D01*
X002251Y004148D01*
X002253Y004150D01*
X002255Y004153D01*
X002257Y004156D01*
X002260Y004160D01*
X002262Y004165D01*
X002263Y004170D01*
X002264Y004177D01*
Y004177D01*
Y004179D01*
X002264Y004181D01*
X002263Y004184D01*
X002262Y004187D01*
X002261Y004191D01*
X002260Y004195D01*
X002258Y004198D01*
X002258Y004199D01*
X002257Y004200D01*
X002255Y004202D01*
X002254Y004204D01*
X002251Y004207D01*
X002248Y004210D01*
X002244Y004214D01*
X002240Y004217D01*
X002239Y004217D01*
X002238Y004219D01*
X002235Y004220D01*
X002231Y004222D01*
X002227Y004225D01*
X002222Y004227D01*
X002216Y004230D01*
X002209Y004232D01*
X002209D01*
X002208Y004232D01*
X002206Y004233D01*
X002202Y004234D01*
X002198Y004234D01*
X002193Y004236D01*
X002187Y004237D01*
X002182Y004237D01*
X002176Y004237D01*
D02*
G37*
G36*
X002200Y004503D02*
X002188D01*
X002186Y004503D01*
X002183D01*
X002175Y004502D01*
X002168Y004501D01*
X002160Y004500D01*
X002152Y004498D01*
X002149Y004496D01*
X002146Y004495D01*
X002146D01*
X002145Y004494D01*
X002144Y004493D01*
X002142Y004492D01*
X002138Y004489D01*
X002134Y004484D01*
X002130Y004478D01*
X002126Y004471D01*
X002124Y004468D01*
X002123Y004463D01*
X002122Y004459D01*
X002122Y004454D01*
Y004454D01*
Y004454D01*
Y004452D01*
X002122Y004451D01*
X002123Y004447D01*
X002124Y004442D01*
X002126Y004437D01*
X002129Y004431D01*
X002134Y004425D01*
X002137Y004422D01*
X002140Y004419D01*
X002140D01*
X002140Y004418D01*
X002141Y004417D01*
X002143Y004417D01*
X002145Y004415D01*
X002147Y004414D01*
X002150Y004412D01*
X002153Y004411D01*
X002157Y004410D01*
X002160Y004408D01*
X002165Y004407D01*
X002170Y004406D01*
X002175Y004405D01*
X002180Y004404D01*
X002187Y004404D01*
X002196D01*
X002199Y004404D01*
X002202D01*
X002205Y004404D01*
X002213Y004405D01*
X002222Y004407D01*
X002231Y004410D01*
X002239Y004413D01*
X002243Y004415D01*
X002247Y004418D01*
X002247D01*
X002247Y004419D01*
X002249Y004421D01*
X002252Y004424D01*
X002255Y004428D01*
X002258Y004433D01*
X002261Y004439D01*
X002263Y004446D01*
X002264Y004449D01*
Y004453D01*
Y004454D01*
Y004454D01*
Y004455D01*
X002264Y004457D01*
X002263Y004461D01*
X002262Y004465D01*
X002259Y004471D01*
X002256Y004477D01*
X002254Y004480D01*
X002252Y004483D01*
X002249Y004486D01*
X002246Y004489D01*
X002245D01*
X002245Y004489D01*
X002244Y004490D01*
X002242Y004491D01*
X002241Y004492D01*
X002238Y004493D01*
X002236Y004495D01*
X002233Y004496D01*
X002229Y004498D01*
X002225Y004499D01*
X002221Y004500D01*
X002217Y004501D01*
X002211Y004502D01*
X002206Y004503D01*
X002200Y004503D01*
D02*
G37*
G36*
X008228Y000545D02*
X008227D01*
X008225Y000544D01*
X008222Y000544D01*
X008218Y000543D01*
X008213Y000541D01*
X008208Y000538D01*
X008205Y000536D01*
X008202Y000533D01*
X008200Y000531D01*
X008197Y000528D01*
Y000528D01*
X008197Y000527D01*
X008196Y000526D01*
X008195Y000525D01*
X008194Y000523D01*
X008193Y000521D01*
X008192Y000519D01*
X008191Y000516D01*
X008189Y000513D01*
X008188Y000509D01*
X008187Y000505D01*
X008186Y000501D01*
X008185Y000496D01*
X008185Y000491D01*
X008184Y000486D01*
Y000480D01*
Y000480D01*
Y000479D01*
Y000477D01*
X008184Y000475D01*
Y000473D01*
X008185Y000470D01*
X008186Y000463D01*
X008187Y000455D01*
X008189Y000448D01*
X008192Y000440D01*
X008194Y000437D01*
X008197Y000434D01*
X008197Y000433D01*
X008199Y000432D01*
X008201Y000429D01*
X008205Y000427D01*
X008210Y000424D01*
X008215Y000421D01*
X008221Y000420D01*
X008224Y000419D01*
X008227Y000419D01*
X008229D01*
X008230Y000419D01*
X008234Y000420D01*
X008238Y000421D01*
X008243Y000423D01*
X008248Y000426D01*
X008253Y000429D01*
X008256Y000432D01*
X008258Y000434D01*
Y000435D01*
X008259Y000435D01*
X008260Y000436D01*
X008260Y000437D01*
X008262Y000439D01*
X008263Y000441D01*
X008264Y000443D01*
X008265Y000446D01*
X008266Y000449D01*
X008268Y000453D01*
X008269Y000457D01*
X008270Y000461D01*
X008270Y000466D01*
X008271Y000471D01*
X008272Y000477D01*
Y000483D01*
Y000483D01*
Y000484D01*
Y000486D01*
X008271Y000488D01*
Y000490D01*
X008271Y000493D01*
X008270Y000500D01*
X008268Y000508D01*
X008266Y000515D01*
X008263Y000522D01*
X008261Y000526D01*
X008259Y000529D01*
Y000529D01*
X008258Y000530D01*
X008257Y000532D01*
X008254Y000534D01*
X008250Y000537D01*
X008246Y000540D01*
X008241Y000542D01*
X008235Y000544D01*
X008232Y000544D01*
X008228Y000545D01*
D02*
G37*
G36*
X007789Y000544D02*
X007787D01*
X007786Y000543D01*
X007782Y000543D01*
X007777Y000542D01*
X007772Y000540D01*
X007766Y000537D01*
X007760Y000533D01*
X007758Y000531D01*
X007755Y000528D01*
Y000528D01*
X007754Y000527D01*
X007754Y000526D01*
X007753Y000525D01*
X007752Y000523D01*
X007751Y000521D01*
X007749Y000519D01*
X007748Y000516D01*
X007747Y000513D01*
X007746Y000510D01*
X007745Y000506D01*
X007744Y000502D01*
X007743Y000497D01*
X007742Y000492D01*
X007742Y000487D01*
X007741Y000481D01*
Y000481D01*
Y000480D01*
Y000478D01*
X007742Y000476D01*
Y000474D01*
X007742Y000471D01*
X007743Y000464D01*
X007745Y000456D01*
X007747Y000448D01*
X007750Y000441D01*
X007753Y000438D01*
X007755Y000434D01*
X007755D01*
X007756Y000434D01*
X007758Y000432D01*
X007760Y000429D01*
X007764Y000427D01*
X007769Y000424D01*
X007775Y000421D01*
X007782Y000420D01*
X007785Y000419D01*
X007789Y000419D01*
X007791D01*
X007793Y000419D01*
X007796Y000420D01*
X007801Y000421D01*
X007806Y000423D01*
X007812Y000426D01*
X007818Y000429D01*
X007821Y000432D01*
X007823Y000435D01*
X007824Y000435D01*
X007824Y000435D01*
X007825Y000436D01*
X007826Y000438D01*
X007827Y000439D01*
X007828Y000441D01*
X007829Y000444D01*
X007830Y000446D01*
X007832Y000450D01*
X007833Y000453D01*
X007834Y000457D01*
X007835Y000461D01*
X007836Y000466D01*
X007837Y000471D01*
X007837Y000476D01*
Y000482D01*
Y000483D01*
Y000484D01*
Y000485D01*
X007837Y000487D01*
Y000490D01*
X007837Y000493D01*
X007836Y000499D01*
X007834Y000507D01*
X007831Y000514D01*
X007828Y000521D01*
X007826Y000525D01*
X007823Y000528D01*
Y000528D01*
X007823Y000529D01*
X007821Y000531D01*
X007818Y000533D01*
X007814Y000536D01*
X007809Y000539D01*
X007803Y000541D01*
X007797Y000543D01*
X007793Y000543D01*
X007789Y000544D01*
D02*
G37*
%LPD*%
D18*
X003650Y006100D02*
G03*
X003650Y006100I-000050J000000D01*
G01*
D29*
X004860Y006381D02*
Y006720D01*
X003740Y006381D02*
Y006720D01*
X004194Y006870D02*
X004410D01*
X004311Y001854D02*
X004501Y001657D01*
X004311Y003044D02*
Y003234D01*
X004501D01*
X005691D02*
X005888D01*
Y003044D02*
Y003234D01*
Y001657D02*
Y001854D01*
X005691Y001657D02*
X005888D01*
D30*
X006900Y006800D02*
X012900D01*
Y000800D02*
Y006800D01*
X006900Y000800D02*
X012900D01*
X006900D02*
Y006800D01*
D31*
X004200Y007200D02*
Y007075D01*
X004225Y007050D01*
X004275D01*
X004300Y007075D01*
Y007200D01*
X004350Y007175D02*
X004375Y007200D01*
X004425D01*
X004450Y007175D01*
Y007150D01*
X004425Y007125D01*
X004400D01*
X004425D01*
X004450Y007100D01*
Y007075D01*
X004425Y007050D01*
X004375D01*
X004350Y007075D01*
X005750Y001150D02*
Y001317D01*
X005717Y001350D01*
X005650D01*
X005617Y001317D01*
Y001150D01*
X005417Y001350D02*
X005550D01*
X005417Y001217D01*
Y001183D01*
X005450Y001150D01*
X005517D01*
X005550Y001183D01*
X012000Y007100D02*
Y006933D01*
X012033Y006900D01*
X012100D01*
X012133Y006933D01*
Y007100D01*
X012200Y006900D02*
X012267D01*
X012233D01*
Y007100D01*
X012200Y007067D01*
X005950Y006750D02*
X006150D01*
Y006650D01*
X006117Y006617D01*
X006050D01*
X006017Y006650D01*
Y006750D01*
Y006683D02*
X005950Y006617D01*
Y006450D02*
X006150D01*
X006050Y006550D01*
Y006417D01*
X006000Y007600D02*
X006200D01*
Y007500D01*
X006167Y007467D01*
X006100D01*
X006067Y007500D01*
Y007600D01*
Y007533D02*
X006000Y007467D01*
Y007400D02*
Y007333D01*
Y007367D01*
X006200D01*
X006167Y007400D01*
D32*
X005100Y005300D02*
X004950D01*
Y005375D01*
X004975Y005400D01*
X005025D01*
X005050Y005375D01*
Y005300D01*
Y005350D02*
X005100Y005400D01*
Y005550D02*
Y005450D01*
X005000Y005550D01*
X004975D01*
X004950Y005525D01*
Y005475D01*
X004975Y005450D01*
X006050Y005700D02*
X006250D01*
Y005600D01*
X006217Y005567D01*
X006150D01*
X006117Y005600D01*
Y005700D01*
Y005633D02*
X006050Y005567D01*
X006217Y005500D02*
X006250Y005467D01*
Y005400D01*
X006217Y005367D01*
X006183D01*
X006150Y005400D01*
Y005433D01*
Y005400D01*
X006117Y005367D01*
X006083D01*
X006050Y005400D01*
Y005467D01*
X006083Y005500D01*
D33*
X004419Y005036D02*
X004452Y005003D01*
X004517D01*
X004550Y005036D01*
Y005167D01*
X004517Y005200D01*
X004452D01*
X004419Y005167D01*
X004222Y005200D02*
X004353D01*
X004222Y005069D01*
Y005036D01*
X004255Y005003D01*
X004320D01*
X004353Y005036D01*
X005586Y003631D02*
X005553Y003598D01*
Y003533D01*
X005586Y003500D01*
X005717D01*
X005750Y003533D01*
Y003598D01*
X005717Y003631D01*
X005553Y003697D02*
Y003828D01*
X005586D01*
X005717Y003697D01*
X005750D01*
X004286Y003681D02*
X004253Y003648D01*
Y003583D01*
X004286Y003550D01*
X004417D01*
X004450Y003583D01*
Y003648D01*
X004417Y003681D01*
X004253Y003878D02*
X004286Y003812D01*
X004352Y003747D01*
X004417D01*
X004450Y003780D01*
Y003845D01*
X004417Y003878D01*
X004384D01*
X004352Y003845D01*
Y003747D01*
X003386Y002381D02*
X003353Y002348D01*
Y002283D01*
X003386Y002250D01*
X003517D01*
X003550Y002283D01*
Y002348D01*
X003517Y002381D01*
X003353Y002578D02*
Y002447D01*
X003452D01*
X003419Y002512D01*
Y002545D01*
X003452Y002578D01*
X003517D01*
X003550Y002545D01*
Y002480D01*
X003517Y002447D01*
X006369Y002086D02*
X006402Y002053D01*
X006467D01*
X006500Y002086D01*
Y002217D01*
X006467Y002250D01*
X006402D01*
X006369Y002217D01*
X006205Y002250D02*
Y002053D01*
X006303Y002152D01*
X006172D01*
X005300Y006025D02*
X005325Y006000D01*
X005375D01*
X005400Y006025D01*
Y006125D01*
X005375Y006150D01*
X005325D01*
X005300Y006125D01*
X005250Y006025D02*
X005225Y006000D01*
X005175D01*
X005150Y006025D01*
Y006050D01*
X005175Y006075D01*
X005200D01*
X005175D01*
X005150Y006100D01*
Y006125D01*
X005175Y006150D01*
X005225D01*
X005250Y006125D01*
X004925Y007350D02*
X004900Y007325D01*
Y007275D01*
X004925Y007250D01*
X005025D01*
X005050Y007275D01*
Y007325D01*
X005025Y007350D01*
X005050Y007400D02*
Y007450D01*
Y007425D01*
X004900D01*
X004925Y007400D01*
M02*
