G04 Layer_Color=16711935*
%FSAX24Y24*%
%MOIN*%
G70*
G01*
G75*
%ADD19C,0.0236*%
G04:AMPARAMS|DCode=25|XSize=36mil|YSize=36mil|CornerRadius=18mil|HoleSize=0mil|Usage=FLASHONLY|Rotation=0.000|XOffset=0mil|YOffset=0mil|HoleType=Round|Shape=RoundedRectangle|*
%AMROUNDEDRECTD25*
21,1,0.0360,0.0000,0,0,0.0*
21,1,0.0000,0.0360,0,0,0.0*
1,1,0.0360,0.0000,0.0000*
1,1,0.0360,0.0000,0.0000*
1,1,0.0360,0.0000,0.0000*
1,1,0.0360,0.0000,0.0000*
%
%ADD25ROUNDEDRECTD25*%
%ADD43C,0.0513*%
%ADD44C,0.0350*%
%ADD45C,0.0580*%
%ADD46C,0.0380*%
%ADD47C,0.0161*%
G04:AMPARAMS|DCode=48|XSize=44mil|YSize=44mil|CornerRadius=22mil|HoleSize=0mil|Usage=FLASHONLY|Rotation=0.000|XOffset=0mil|YOffset=0mil|HoleType=Round|Shape=RoundedRectangle|*
%AMROUNDEDRECTD48*
21,1,0.0440,0.0000,0,0,0.0*
21,1,0.0000,0.0440,0,0,0.0*
1,1,0.0440,0.0000,0.0000*
1,1,0.0440,0.0000,0.0000*
1,1,0.0440,0.0000,0.0000*
1,1,0.0440,0.0000,0.0000*
%
%ADD48ROUNDEDRECTD48*%
%ADD49R,0.1080X0.2080*%
%ADD50C,0.3230*%
D19*
X002896Y007313D02*
D03*
D25*
X002384Y007627D02*
D03*
X003416D02*
D03*
D43*
X013839Y003746D02*
D03*
X013850Y002749D02*
D03*
Y004749D02*
D03*
Y005749D02*
D03*
X013861Y001751D02*
D03*
D44*
X006150Y004450D02*
D03*
D45*
X010450Y001900D02*
D03*
X013850Y002750D02*
D03*
X007100Y007200D02*
D03*
D46*
X003450Y003000D02*
D03*
X004400Y001200D02*
D03*
X004150Y007750D02*
D03*
X004900Y004850D02*
D03*
X003100Y002500D02*
D03*
X002650Y005700D02*
D03*
X003100D02*
D03*
X005300Y004150D02*
D03*
D47*
X003176Y007313D02*
G03*
X003176Y007313I-000280J000000D01*
G01*
D48*
X002896Y006273D02*
D03*
X002423D02*
D03*
X003376D02*
D03*
D49*
X012950Y004350D02*
D03*
X003950D02*
D03*
D50*
X008400D02*
D03*
M02*
