G04 Layer_Physical_Order=2*
G04 Layer_Color=16711680*
%FSAX24Y24*%
%MOIN*%
G70*
G01*
G75*
%ADD18C,0.0100*%
%ADD19C,0.0236*%
%ADD20C,0.0433*%
%ADD21C,0.0270*%
%ADD22C,0.0500*%
%ADD23C,0.0300*%
%ADD24C,0.0120*%
G04:AMPARAMS|DCode=25|XSize=36mil|YSize=36mil|CornerRadius=18mil|HoleSize=0mil|Usage=FLASHONLY|Rotation=0.000|XOffset=0mil|YOffset=0mil|HoleType=Round|Shape=RoundedRectangle|*
%AMROUNDEDRECTD25*
21,1,0.0360,0.0000,0,0,0.0*
21,1,0.0000,0.0360,0,0,0.0*
1,1,0.0360,0.0000,0.0000*
1,1,0.0360,0.0000,0.0000*
1,1,0.0360,0.0000,0.0000*
1,1,0.0360,0.0000,0.0000*
%
%ADD25ROUNDEDRECTD25*%
G04:AMPARAMS|DCode=26|XSize=28mil|YSize=28mil|CornerRadius=14mil|HoleSize=0mil|Usage=FLASHONLY|Rotation=0.000|XOffset=0mil|YOffset=0mil|HoleType=Round|Shape=RoundedRectangle|*
%AMROUNDEDRECTD26*
21,1,0.0280,0.0000,0,0,0.0*
21,1,0.0000,0.0280,0,0,0.0*
1,1,0.0280,0.0000,0.0000*
1,1,0.0280,0.0000,0.0000*
1,1,0.0280,0.0000,0.0000*
1,1,0.0280,0.0000,0.0000*
%
%ADD26ROUNDEDRECTD26*%
%ADD27R,0.1000X0.2000*%
%ADD28C,0.3150*%
D18*
X008350Y004450D02*
X008400Y004400D01*
X006150Y004450D02*
X008350D01*
X010450Y001900D02*
Y002300D01*
X008400Y004350D02*
X010450Y002300D01*
X003150Y007287D02*
X003176Y007313D01*
Y007387D02*
X003416Y007627D01*
Y007553D02*
Y007627D01*
X002384D02*
X002600Y007412D01*
X002000Y007243D02*
X002384Y007627D01*
X002000Y005700D02*
X002650D01*
X002000D02*
Y007243D01*
X002650Y005700D02*
X002896Y005946D01*
Y006273D01*
X003450Y002150D02*
X004400Y001200D01*
X003450Y002150D02*
Y003000D01*
X003550Y006750D02*
X004040Y007240D01*
X002800Y006750D02*
X003550D01*
X002423Y006373D02*
X002800Y006750D01*
X002423Y006273D02*
Y006373D01*
X004040Y007240D02*
Y007750D01*
X005300Y004150D02*
X008300D01*
X003100Y005700D02*
X003376Y005976D01*
Y006273D01*
X004900Y004650D02*
Y004850D01*
Y004650D02*
X005300Y004150D01*
X003100Y002550D02*
Y005700D01*
X013850Y002749D02*
X014200Y003099D01*
Y003583D01*
X014206Y003589D01*
Y003994D01*
X013950Y004250D02*
X014206Y003994D01*
X013100Y004250D02*
X013950D01*
X012950Y004400D02*
X013100Y004250D01*
X007100Y007200D02*
X007900D01*
X008400Y006700D01*
Y004400D02*
Y006700D01*
D19*
X002896Y007313D02*
D03*
D20*
X013839Y003746D02*
D03*
X013850Y002749D02*
D03*
Y004749D02*
D03*
Y005749D02*
D03*
X013861Y001751D02*
D03*
D21*
X006150Y004450D02*
D03*
D22*
X010450Y001900D02*
D03*
X013850Y002750D02*
D03*
X007100Y007200D02*
D03*
D23*
X003450Y003000D02*
D03*
X004400Y001200D02*
D03*
X004150Y007750D02*
D03*
X004900Y004850D02*
D03*
X003100Y002500D02*
D03*
X002650Y005700D02*
D03*
X003100D02*
D03*
X005300Y004150D02*
D03*
D24*
X003176Y007313D02*
G03*
X003176Y007313I-000280J000000D01*
G01*
D25*
X002896Y006273D02*
D03*
X002423D02*
D03*
X003376D02*
D03*
D26*
X002384Y007627D02*
D03*
X003416D02*
D03*
D27*
X012950Y004350D02*
D03*
X003950D02*
D03*
D28*
X008400D02*
D03*
M02*
