G04 Layer_Color=2752767*
%FSAX24Y24*%
%MOIN*%
G70*
G01*
G75*
%ADD19C,0.0050*%
%ADD29C,0.0067*%
D19*
X040400Y024499D02*
Y024899D01*
X040800D01*
Y024499D01*
X040400D01*
X040389Y025496D02*
Y025896D01*
X040789D01*
Y025496D01*
X040389D01*
X040400Y026499D02*
Y026899D01*
X040800D01*
Y026499D01*
X040400D01*
Y027499D02*
Y027899D01*
X040800D01*
Y027499D01*
X040400D01*
X040411Y023501D02*
Y023901D01*
X040811D01*
Y023501D01*
X040411D01*
X039400Y029050D02*
X039200Y029450D01*
X039600D01*
X039400Y029050D01*
X038400D02*
X038200Y029450D01*
X038600D01*
X038400Y029050D01*
X035500Y021450D02*
X035300Y021850D01*
X035700D01*
X035500Y021450D01*
D29*
X034450Y024000D02*
G03*
X034450Y024000I-000200J000000D01*
G01*
X032700Y027300D02*
G03*
X032700Y027300I-000200J000000D01*
G01*
X039900Y020650D02*
G03*
X039900Y020650I-000200J000000D01*
G01*
X032800Y028200D02*
G03*
X032800Y028200I-000200J000000D01*
G01*
X040650Y021100D02*
G03*
X040650Y021100I-000200J000000D01*
G01*
X040550Y021600D02*
G03*
X040550Y021600I-000200J000000D01*
G01*
M02*
