G04 Layer_Physical_Order=1*
G04 Layer_Color=255*
%FSAX24Y24*%
%MOIN*%
G70*
G01*
G75*
%ADD10R,0.0320X0.0120*%
%ADD11R,0.0120X0.0320*%
G04:AMPARAMS|DCode=12|XSize=132mil|YSize=32mil|CornerRadius=8mil|HoleSize=0mil|Usage=FLASHONLY|Rotation=0.000|XOffset=0mil|YOffset=0mil|HoleType=Round|Shape=RoundedRectangle|*
%AMROUNDEDRECTD12*
21,1,0.1320,0.0160,0,0,0.0*
21,1,0.1160,0.0320,0,0,0.0*
1,1,0.0160,0.0580,-0.0080*
1,1,0.0160,-0.0580,-0.0080*
1,1,0.0160,-0.0580,0.0080*
1,1,0.0160,0.0580,0.0080*
%
%ADD12ROUNDEDRECTD12*%
%ADD13C,0.0100*%
%ADD14C,0.0433*%
%ADD15C,0.0300*%
%ADD16C,0.0500*%
D10*
X037486Y021254D02*
D03*
Y021454D02*
D03*
Y021654D02*
D03*
Y021851D02*
D03*
Y022048D02*
D03*
X036414D02*
D03*
Y021851D02*
D03*
Y021654D02*
D03*
Y021454D02*
D03*
Y021254D02*
D03*
D11*
X037151Y022156D02*
D03*
X036954D02*
D03*
X036754D02*
D03*
Y021144D02*
D03*
X036954D02*
D03*
X037151D02*
D03*
D12*
X034200Y028200D02*
D03*
Y027700D02*
D03*
Y027200D02*
D03*
Y025700D02*
D03*
Y026200D02*
D03*
Y026700D02*
D03*
Y025200D02*
D03*
Y024700D02*
D03*
X039500D02*
D03*
Y025200D02*
D03*
Y026700D02*
D03*
Y026200D02*
D03*
Y025700D02*
D03*
Y027200D02*
D03*
Y027700D02*
D03*
Y028200D02*
D03*
Y024200D02*
D03*
Y023700D02*
D03*
Y023200D02*
D03*
D13*
X035696Y021454D02*
X036414D01*
X035500Y021650D02*
X035696Y021454D01*
X034050Y024300D02*
X034250Y024100D01*
Y024000D02*
Y024100D01*
X034050Y024300D02*
Y024550D01*
X032500Y026400D02*
X033200Y025700D01*
X032500Y026400D02*
Y027300D01*
X036414Y021454D02*
X037151D01*
Y021144D02*
Y021454D01*
X040201Y027200D02*
X040700Y027699D01*
X039500Y027200D02*
X040201D01*
X039500Y026700D02*
X040699D01*
X039500Y025700D02*
X040686D01*
X040199Y025200D02*
X040700Y024699D01*
X039500Y025200D02*
X040199D01*
X034100Y027700D02*
Y027738D01*
X034200Y027700D02*
Y028200D01*
X039400Y028300D02*
Y029250D01*
X039500Y023700D02*
X040709D01*
X039500Y023200D02*
Y023700D01*
Y027700D02*
Y028200D01*
X040711Y023701D02*
Y024089D01*
X040100Y024700D02*
X040711Y024089D01*
X039500Y024700D02*
X040100D01*
X038750Y025200D02*
X039500D01*
X038400Y025550D02*
X038750Y025200D01*
X038400Y025550D02*
Y029250D01*
X036900Y020650D02*
X039700D01*
X036754Y020796D02*
X036900Y020650D01*
X036754Y020796D02*
Y021144D01*
X039096Y021254D02*
X039700Y020650D01*
X037486Y021254D02*
X039096D01*
X036414D02*
Y021454D01*
X035768Y022300D02*
X035850Y022218D01*
Y022025D02*
Y022218D01*
Y022025D02*
X036205Y021671D01*
X036397D02*
X036414Y021654D01*
X036205Y021671D02*
X036397D01*
X033950Y022300D02*
X035768D01*
X032750Y023500D02*
X033950Y022300D01*
X032800Y028650D02*
X033150Y028300D01*
X032400Y028650D02*
X032800D01*
X032180Y028430D02*
X032400Y028650D01*
X033150Y027650D02*
Y028300D01*
X032180Y025910D02*
Y028430D01*
X032750Y023500D02*
Y025340D01*
X032180Y025910D02*
X032750Y025340D01*
X032600Y027750D02*
X033200Y027150D01*
Y026550D02*
Y027150D01*
X032600Y027750D02*
Y028200D01*
X037151Y022156D02*
X037545Y022550D01*
X040100D01*
X040700Y021950D01*
Y021350D02*
Y021950D01*
X040450Y021100D02*
X040700Y021350D01*
X037486Y021851D02*
X038149D01*
X038400Y021600D01*
X040350D01*
X033200Y025700D02*
X034200D01*
X033200Y026550D02*
X033550Y026200D01*
X034200D01*
X033150Y027650D02*
X033600Y027200D01*
X034200D01*
X033200Y025050D02*
X033350Y025200D01*
X033200Y023800D02*
Y025050D01*
Y023800D02*
X034350Y022650D01*
X036954Y022156D02*
Y024846D01*
X035100Y026700D02*
X036954Y024846D01*
X034200Y026700D02*
X035100D01*
X036260Y022650D02*
X036754Y022156D01*
X034350Y022650D02*
X036260D01*
X033350Y025200D02*
X034200D01*
D14*
X040600Y024699D02*
D03*
X040589Y025696D02*
D03*
X040600Y026699D02*
D03*
Y027699D02*
D03*
X040611Y023701D02*
D03*
D15*
X034250Y024000D02*
D03*
X032500Y027300D02*
D03*
X039700Y020650D02*
D03*
X032600Y028200D02*
D03*
X040450Y021100D02*
D03*
X040350Y021600D02*
D03*
D16*
X039400Y029250D02*
D03*
X038400D02*
D03*
X035500Y021650D02*
D03*
M02*
