G04 Layer_Color=65535*
%FSAX24Y24*%
%MOIN*%
G70*
G01*
G75*
%ADD13C,0.0100*%
%ADD19C,0.0050*%
%ADD20C,0.0020*%
G36*
X036940Y020213D02*
X036968D01*
Y020191D01*
X036940D01*
Y020096D01*
Y020095D01*
Y020094D01*
Y020092D01*
X036940Y020090D01*
X036940Y020084D01*
X036941Y020082D01*
X036941Y020080D01*
X036941Y020080D01*
X036942Y020079D01*
X036944Y020077D01*
X036946Y020075D01*
X036946Y020075D01*
X036948Y020074D01*
X036951Y020074D01*
X036955Y020073D01*
X036958D01*
X036960Y020074D01*
X036962D01*
X036965Y020074D01*
X036968Y020074D01*
X036971Y020050D01*
X036970D01*
X036969Y020050D01*
X036967Y020049D01*
X036964Y020049D01*
X036961Y020048D01*
X036957Y020048D01*
X036950Y020048D01*
X036947D01*
X036945Y020048D01*
X036942Y020048D01*
X036938Y020049D01*
X036934Y020050D01*
X036930Y020051D01*
X036927Y020052D01*
X036926Y020053D01*
X036925Y020053D01*
X036924Y020054D01*
X036922Y020056D01*
X036921Y020057D01*
X036919Y020060D01*
X036917Y020062D01*
X036915Y020065D01*
Y020065D01*
X036915Y020067D01*
X036914Y020069D01*
X036914Y020072D01*
X036913Y020076D01*
X036913Y020079D01*
Y020082D01*
X036912Y020085D01*
X036912Y020089D01*
Y020093D01*
Y020097D01*
Y020191D01*
X036892D01*
Y020213D01*
X036912D01*
Y020253D01*
X036940Y020269D01*
Y020213D01*
D02*
G37*
G36*
X035524Y020050D02*
X035497D01*
Y020213D01*
X035524D01*
Y020050D01*
D02*
G37*
G36*
X035642Y020216D02*
X035647Y020216D01*
X035652Y020215D01*
X035658Y020214D01*
X035663Y020213D01*
X035669Y020211D01*
X035669Y020211D01*
X035671Y020210D01*
X035673Y020209D01*
X035676Y020208D01*
X035679Y020206D01*
X035683Y020204D01*
X035685Y020201D01*
X035688Y020199D01*
X035688Y020198D01*
X035689Y020197D01*
X035690Y020196D01*
X035691Y020194D01*
X035693Y020191D01*
X035694Y020188D01*
X035696Y020184D01*
X035696Y020180D01*
Y020180D01*
X035697Y020179D01*
X035697Y020177D01*
X035697Y020174D01*
Y020171D01*
X035698Y020167D01*
X035698Y020161D01*
Y020155D01*
Y020118D01*
Y020118D01*
Y020116D01*
Y020114D01*
Y020112D01*
Y020109D01*
Y020105D01*
X035698Y020098D01*
Y020090D01*
X035699Y020081D01*
X035699Y020078D01*
Y020075D01*
X035699Y020072D01*
X035700Y020069D01*
Y020069D01*
X035700Y020068D01*
X035700Y020066D01*
X035701Y020063D01*
X035702Y020060D01*
X035703Y020057D01*
X035705Y020054D01*
X035707Y020050D01*
X035678D01*
X035677Y020050D01*
X035677Y020052D01*
X035676Y020053D01*
X035675Y020056D01*
X035674Y020059D01*
X035674Y020062D01*
X035673Y020066D01*
X035673Y020070D01*
X035672D01*
X035672Y020070D01*
X035670Y020068D01*
X035667Y020066D01*
X035663Y020063D01*
X035658Y020060D01*
X035653Y020057D01*
X035648Y020054D01*
X035643Y020052D01*
X035642Y020051D01*
X035640Y020051D01*
X035637Y020050D01*
X035634Y020049D01*
X035629Y020048D01*
X035624Y020047D01*
X035618Y020047D01*
X035612Y020046D01*
X035610D01*
X035608Y020047D01*
X035605D01*
X035603Y020047D01*
X035597Y020048D01*
X035591Y020050D01*
X035583Y020052D01*
X035577Y020055D01*
X035571Y020059D01*
X035570Y020060D01*
X035569Y020062D01*
X035567Y020065D01*
X035564Y020068D01*
X035561Y020073D01*
X035559Y020079D01*
X035557Y020086D01*
X035557Y020089D01*
X035557Y020093D01*
Y020093D01*
Y020095D01*
X035557Y020097D01*
X035557Y020100D01*
X035558Y020103D01*
X035559Y020107D01*
X035560Y020111D01*
X035562Y020114D01*
X035562Y020115D01*
X035563Y020116D01*
X035564Y020118D01*
X035566Y020120D01*
X035568Y020123D01*
X035570Y020125D01*
X035573Y020128D01*
X035576Y020130D01*
X035577Y020131D01*
X035578Y020131D01*
X035580Y020133D01*
X035582Y020134D01*
X035585Y020135D01*
X035589Y020137D01*
X035592Y020138D01*
X035596Y020139D01*
X035597D01*
X035598Y020140D01*
X035600Y020140D01*
X035603Y020141D01*
X035606Y020141D01*
X035610Y020142D01*
X035615Y020143D01*
X035621Y020144D01*
X035621D01*
X035622Y020144D01*
X035624D01*
X035626Y020144D01*
X035629Y020145D01*
X035632Y020145D01*
X035636Y020146D01*
X035639Y020146D01*
X035647Y020148D01*
X035656Y020149D01*
X035663Y020151D01*
X035667Y020152D01*
X035670Y020153D01*
Y020154D01*
Y020154D01*
X035670Y020156D01*
Y020159D01*
Y020160D01*
Y020160D01*
Y020161D01*
Y020161D01*
Y020163D01*
X035670Y020166D01*
X035669Y020170D01*
X035668Y020174D01*
X035667Y020178D01*
X035665Y020181D01*
X035662Y020184D01*
X035662Y020184D01*
X035660Y020186D01*
X035658Y020187D01*
X035654Y020189D01*
X035650Y020191D01*
X035645Y020192D01*
X035638Y020193D01*
X035631Y020194D01*
X035627D01*
X035624Y020193D01*
X035620Y020193D01*
X035615Y020192D01*
X035610Y020191D01*
X035606Y020189D01*
X035602Y020187D01*
X035602Y020186D01*
X035600Y020185D01*
X035599Y020184D01*
X035597Y020181D01*
X035595Y020178D01*
X035592Y020174D01*
X035591Y020169D01*
X035589Y020163D01*
X035562Y020166D01*
Y020167D01*
X035562Y020167D01*
Y020168D01*
X035562Y020169D01*
X035563Y020172D01*
X035565Y020176D01*
X035566Y020181D01*
X035568Y020185D01*
X035571Y020190D01*
X035574Y020194D01*
X035574Y020194D01*
X035575Y020195D01*
X035577Y020197D01*
X035580Y020200D01*
X035583Y020203D01*
X035588Y020205D01*
X035592Y020208D01*
X035598Y020210D01*
X035598D01*
X035599Y020211D01*
X035600Y020211D01*
X035601Y020211D01*
X035604Y020212D01*
X035609Y020213D01*
X035614Y020214D01*
X035620Y020215D01*
X035627Y020216D01*
X035635Y020216D01*
X035638D01*
X035642Y020216D01*
D02*
G37*
G36*
X036195D02*
X036198Y020216D01*
X036201Y020215D01*
X036205Y020214D01*
X036209Y020214D01*
X036217Y020211D01*
X036222Y020209D01*
X036227Y020207D01*
X036231Y020205D01*
X036236Y020201D01*
X036240Y020198D01*
X036244Y020194D01*
X036244Y020194D01*
X036245Y020193D01*
X036246Y020192D01*
X036247Y020190D01*
X036249Y020188D01*
X036251Y020185D01*
X036253Y020182D01*
X036255Y020178D01*
X036257Y020174D01*
X036259Y020170D01*
X036261Y020165D01*
X036262Y020159D01*
X036263Y020153D01*
X036264Y020147D01*
X036265Y020141D01*
X036265Y020134D01*
Y020133D01*
Y020132D01*
Y020131D01*
Y020128D01*
X036265Y020126D01*
X036265Y020123D01*
Y020119D01*
X036264Y020116D01*
X036263Y020108D01*
X036261Y020100D01*
X036259Y020091D01*
X036256Y020084D01*
Y020084D01*
X036255Y020083D01*
X036255Y020082D01*
X036254Y020081D01*
X036252Y020078D01*
X036249Y020074D01*
X036245Y020069D01*
X036240Y020065D01*
X036235Y020060D01*
X036228Y020056D01*
X036228D01*
X036228Y020056D01*
X036227Y020055D01*
X036225Y020055D01*
X036223Y020054D01*
X036221Y020053D01*
X036217Y020051D01*
X036211Y020050D01*
X036204Y020048D01*
X036197Y020047D01*
X036189Y020046D01*
X036186D01*
X036183Y020047D01*
X036181Y020047D01*
X036177Y020048D01*
X036173Y020048D01*
X036170Y020049D01*
X036161Y020052D01*
X036156Y020054D01*
X036151Y020056D01*
X036147Y020058D01*
X036142Y020061D01*
X036138Y020064D01*
X036134Y020068D01*
X036134Y020068D01*
X036133Y020069D01*
X036132Y020070D01*
X036131Y020072D01*
X036129Y020075D01*
X036127Y020077D01*
X036125Y020080D01*
X036124Y020084D01*
X036122Y020089D01*
X036120Y020093D01*
X036118Y020099D01*
X036116Y020104D01*
X036115Y020110D01*
X036114Y020117D01*
X036113Y020124D01*
X036113Y020131D01*
Y020132D01*
Y020133D01*
X036113Y020136D01*
Y020139D01*
X036114Y020142D01*
X036114Y020147D01*
X036115Y020151D01*
X036116Y020157D01*
X036118Y020162D01*
X036119Y020167D01*
X036121Y020173D01*
X036124Y020179D01*
X036126Y020184D01*
X036130Y020189D01*
X036134Y020194D01*
X036138Y020198D01*
X036138Y020198D01*
X036139Y020199D01*
X036140Y020200D01*
X036142Y020201D01*
X036144Y020202D01*
X036147Y020204D01*
X036149Y020206D01*
X036152Y020207D01*
X036156Y020209D01*
X036160Y020210D01*
X036169Y020213D01*
X036179Y020216D01*
X036184Y020216D01*
X036189Y020216D01*
X036193D01*
X036195Y020216D01*
D02*
G37*
G36*
X038547D02*
X038550Y020216D01*
X038553Y020215D01*
X038557Y020214D01*
X038561Y020213D01*
X038565Y020212D01*
X038569Y020211D01*
X038574Y020209D01*
X038578Y020207D01*
X038583Y020204D01*
X038587Y020201D01*
X038591Y020198D01*
X038595Y020194D01*
X038596Y020194D01*
X038596Y020193D01*
X038597Y020192D01*
X038599Y020190D01*
X038600Y020187D01*
X038602Y020185D01*
X038604Y020182D01*
X038606Y020178D01*
X038608Y020173D01*
X038610Y020169D01*
X038611Y020164D01*
X038613Y020158D01*
X038614Y020152D01*
X038615Y020146D01*
X038616Y020139D01*
X038616Y020131D01*
Y020131D01*
Y020130D01*
Y020127D01*
X038616Y020124D01*
X038494D01*
Y020124D01*
Y020123D01*
X038495Y020122D01*
Y020120D01*
X038495Y020117D01*
X038496Y020115D01*
X038496Y020109D01*
X038498Y020102D01*
X038501Y020095D01*
X038505Y020089D01*
X038509Y020083D01*
X038509D01*
X038510Y020082D01*
X038512Y020081D01*
X038515Y020079D01*
X038519Y020076D01*
X038524Y020074D01*
X038530Y020071D01*
X038536Y020070D01*
X038540Y020069D01*
X038543Y020069D01*
X038546D01*
X038549Y020069D01*
X038553Y020070D01*
X038556Y020071D01*
X038561Y020072D01*
X038565Y020074D01*
X038569Y020077D01*
X038570Y020077D01*
X038571Y020079D01*
X038573Y020080D01*
X038576Y020083D01*
X038578Y020087D01*
X038581Y020091D01*
X038584Y020096D01*
X038587Y020102D01*
X038615Y020099D01*
Y020099D01*
X038615Y020098D01*
X038614Y020097D01*
X038614Y020095D01*
X038613Y020093D01*
X038612Y020090D01*
X038609Y020085D01*
X038606Y020079D01*
X038601Y020072D01*
X038596Y020066D01*
X038590Y020060D01*
X038589D01*
X038589Y020059D01*
X038588Y020059D01*
X038587Y020058D01*
X038585Y020057D01*
X038583Y020056D01*
X038580Y020055D01*
X038577Y020053D01*
X038574Y020052D01*
X038571Y020051D01*
X038563Y020049D01*
X038554Y020047D01*
X038543Y020046D01*
X038540D01*
X038538Y020047D01*
X038535Y020047D01*
X038531Y020048D01*
X038527Y020048D01*
X038523Y020049D01*
X038514Y020052D01*
X038509Y020054D01*
X038505Y020056D01*
X038500Y020058D01*
X038495Y020061D01*
X038491Y020064D01*
X038487Y020068D01*
X038486Y020068D01*
X038486Y020069D01*
X038485Y020070D01*
X038484Y020072D01*
X038482Y020075D01*
X038480Y020077D01*
X038478Y020080D01*
X038476Y020084D01*
X038474Y020088D01*
X038473Y020093D01*
X038471Y020098D01*
X038469Y020103D01*
X038468Y020109D01*
X038467Y020116D01*
X038466Y020123D01*
X038466Y020130D01*
Y020130D01*
Y020132D01*
Y020134D01*
X038466Y020137D01*
X038467Y020140D01*
X038467Y020144D01*
X038468Y020148D01*
X038469Y020153D01*
X038471Y020163D01*
X038473Y020169D01*
X038475Y020174D01*
X038477Y020179D01*
X038480Y020184D01*
X038484Y020189D01*
X038487Y020194D01*
X038487Y020194D01*
X038488Y020194D01*
X038489Y020195D01*
X038491Y020197D01*
X038493Y020199D01*
X038496Y020201D01*
X038498Y020203D01*
X038502Y020205D01*
X038506Y020207D01*
X038510Y020209D01*
X038514Y020211D01*
X038519Y020213D01*
X038524Y020214D01*
X038530Y020215D01*
X038536Y020216D01*
X038542Y020216D01*
X038545D01*
X038547Y020216D01*
D02*
G37*
G36*
X039531Y020194D02*
X039531Y020194D01*
X039531Y020195D01*
X039532Y020196D01*
X039534Y020198D01*
X039536Y020199D01*
X039538Y020201D01*
X039540Y020203D01*
X039543Y020205D01*
X039549Y020209D01*
X039557Y020213D01*
X039561Y020214D01*
X039565Y020215D01*
X039570Y020216D01*
X039575Y020216D01*
X039578D01*
X039581Y020216D01*
X039584Y020216D01*
X039588Y020215D01*
X039593Y020214D01*
X039598Y020212D01*
X039603Y020210D01*
X039604Y020210D01*
X039606Y020209D01*
X039608Y020207D01*
X039611Y020206D01*
X039615Y020203D01*
X039618Y020200D01*
X039622Y020197D01*
X039625Y020193D01*
X039626Y020193D01*
X039627Y020191D01*
X039628Y020189D01*
X039630Y020186D01*
X039632Y020182D01*
X039635Y020177D01*
X039637Y020172D01*
X039639Y020167D01*
Y020166D01*
X039639Y020166D01*
X039640Y020165D01*
X039640Y020164D01*
X039641Y020161D01*
X039642Y020157D01*
X039642Y020152D01*
X039643Y020146D01*
X039644Y020140D01*
X039644Y020134D01*
Y020133D01*
Y020132D01*
Y020130D01*
X039644Y020127D01*
X039643Y020123D01*
X039643Y020119D01*
X039642Y020115D01*
X039642Y020110D01*
X039639Y020100D01*
X039637Y020094D01*
X039635Y020089D01*
X039633Y020083D01*
X039630Y020079D01*
X039627Y020074D01*
X039623Y020069D01*
X039623Y020069D01*
X039622Y020068D01*
X039621Y020067D01*
X039620Y020066D01*
X039618Y020064D01*
X039615Y020062D01*
X039613Y020060D01*
X039609Y020058D01*
X039606Y020056D01*
X039602Y020054D01*
X039594Y020050D01*
X039589Y020048D01*
X039584Y020047D01*
X039579Y020047D01*
X039574Y020046D01*
X039573D01*
X039571Y020047D01*
X039569D01*
X039567Y020047D01*
X039564Y020048D01*
X039557Y020049D01*
X039554Y020051D01*
X039550Y020052D01*
X039546Y020054D01*
X039543Y020056D01*
X039539Y020059D01*
X039535Y020063D01*
X039532Y020066D01*
X039529Y020070D01*
Y020050D01*
X039503D01*
Y020274D01*
X039531D01*
Y020194D01*
D02*
G37*
G36*
X038100Y020248D02*
X038026D01*
Y020050D01*
X037996D01*
Y020248D01*
X037922D01*
Y020274D01*
X038100D01*
Y020248D01*
D02*
G37*
G36*
X038852Y020050D02*
X038824D01*
Y020213D01*
X038852D01*
Y020050D01*
D02*
G37*
G36*
X038970Y020216D02*
X038974Y020216D01*
X038980Y020215D01*
X038985Y020214D01*
X038991Y020213D01*
X038996Y020211D01*
X038997Y020211D01*
X038998Y020210D01*
X039001Y020209D01*
X039004Y020208D01*
X039007Y020206D01*
X039010Y020204D01*
X039013Y020201D01*
X039016Y020199D01*
X039016Y020198D01*
X039017Y020197D01*
X039018Y020196D01*
X039019Y020194D01*
X039020Y020191D01*
X039022Y020188D01*
X039023Y020184D01*
X039024Y020180D01*
Y020180D01*
X039024Y020179D01*
X039025Y020177D01*
X039025Y020174D01*
Y020171D01*
X039025Y020167D01*
X039026Y020161D01*
Y020155D01*
Y020118D01*
Y020118D01*
Y020116D01*
Y020114D01*
Y020112D01*
Y020109D01*
Y020105D01*
X039026Y020098D01*
Y020090D01*
X039026Y020081D01*
X039027Y020078D01*
Y020075D01*
X039027Y020072D01*
X039027Y020069D01*
Y020069D01*
X039028Y020068D01*
X039028Y020066D01*
X039029Y020063D01*
X039029Y020060D01*
X039031Y020057D01*
X039032Y020054D01*
X039034Y020050D01*
X039005D01*
X039005Y020050D01*
X039005Y020052D01*
X039004Y020053D01*
X039003Y020056D01*
X039002Y020059D01*
X039001Y020062D01*
X039001Y020066D01*
X039000Y020070D01*
X039000D01*
X038999Y020070D01*
X038997Y020068D01*
X038994Y020066D01*
X038991Y020063D01*
X038986Y020060D01*
X038981Y020057D01*
X038976Y020054D01*
X038970Y020052D01*
X038970Y020051D01*
X038968Y020051D01*
X038965Y020050D01*
X038961Y020049D01*
X038957Y020048D01*
X038951Y020047D01*
X038946Y020047D01*
X038940Y020046D01*
X038937D01*
X038935Y020047D01*
X038933D01*
X038930Y020047D01*
X038925Y020048D01*
X038918Y020050D01*
X038911Y020052D01*
X038904Y020055D01*
X038899Y020059D01*
X038898Y020060D01*
X038896Y020062D01*
X038894Y020065D01*
X038891Y020068D01*
X038889Y020073D01*
X038887Y020079D01*
X038885Y020086D01*
X038885Y020089D01*
X038884Y020093D01*
Y020093D01*
Y020095D01*
X038885Y020097D01*
X038885Y020100D01*
X038886Y020103D01*
X038887Y020107D01*
X038888Y020111D01*
X038890Y020114D01*
X038890Y020115D01*
X038890Y020116D01*
X038892Y020118D01*
X038893Y020120D01*
X038895Y020123D01*
X038898Y020125D01*
X038901Y020128D01*
X038904Y020130D01*
X038904Y020131D01*
X038905Y020131D01*
X038907Y020133D01*
X038910Y020134D01*
X038913Y020135D01*
X038916Y020137D01*
X038920Y020138D01*
X038924Y020139D01*
X038924D01*
X038925Y020140D01*
X038927Y020140D01*
X038930Y020141D01*
X038933Y020141D01*
X038937Y020142D01*
X038942Y020143D01*
X038948Y020144D01*
X038948D01*
X038950Y020144D01*
X038951D01*
X038954Y020144D01*
X038956Y020145D01*
X038960Y020145D01*
X038963Y020146D01*
X038967Y020146D01*
X038975Y020148D01*
X038983Y020149D01*
X038991Y020151D01*
X038994Y020152D01*
X038997Y020153D01*
Y020154D01*
Y020154D01*
X038998Y020156D01*
Y020159D01*
Y020160D01*
Y020160D01*
Y020161D01*
Y020161D01*
Y020163D01*
X038997Y020166D01*
X038997Y020170D01*
X038996Y020174D01*
X038994Y020178D01*
X038992Y020181D01*
X038990Y020184D01*
X038989Y020184D01*
X038988Y020186D01*
X038985Y020187D01*
X038982Y020189D01*
X038977Y020191D01*
X038972Y020192D01*
X038966Y020193D01*
X038958Y020194D01*
X038955D01*
X038952Y020193D01*
X038947Y020193D01*
X038943Y020192D01*
X038938Y020191D01*
X038933Y020189D01*
X038929Y020187D01*
X038929Y020186D01*
X038928Y020185D01*
X038926Y020184D01*
X038924Y020181D01*
X038922Y020178D01*
X038920Y020174D01*
X038918Y020169D01*
X038916Y020163D01*
X038889Y020166D01*
Y020167D01*
X038890Y020167D01*
Y020168D01*
X038890Y020169D01*
X038891Y020172D01*
X038892Y020176D01*
X038894Y020181D01*
X038896Y020185D01*
X038898Y020190D01*
X038901Y020194D01*
X038902Y020194D01*
X038903Y020195D01*
X038905Y020197D01*
X038907Y020200D01*
X038911Y020203D01*
X038915Y020205D01*
X038920Y020208D01*
X038925Y020210D01*
X038926D01*
X038926Y020211D01*
X038927Y020211D01*
X038928Y020211D01*
X038932Y020212D01*
X038936Y020213D01*
X038941Y020214D01*
X038948Y020215D01*
X038955Y020216D01*
X038962Y020216D01*
X038966D01*
X038970Y020216D01*
D02*
G37*
G36*
X035767Y020050D02*
X035740D01*
Y020274D01*
X035767D01*
Y020050D01*
D02*
G37*
G36*
X037022D02*
X036995D01*
Y020213D01*
X037022D01*
Y020050D01*
D02*
G37*
G36*
X037887D02*
X037857D01*
Y020274D01*
X037887D01*
Y020050D01*
D02*
G37*
G36*
X035237Y020216D02*
X035240Y020216D01*
X035243Y020215D01*
X035246Y020214D01*
X035251Y020214D01*
X035259Y020211D01*
X035264Y020209D01*
X035268Y020207D01*
X035273Y020205D01*
X035278Y020201D01*
X035282Y020198D01*
X035286Y020194D01*
X035286Y020194D01*
X035287Y020193D01*
X035288Y020192D01*
X035289Y020190D01*
X035291Y020188D01*
X035293Y020185D01*
X035295Y020182D01*
X035297Y020178D01*
X035299Y020174D01*
X035301Y020170D01*
X035303Y020165D01*
X035304Y020159D01*
X035305Y020153D01*
X035306Y020147D01*
X035307Y020141D01*
X035307Y020134D01*
Y020133D01*
Y020132D01*
Y020131D01*
Y020128D01*
X035307Y020126D01*
X035307Y020123D01*
Y020119D01*
X035306Y020116D01*
X035305Y020108D01*
X035303Y020100D01*
X035301Y020091D01*
X035298Y020084D01*
Y020084D01*
X035297Y020083D01*
X035297Y020082D01*
X035296Y020081D01*
X035294Y020078D01*
X035291Y020074D01*
X035287Y020069D01*
X035282Y020065D01*
X035277Y020060D01*
X035270Y020056D01*
X035270D01*
X035269Y020056D01*
X035268Y020055D01*
X035267Y020055D01*
X035265Y020054D01*
X035263Y020053D01*
X035258Y020051D01*
X035253Y020050D01*
X035246Y020048D01*
X035239Y020047D01*
X035231Y020046D01*
X035228D01*
X035225Y020047D01*
X035222Y020047D01*
X035219Y020048D01*
X035215Y020048D01*
X035211Y020049D01*
X035203Y020052D01*
X035198Y020054D01*
X035193Y020056D01*
X035189Y020058D01*
X035184Y020061D01*
X035180Y020064D01*
X035176Y020068D01*
X035175Y020068D01*
X035175Y020069D01*
X035174Y020070D01*
X035173Y020072D01*
X035171Y020075D01*
X035169Y020077D01*
X035167Y020080D01*
X035165Y020084D01*
X035164Y020089D01*
X035162Y020093D01*
X035160Y020099D01*
X035158Y020104D01*
X035157Y020110D01*
X035156Y020117D01*
X035155Y020124D01*
X035155Y020131D01*
Y020132D01*
Y020133D01*
X035155Y020136D01*
Y020139D01*
X035156Y020142D01*
X035156Y020147D01*
X035157Y020151D01*
X035158Y020157D01*
X035160Y020162D01*
X035161Y020167D01*
X035163Y020173D01*
X035166Y020179D01*
X035168Y020184D01*
X035172Y020189D01*
X035175Y020194D01*
X035180Y020198D01*
X035180Y020198D01*
X035181Y020199D01*
X035182Y020200D01*
X035184Y020201D01*
X035186Y020202D01*
X035188Y020204D01*
X035191Y020206D01*
X035194Y020207D01*
X035198Y020209D01*
X035202Y020210D01*
X035210Y020213D01*
X035221Y020216D01*
X035226Y020216D01*
X035231Y020216D01*
X035234D01*
X035237Y020216D01*
D02*
G37*
G36*
X033716Y021793D02*
X033724Y021792D01*
X033725Y021791D01*
X033725Y021791D01*
X033727Y021791D01*
X033728Y021791D01*
X033730Y021790D01*
X033732Y021789D01*
X033735Y021788D01*
X033738Y021786D01*
X033741Y021785D01*
X033744Y021783D01*
X033751Y021778D01*
X033758Y021772D01*
X033765Y021765D01*
X033765Y021765D01*
X033766Y021764D01*
X033767Y021762D01*
X033768Y021760D01*
X033770Y021758D01*
X033771Y021755D01*
X033773Y021751D01*
X033776Y021748D01*
X033780Y021739D01*
X033781Y021734D01*
X033783Y021729D01*
X033784Y021724D01*
X033784Y021719D01*
X033785Y021713D01*
X033784Y021708D01*
X033784Y021707D01*
X033784Y021706D01*
X033784Y021705D01*
X033783Y021702D01*
X033782Y021700D01*
X033782Y021697D01*
X033780Y021693D01*
X033779Y021689D01*
X033777Y021685D01*
X033775Y021681D01*
X033772Y021676D01*
X033769Y021671D01*
X033765Y021667D01*
X033761Y021662D01*
X033756Y021657D01*
X033751Y021652D01*
X033750Y021652D01*
X033749Y021651D01*
X033748Y021650D01*
X033745Y021648D01*
X033742Y021646D01*
X033739Y021644D01*
X033735Y021641D01*
X033731Y021639D01*
X033721Y021634D01*
X033716Y021632D01*
X033711Y021630D01*
X033705Y021629D01*
X033700Y021628D01*
X033694Y021627D01*
X033688Y021627D01*
X033688Y021627D01*
X033687Y021627D01*
X033685Y021628D01*
X033683Y021628D01*
X033680Y021628D01*
X033677Y021629D01*
X033674Y021630D01*
X033670Y021631D01*
X033666Y021633D01*
X033662Y021635D01*
X033657Y021637D01*
X033653Y021639D01*
X033648Y021642D01*
X033644Y021646D01*
X033640Y021650D01*
X033636Y021655D01*
X033635Y021655D01*
X033635Y021656D01*
X033633Y021657D01*
X033632Y021659D01*
X033631Y021661D01*
X033629Y021664D01*
X033627Y021667D01*
X033625Y021671D01*
X033624Y021675D01*
X033622Y021679D01*
X033621Y021683D01*
X033619Y021688D01*
X033618Y021694D01*
X033618Y021699D01*
X033618Y021704D01*
X033618Y021710D01*
X033618Y021710D01*
X033618Y021711D01*
X033619Y021713D01*
X033619Y021715D01*
X033620Y021718D01*
X033621Y021721D01*
X033622Y021724D01*
X033624Y021728D01*
X033626Y021732D01*
X033628Y021737D01*
X033631Y021741D01*
X033634Y021746D01*
X033638Y021751D01*
X033643Y021756D01*
X033647Y021761D01*
X033653Y021766D01*
X033653Y021766D01*
X033654Y021767D01*
X033656Y021768D01*
X033659Y021770D01*
X033737Y021677D01*
X033737Y021677D01*
X033738Y021678D01*
X033738Y021679D01*
X033740Y021680D01*
X033741Y021682D01*
X033743Y021684D01*
X033747Y021689D01*
X033751Y021694D01*
X033754Y021701D01*
X033757Y021708D01*
X033759Y021715D01*
X033758Y021715D01*
X033759Y021716D01*
X033759Y021719D01*
X033758Y021722D01*
X033758Y021727D01*
X033756Y021732D01*
X033754Y021738D01*
X033751Y021744D01*
X033749Y021747D01*
X033747Y021750D01*
X033747Y021751D01*
X033747Y021751D01*
X033745Y021752D01*
X033743Y021754D01*
X033741Y021757D01*
X033737Y021759D01*
X033733Y021762D01*
X033729Y021764D01*
X033725Y021765D01*
X033724Y021765D01*
X033722Y021766D01*
X033719Y021766D01*
X033716Y021766D01*
X033711Y021766D01*
X033706Y021765D01*
X033700Y021764D01*
X033694Y021762D01*
X033678Y021786D01*
X033679Y021786D01*
X033679Y021786D01*
X033680Y021787D01*
X033682Y021788D01*
X033684Y021788D01*
X033687Y021789D01*
X033693Y021791D01*
X033700Y021792D01*
X033708Y021793D01*
X033716Y021793D01*
D02*
G37*
G36*
X033653Y021892D02*
X033654Y021891D01*
X033656Y021890D01*
X033658Y021888D01*
X033661Y021886D01*
X033663Y021883D01*
X033668Y021878D01*
X033668Y021878D01*
X033670Y021876D01*
X033671Y021874D01*
X033673Y021871D01*
X033675Y021868D01*
X033677Y021864D01*
X033678Y021861D01*
X033679Y021857D01*
X033679Y021857D01*
X033680Y021856D01*
X033680Y021854D01*
X033680Y021851D01*
X033679Y021849D01*
X033679Y021846D01*
X033678Y021843D01*
X033677Y021840D01*
X033677Y021840D01*
X033676Y021839D01*
X033675Y021837D01*
X033673Y021835D01*
X033670Y021831D01*
X033668Y021829D01*
X033666Y021828D01*
X033663Y021825D01*
X033661Y021823D01*
X033658Y021820D01*
X033654Y021817D01*
X033582Y021757D01*
X033595Y021741D01*
X033579Y021727D01*
X033566Y021743D01*
X033535Y021717D01*
X033505Y021728D01*
X033548Y021764D01*
X033530Y021785D01*
X033547Y021799D01*
X033565Y021778D01*
X033638Y021839D01*
X033638Y021840D01*
X033639Y021841D01*
X033641Y021842D01*
X033642Y021843D01*
X033646Y021847D01*
X033648Y021849D01*
X033649Y021850D01*
X033649Y021851D01*
X033649Y021852D01*
X033650Y021854D01*
X033650Y021857D01*
X033649Y021858D01*
X033649Y021859D01*
X033647Y021862D01*
X033645Y021866D01*
X033645Y021866D01*
X033644Y021866D01*
X033644Y021867D01*
X033643Y021868D01*
X033642Y021869D01*
X033640Y021871D01*
X033638Y021873D01*
X033636Y021874D01*
X033653Y021893D01*
X033653Y021892D01*
D02*
G37*
G36*
X033553Y022011D02*
X033468Y021860D01*
X033449Y021882D01*
X033501Y021972D01*
X033502Y021972D01*
X033502Y021972D01*
X033502Y021973D01*
X033503Y021974D01*
X033505Y021977D01*
X033507Y021981D01*
X033510Y021985D01*
X033513Y021990D01*
X033516Y021995D01*
X033520Y022001D01*
X033519Y022001D01*
X033518Y022000D01*
X033515Y021999D01*
X033511Y021997D01*
X033507Y021996D01*
X033502Y021993D01*
X033496Y021991D01*
X033490Y021989D01*
X033390Y021952D01*
X033372Y021974D01*
X033536Y022031D01*
X033553Y022011D01*
D02*
G37*
G36*
X033967Y021346D02*
X033968Y021346D01*
X033970Y021345D01*
X033972Y021345D01*
X033974Y021344D01*
X033977Y021343D01*
X033981Y021342D01*
X033984Y021341D01*
X033988Y021339D01*
X033993Y021336D01*
X033997Y021333D01*
X034002Y021329D01*
X034008Y021325D01*
X034013Y021320D01*
X034019Y021314D01*
X034024Y021308D01*
X034061Y021264D01*
X034131Y021323D01*
X034150Y021300D01*
X033978Y021156D01*
X033924Y021220D01*
X033924Y021221D01*
X033923Y021221D01*
X033923Y021222D01*
X033922Y021223D01*
X033921Y021225D01*
X033919Y021226D01*
X033916Y021230D01*
X033913Y021235D01*
X033909Y021239D01*
X033906Y021244D01*
X033904Y021248D01*
X033904Y021248D01*
X033903Y021249D01*
X033902Y021251D01*
X033901Y021253D01*
X033899Y021257D01*
X033898Y021261D01*
X033896Y021266D01*
X033895Y021271D01*
X033894Y021276D01*
X033894Y021277D01*
X033894Y021278D01*
X033894Y021281D01*
X033894Y021285D01*
X033895Y021289D01*
X033896Y021293D01*
X033897Y021299D01*
X033899Y021304D01*
X033899Y021304D01*
X033900Y021306D01*
X033901Y021309D01*
X033904Y021312D01*
X033906Y021316D01*
X033910Y021320D01*
X033914Y021325D01*
X033918Y021329D01*
X033918Y021329D01*
X033919Y021330D01*
X033920Y021330D01*
X033922Y021332D01*
X033924Y021333D01*
X033926Y021335D01*
X033929Y021336D01*
X033933Y021338D01*
X033940Y021341D01*
X033944Y021342D01*
X033948Y021344D01*
X033953Y021345D01*
X033957Y021345D01*
X033962Y021346D01*
X033967Y021346D01*
X033967Y021346D01*
D02*
G37*
G36*
X033855Y021651D02*
X033796Y021449D01*
X033930Y021562D01*
X033949Y021540D01*
X033777Y021396D01*
X033757Y021419D01*
X033817Y021622D01*
X033682Y021509D01*
X033664Y021531D01*
X033835Y021675D01*
X033855Y021651D01*
D02*
G37*
G36*
X034018Y021457D02*
X033894Y021353D01*
X033878Y021372D01*
X033896Y021388D01*
X033896Y021388D01*
X033893Y021387D01*
X033890Y021386D01*
X033886Y021386D01*
X033881Y021386D01*
X033876Y021386D01*
X033872Y021386D01*
X033868Y021386D01*
X033868Y021386D01*
X033867Y021387D01*
X033865Y021388D01*
X033863Y021388D01*
X033860Y021390D01*
X033857Y021392D01*
X033855Y021394D01*
X033852Y021396D01*
X033852Y021397D01*
X033851Y021398D01*
X033849Y021400D01*
X033847Y021404D01*
X033846Y021408D01*
X033844Y021412D01*
X033842Y021418D01*
X033841Y021424D01*
X033867Y021432D01*
X033867Y021432D01*
X033867Y021430D01*
X033868Y021428D01*
X033869Y021426D01*
X033870Y021423D01*
X033871Y021419D01*
X033873Y021416D01*
X033875Y021413D01*
X033875Y021413D01*
X033876Y021412D01*
X033878Y021411D01*
X033879Y021409D01*
X033881Y021408D01*
X033884Y021407D01*
X033887Y021405D01*
X033890Y021404D01*
X033890Y021404D01*
X033891Y021404D01*
X033893Y021404D01*
X033895Y021404D01*
X033898Y021404D01*
X033901Y021405D01*
X033904Y021405D01*
X033908Y021407D01*
X033909Y021407D01*
X033910Y021408D01*
X033913Y021409D01*
X033917Y021411D01*
X033921Y021413D01*
X033926Y021416D01*
X033930Y021420D01*
X033935Y021424D01*
X034000Y021478D01*
X034018Y021457D01*
D02*
G37*
G36*
X033261Y022360D02*
X033220Y022325D01*
X033282Y022250D01*
X033263Y022234D01*
X033086Y022219D01*
X033071Y022237D01*
X033183Y022330D01*
X033163Y022353D01*
X033182Y022369D01*
X033202Y022346D01*
X033243Y022381D01*
X033261Y022360D01*
D02*
G37*
G36*
X037452Y020050D02*
Y020050D01*
Y020049D01*
Y020048D01*
Y020047D01*
X037451Y020044D01*
X037451Y020040D01*
X037450Y020036D01*
X037449Y020031D01*
X037447Y020026D01*
X037445Y020022D01*
X037445Y020022D01*
X037444Y020021D01*
X037443Y020019D01*
X037441Y020016D01*
X037438Y020013D01*
X037435Y020011D01*
X037431Y020008D01*
X037426Y020006D01*
X037418Y020017D01*
X037419Y020018D01*
X037420Y020018D01*
X037421Y020019D01*
X037423Y020020D01*
X037425Y020022D01*
X037427Y020024D01*
X037429Y020026D01*
X037431Y020029D01*
X037431Y020029D01*
X037432Y020030D01*
X037432Y020032D01*
X037433Y020034D01*
X037434Y020037D01*
X037435Y020041D01*
X037435Y020045D01*
X037436Y020050D01*
X037420D01*
Y020081D01*
X037452D01*
Y020050D01*
D02*
G37*
G36*
X037303Y020216D02*
X037305Y020216D01*
X037308Y020215D01*
X037312Y020214D01*
X037315Y020213D01*
X037319Y020212D01*
X037323Y020210D01*
X037327Y020208D01*
X037331Y020206D01*
X037335Y020204D01*
X037339Y020200D01*
X037342Y020197D01*
X037346Y020193D01*
Y020213D01*
X037371D01*
Y020072D01*
Y020072D01*
Y020070D01*
Y020068D01*
Y020066D01*
X037371Y020063D01*
Y020059D01*
X037371Y020056D01*
X037370Y020051D01*
X037369Y020043D01*
X037368Y020033D01*
X037367Y020029D01*
X037366Y020025D01*
X037365Y020022D01*
X037363Y020019D01*
Y020018D01*
X037363Y020018D01*
X037362Y020016D01*
X037360Y020013D01*
X037358Y020010D01*
X037354Y020006D01*
X037350Y020001D01*
X037345Y019997D01*
X037339Y019994D01*
X037339D01*
X037338Y019993D01*
X037337Y019993D01*
X037336Y019992D01*
X037334Y019991D01*
X037332Y019991D01*
X037328Y019989D01*
X037322Y019987D01*
X037315Y019986D01*
X037306Y019985D01*
X037298Y019984D01*
X037295D01*
X037293Y019985D01*
X037290D01*
X037288Y019985D01*
X037284Y019985D01*
X037281Y019986D01*
X037273Y019987D01*
X037266Y019990D01*
X037258Y019993D01*
X037251Y019998D01*
X037250Y019998D01*
X037250Y019998D01*
X037248Y020000D01*
X037245Y020003D01*
X037242Y020007D01*
X037239Y020013D01*
X037236Y020020D01*
X037235Y020023D01*
X037234Y020028D01*
X037234Y020032D01*
Y020037D01*
X037260Y020033D01*
Y020032D01*
X037261Y020031D01*
X037261Y020029D01*
X037262Y020026D01*
X037263Y020023D01*
X037265Y020020D01*
X037267Y020017D01*
X037270Y020015D01*
X037270Y020015D01*
X037271Y020014D01*
X037274Y020012D01*
X037277Y020011D01*
X037281Y020010D01*
X037286Y020008D01*
X037292Y020007D01*
X037298Y020007D01*
X037301D01*
X037304Y020007D01*
X037309Y020008D01*
X037313Y020009D01*
X037318Y020010D01*
X037323Y020012D01*
X037327Y020015D01*
X037328Y020015D01*
X037329Y020016D01*
X037331Y020018D01*
X037333Y020020D01*
X037335Y020023D01*
X037338Y020027D01*
X037340Y020031D01*
X037341Y020036D01*
Y020036D01*
X037342Y020038D01*
X037342Y020040D01*
X037342Y020044D01*
X037343Y020046D01*
Y020048D01*
X037343Y020051D01*
Y020055D01*
Y020058D01*
X037343Y020062D01*
Y020067D01*
Y020071D01*
X037343Y020071D01*
X037342Y020070D01*
X037341Y020069D01*
X037340Y020068D01*
X037339Y020067D01*
X037336Y020065D01*
X037334Y020063D01*
X037331Y020061D01*
X037324Y020057D01*
X037317Y020053D01*
X037313Y020052D01*
X037308Y020051D01*
X037303Y020050D01*
X037298Y020050D01*
X037297D01*
X037295Y020050D01*
X037293D01*
X037290Y020051D01*
X037287Y020051D01*
X037283Y020052D01*
X037279Y020053D01*
X037275Y020054D01*
X037271Y020056D01*
X037267Y020058D01*
X037262Y020060D01*
X037258Y020063D01*
X037254Y020066D01*
X037250Y020070D01*
X037246Y020074D01*
X037246Y020074D01*
X037246Y020075D01*
X037245Y020077D01*
X037243Y020078D01*
X037242Y020081D01*
X037240Y020083D01*
X037239Y020087D01*
X037237Y020090D01*
X037236Y020094D01*
X037234Y020099D01*
X037232Y020103D01*
X037231Y020109D01*
X037229Y020120D01*
X037228Y020126D01*
X037228Y020132D01*
Y020132D01*
Y020133D01*
Y020134D01*
Y020136D01*
X037228Y020138D01*
Y020140D01*
X037229Y020146D01*
X037230Y020153D01*
X037232Y020160D01*
X037234Y020167D01*
X037236Y020175D01*
Y020175D01*
X037237Y020176D01*
X037237Y020177D01*
X037238Y020178D01*
X037240Y020182D01*
X037243Y020186D01*
X037246Y020191D01*
X037250Y020196D01*
X037255Y020201D01*
X037261Y020205D01*
X037261D01*
X037261Y020206D01*
X037262Y020206D01*
X037264Y020207D01*
X037267Y020209D01*
X037271Y020211D01*
X037277Y020213D01*
X037283Y020215D01*
X037291Y020216D01*
X037298Y020216D01*
X037301D01*
X037303Y020216D01*
D02*
G37*
G36*
X033406Y022173D02*
X033406Y022173D01*
X033407Y022173D01*
X033408Y022173D01*
X033409Y022172D01*
X033411Y022171D01*
X033413Y022171D01*
X033418Y022169D01*
X033423Y022166D01*
X033429Y022162D01*
X033435Y022157D01*
X033442Y022150D01*
X033442Y022150D01*
X033442Y022149D01*
X033444Y022148D01*
X033445Y022146D01*
X033446Y022144D01*
X033448Y022141D01*
X033450Y022138D01*
X033451Y022134D01*
X033453Y022130D01*
X033455Y022126D01*
X033456Y022122D01*
X033457Y022117D01*
X033458Y022112D01*
X033458Y022107D01*
X033458Y022102D01*
X033457Y022096D01*
X033457Y022096D01*
X033456Y022095D01*
X033456Y022093D01*
X033455Y022090D01*
X033454Y022087D01*
X033452Y022083D01*
X033450Y022079D01*
X033447Y022074D01*
X033444Y022069D01*
X033440Y022063D01*
X033435Y022056D01*
X033430Y022050D01*
X033424Y022043D01*
X033417Y022036D01*
X033409Y022028D01*
X033401Y022021D01*
X033401Y022021D01*
X033400Y022020D01*
X033398Y022018D01*
X033396Y022017D01*
X033393Y022015D01*
X033390Y022012D01*
X033387Y022010D01*
X033383Y022007D01*
X033374Y022001D01*
X033365Y021995D01*
X033356Y021990D01*
X033351Y021988D01*
X033347Y021986D01*
X033346Y021985D01*
X033346Y021985D01*
X033344Y021985D01*
X033343Y021984D01*
X033340Y021983D01*
X033338Y021983D01*
X033332Y021981D01*
X033325Y021980D01*
X033318Y021979D01*
X033310Y021979D01*
X033302Y021980D01*
X033302Y021981D01*
X033302Y021980D01*
X033300Y021981D01*
X033299Y021981D01*
X033297Y021982D01*
X033295Y021983D01*
X033290Y021985D01*
X033284Y021988D01*
X033278Y021991D01*
X033272Y021997D01*
X033266Y022003D01*
X033266Y022003D01*
X033266Y022004D01*
X033265Y022004D01*
X033264Y022005D01*
X033262Y022008D01*
X033260Y022012D01*
X033258Y022016D01*
X033255Y022021D01*
X033253Y022026D01*
X033252Y022032D01*
X033251Y022032D01*
X033251Y022033D01*
X033251Y022035D01*
X033251Y022038D01*
X033250Y022042D01*
X033251Y022046D01*
X033251Y022052D01*
X033252Y022057D01*
X033253Y022063D01*
X033253Y022064D01*
X033254Y022066D01*
X033255Y022068D01*
X033257Y022073D01*
X033259Y022078D01*
X033262Y022083D01*
X033266Y022089D01*
X033270Y022095D01*
X033270Y022095D01*
X033270Y022096D01*
X033271Y022097D01*
X033272Y022098D01*
X033273Y022100D01*
X033275Y022101D01*
X033276Y022104D01*
X033279Y022106D01*
X033281Y022109D01*
X033284Y022111D01*
X033287Y022115D01*
X033290Y022118D01*
X033294Y022122D01*
X033298Y022125D01*
X033302Y022129D01*
X033307Y022133D01*
X033307Y022133D01*
X033308Y022134D01*
X033310Y022135D01*
X033312Y022137D01*
X033315Y022139D01*
X033318Y022142D01*
X033321Y022144D01*
X033325Y022147D01*
X033333Y022153D01*
X033343Y022158D01*
X033352Y022163D01*
X033356Y022166D01*
X033361Y022167D01*
X033361Y022168D01*
X033362Y022168D01*
X033364Y022168D01*
X033365Y022169D01*
X033367Y022170D01*
X033370Y022170D01*
X033376Y022172D01*
X033382Y022173D01*
X033390Y022174D01*
X033398Y022174D01*
X033406Y022173D01*
D02*
G37*
G36*
X033364Y022237D02*
X033340Y022217D01*
X033319Y022241D01*
X033343Y022261D01*
X033364Y022237D01*
D02*
G37*
G36*
X033199Y022433D02*
X033027Y022289D01*
X033008Y022312D01*
X033160Y022439D01*
X033089Y022524D01*
X033109Y022541D01*
X033199Y022433D01*
D02*
G37*
G36*
X036636Y020216D02*
X036638Y020216D01*
X036643Y020215D01*
X036649Y020214D01*
X036655Y020212D01*
X036661Y020209D01*
X036668Y020205D01*
X036668D01*
X036668Y020205D01*
X036670Y020203D01*
X036673Y020201D01*
X036677Y020197D01*
X036680Y020193D01*
X036684Y020188D01*
X036688Y020182D01*
X036692Y020175D01*
Y020175D01*
X036692Y020174D01*
X036692Y020173D01*
X036693Y020172D01*
X036693Y020170D01*
X036694Y020168D01*
X036696Y020162D01*
X036697Y020156D01*
X036699Y020149D01*
X036700Y020141D01*
X036700Y020132D01*
Y020132D01*
Y020131D01*
Y020130D01*
Y020128D01*
X036700Y020126D01*
Y020123D01*
X036699Y020117D01*
X036698Y020110D01*
X036696Y020103D01*
X036694Y020095D01*
X036691Y020087D01*
Y020087D01*
X036691Y020086D01*
X036690Y020085D01*
X036689Y020084D01*
X036687Y020080D01*
X036684Y020076D01*
X036680Y020071D01*
X036676Y020066D01*
X036671Y020061D01*
X036665Y020057D01*
X036664D01*
X036664Y020056D01*
X036663Y020056D01*
X036662Y020055D01*
X036658Y020054D01*
X036654Y020052D01*
X036648Y020050D01*
X036643Y020048D01*
X036636Y020047D01*
X036629Y020046D01*
X036627D01*
X036624Y020047D01*
X036621Y020047D01*
X036617Y020048D01*
X036613Y020049D01*
X036609Y020050D01*
X036604Y020052D01*
X036604Y020052D01*
X036602Y020053D01*
X036600Y020054D01*
X036598Y020056D01*
X036595Y020058D01*
X036592Y020061D01*
X036589Y020064D01*
X036587Y020067D01*
Y019988D01*
X036559D01*
Y020213D01*
X036584D01*
Y020191D01*
X036584Y020192D01*
X036586Y020193D01*
X036587Y020195D01*
X036590Y020198D01*
X036593Y020201D01*
X036596Y020204D01*
X036600Y020207D01*
X036604Y020210D01*
X036604Y020210D01*
X036606Y020211D01*
X036608Y020212D01*
X036611Y020213D01*
X036615Y020214D01*
X036620Y020215D01*
X036625Y020216D01*
X036631Y020216D01*
X036634D01*
X036636Y020216D01*
D02*
G37*
G36*
X037804Y020050D02*
X037775D01*
Y020238D01*
X037710Y020050D01*
X037683D01*
X037618Y020241D01*
Y020050D01*
X037590D01*
Y020274D01*
X037634D01*
X037687Y020115D01*
Y020115D01*
X037688Y020114D01*
X037688Y020113D01*
X037689Y020112D01*
X037690Y020108D01*
X037692Y020103D01*
X037693Y020097D01*
X037695Y020092D01*
X037697Y020087D01*
X037698Y020082D01*
X037698Y020083D01*
X037699Y020084D01*
X037700Y020087D01*
X037701Y020091D01*
X037703Y020096D01*
X037705Y020102D01*
X037707Y020110D01*
X037710Y020118D01*
X037764Y020274D01*
X037804D01*
Y020050D01*
D02*
G37*
G36*
X038780D02*
X038755D01*
Y020070D01*
X038754Y020070D01*
X038754Y020069D01*
X038753Y020068D01*
X038752Y020067D01*
X038750Y020065D01*
X038748Y020063D01*
X038746Y020061D01*
X038743Y020058D01*
X038740Y020056D01*
X038737Y020054D01*
X038733Y020052D01*
X038729Y020050D01*
X038725Y020049D01*
X038720Y020047D01*
X038715Y020047D01*
X038709Y020046D01*
X038707D01*
X038706Y020047D01*
X038702Y020047D01*
X038697Y020048D01*
X038692Y020049D01*
X038686Y020051D01*
X038680Y020054D01*
X038673Y020057D01*
X038673D01*
X038673Y020058D01*
X038671Y020059D01*
X038668Y020062D01*
X038664Y020065D01*
X038660Y020069D01*
X038656Y020074D01*
X038652Y020080D01*
X038648Y020087D01*
Y020087D01*
X038648Y020088D01*
X038647Y020089D01*
X038647Y020090D01*
X038646Y020092D01*
X038645Y020094D01*
X038645Y020097D01*
X038644Y020100D01*
X038642Y020106D01*
X038641Y020113D01*
X038640Y020122D01*
X038639Y020131D01*
Y020131D01*
Y020132D01*
Y020133D01*
Y020135D01*
X038640Y020137D01*
Y020140D01*
X038640Y020146D01*
X038641Y020152D01*
X038643Y020160D01*
X038645Y020168D01*
X038647Y020175D01*
Y020175D01*
X038648Y020176D01*
X038648Y020177D01*
X038649Y020178D01*
X038651Y020182D01*
X038654Y020186D01*
X038657Y020191D01*
X038661Y020196D01*
X038666Y020201D01*
X038672Y020206D01*
X038672D01*
X038672Y020206D01*
X038673Y020206D01*
X038675Y020207D01*
X038678Y020209D01*
X038682Y020211D01*
X038688Y020213D01*
X038694Y020215D01*
X038701Y020216D01*
X038708Y020216D01*
X038710D01*
X038713Y020216D01*
X038716Y020216D01*
X038721Y020215D01*
X038725Y020214D01*
X038730Y020212D01*
X038734Y020210D01*
X038735Y020209D01*
X038736Y020209D01*
X038738Y020207D01*
X038740Y020206D01*
X038744Y020203D01*
X038747Y020200D01*
X038750Y020197D01*
X038753Y020194D01*
Y020274D01*
X038780D01*
Y020050D01*
D02*
G37*
G36*
X036865D02*
X036840D01*
Y020074D01*
X036840Y020073D01*
X036839Y020072D01*
X036838Y020071D01*
X036836Y020069D01*
X036834Y020068D01*
X036832Y020065D01*
X036830Y020063D01*
X036826Y020060D01*
X036823Y020057D01*
X036819Y020055D01*
X036815Y020053D01*
X036810Y020051D01*
X036805Y020049D01*
X036800Y020048D01*
X036794Y020047D01*
X036788Y020046D01*
X036786D01*
X036783Y020047D01*
X036779Y020047D01*
X036775Y020048D01*
X036771Y020049D01*
X036766Y020050D01*
X036761Y020052D01*
X036761Y020052D01*
X036759Y020053D01*
X036757Y020054D01*
X036754Y020056D01*
X036751Y020058D01*
X036748Y020060D01*
X036745Y020063D01*
X036743Y020066D01*
X036742Y020066D01*
X036742Y020067D01*
X036741Y020069D01*
X036739Y020071D01*
X036738Y020074D01*
X036737Y020078D01*
X036735Y020082D01*
X036734Y020086D01*
Y020086D01*
X036734Y020088D01*
X036734Y020090D01*
Y020092D01*
X036733Y020096D01*
X036733Y020100D01*
X036733Y020106D01*
Y020112D01*
Y020213D01*
X036760D01*
Y020122D01*
Y020122D01*
Y020121D01*
Y020120D01*
Y020119D01*
Y020115D01*
X036761Y020111D01*
Y020106D01*
X036761Y020101D01*
X036761Y020097D01*
X036762Y020093D01*
Y020093D01*
X036762Y020091D01*
X036763Y020090D01*
X036764Y020087D01*
X036766Y020084D01*
X036768Y020081D01*
X036770Y020079D01*
X036773Y020076D01*
X036773Y020076D01*
X036774Y020075D01*
X036776Y020074D01*
X036779Y020073D01*
X036782Y020072D01*
X036785Y020071D01*
X036789Y020070D01*
X036794Y020070D01*
X036796D01*
X036798Y020070D01*
X036801Y020071D01*
X036805Y020072D01*
X036808Y020073D01*
X036813Y020074D01*
X036817Y020076D01*
X036818Y020077D01*
X036819Y020078D01*
X036821Y020079D01*
X036823Y020081D01*
X036826Y020083D01*
X036828Y020086D01*
X036830Y020090D01*
X036832Y020093D01*
X036833Y020094D01*
X036833Y020095D01*
X036834Y020098D01*
X036835Y020102D01*
X036836Y020106D01*
X036836Y020112D01*
X036837Y020118D01*
X036837Y020125D01*
Y020213D01*
X036865D01*
Y020050D01*
D02*
G37*
G36*
X036472Y020216D02*
X036474D01*
X036476Y020216D01*
X036482Y020215D01*
X036488Y020213D01*
X036494Y020210D01*
X036500Y020207D01*
X036505Y020203D01*
X036506Y020202D01*
X036507Y020200D01*
X036509Y020197D01*
X036510Y020195D01*
X036512Y020193D01*
X036513Y020190D01*
X036514Y020187D01*
X036515Y020183D01*
X036516Y020180D01*
X036517Y020176D01*
X036518Y020171D01*
X036518Y020167D01*
Y020161D01*
Y020050D01*
X036491D01*
Y020152D01*
Y020152D01*
Y020153D01*
Y020155D01*
Y020158D01*
X036490Y020161D01*
X036490Y020165D01*
X036490Y020169D01*
X036489Y020173D01*
X036488Y020176D01*
Y020176D01*
X036487Y020177D01*
X036487Y020178D01*
X036486Y020180D01*
X036484Y020182D01*
X036483Y020184D01*
X036481Y020186D01*
X036478Y020188D01*
X036478Y020188D01*
X036477Y020188D01*
X036476Y020189D01*
X036473Y020190D01*
X036471Y020191D01*
X036468Y020192D01*
X036465Y020192D01*
X036462Y020192D01*
X036460D01*
X036459Y020192D01*
X036456Y020192D01*
X036452Y020191D01*
X036447Y020189D01*
X036442Y020187D01*
X036437Y020184D01*
X036433Y020181D01*
X036433Y020180D01*
X036431Y020178D01*
X036429Y020176D01*
X036427Y020172D01*
X036425Y020167D01*
X036424Y020160D01*
X036422Y020153D01*
X036422Y020144D01*
Y020050D01*
X036394D01*
Y020155D01*
Y020156D01*
Y020156D01*
Y020157D01*
Y020158D01*
X036394Y020162D01*
X036393Y020166D01*
X036392Y020170D01*
X036391Y020175D01*
X036390Y020179D01*
X036387Y020183D01*
X036387Y020183D01*
X036386Y020184D01*
X036384Y020186D01*
X036382Y020188D01*
X036379Y020189D01*
X036375Y020191D01*
X036371Y020192D01*
X036365Y020192D01*
X036363D01*
X036361Y020192D01*
X036358Y020192D01*
X036355Y020191D01*
X036351Y020190D01*
X036348Y020188D01*
X036344Y020186D01*
X036344Y020186D01*
X036342Y020185D01*
X036341Y020183D01*
X036338Y020182D01*
X036336Y020179D01*
X036334Y020176D01*
X036332Y020172D01*
X036330Y020168D01*
X036329Y020167D01*
X036329Y020166D01*
X036328Y020163D01*
X036327Y020160D01*
X036326Y020155D01*
X036326Y020149D01*
X036325Y020142D01*
X036325Y020134D01*
Y020050D01*
X036298D01*
Y020213D01*
X036322D01*
Y020189D01*
X036322Y020190D01*
X036323Y020191D01*
X036325Y020194D01*
X036328Y020196D01*
X036331Y020199D01*
X036334Y020203D01*
X036338Y020206D01*
X036343Y020209D01*
X036343Y020209D01*
X036345Y020210D01*
X036347Y020211D01*
X036351Y020213D01*
X036355Y020214D01*
X036360Y020215D01*
X036366Y020216D01*
X036371Y020216D01*
X036374D01*
X036378Y020216D01*
X036382Y020215D01*
X036387Y020214D01*
X036391Y020213D01*
X036396Y020211D01*
X036401Y020208D01*
X036402Y020208D01*
X036403Y020207D01*
X036405Y020206D01*
X036407Y020203D01*
X036410Y020200D01*
X036413Y020196D01*
X036415Y020192D01*
X036417Y020187D01*
X036418Y020188D01*
X036418Y020189D01*
X036419Y020190D01*
X036421Y020192D01*
X036423Y020194D01*
X036425Y020196D01*
X036428Y020199D01*
X036431Y020202D01*
X036435Y020205D01*
X036438Y020207D01*
X036442Y020209D01*
X036447Y020212D01*
X036452Y020214D01*
X036457Y020215D01*
X036462Y020216D01*
X036468Y020216D01*
X036470D01*
X036472Y020216D01*
D02*
G37*
G36*
X037146D02*
X037149Y020216D01*
X037154Y020215D01*
X037158Y020214D01*
X037163Y020213D01*
X037167Y020211D01*
X037168Y020210D01*
X037169Y020210D01*
X037172Y020209D01*
X037174Y020207D01*
X037178Y020205D01*
X037180Y020203D01*
X037183Y020200D01*
X037186Y020197D01*
X037186Y020196D01*
X037187Y020195D01*
X037188Y020194D01*
X037189Y020191D01*
X037191Y020188D01*
X037192Y020185D01*
X037194Y020181D01*
X037195Y020177D01*
Y020176D01*
X037195Y020175D01*
X037195Y020173D01*
X037196Y020171D01*
Y020167D01*
X037196Y020162D01*
X037196Y020157D01*
Y020150D01*
Y020050D01*
X037169D01*
Y020148D01*
Y020149D01*
Y020149D01*
Y020151D01*
Y020154D01*
X037168Y020158D01*
X037168Y020162D01*
X037167Y020166D01*
X037166Y020170D01*
X037166Y020174D01*
Y020174D01*
X037165Y020175D01*
X037164Y020177D01*
X037163Y020179D01*
X037161Y020181D01*
X037159Y020183D01*
X037157Y020185D01*
X037154Y020187D01*
X037154Y020187D01*
X037153Y020188D01*
X037151Y020189D01*
X037148Y020190D01*
X037146Y020191D01*
X037143Y020192D01*
X037139Y020192D01*
X037135Y020192D01*
X037133D01*
X037132Y020192D01*
X037129Y020192D01*
X037124Y020191D01*
X037120Y020189D01*
X037115Y020187D01*
X037109Y020185D01*
X037105Y020181D01*
X037104Y020180D01*
X037103Y020179D01*
X037102Y020177D01*
X037101Y020176D01*
X037099Y020174D01*
X037098Y020171D01*
X037097Y020169D01*
X037096Y020166D01*
X037095Y020162D01*
X037094Y020158D01*
X037093Y020154D01*
X037093Y020149D01*
X037092Y020144D01*
Y020138D01*
Y020050D01*
X037064D01*
Y020213D01*
X037089D01*
Y020189D01*
X037089Y020190D01*
X037090Y020191D01*
X037091Y020192D01*
X037092Y020194D01*
X037094Y020195D01*
X037097Y020198D01*
X037099Y020200D01*
X037102Y020203D01*
X037106Y020205D01*
X037109Y020208D01*
X037114Y020210D01*
X037118Y020212D01*
X037123Y020214D01*
X037129Y020215D01*
X037134Y020216D01*
X037141Y020216D01*
X037143D01*
X037146Y020216D01*
D02*
G37*
G36*
X038431Y020050D02*
X038402D01*
Y020238D01*
X038337Y020050D01*
X038310D01*
X038245Y020241D01*
Y020050D01*
X038217D01*
Y020274D01*
X038261D01*
X038314Y020115D01*
Y020115D01*
X038315Y020114D01*
X038315Y020113D01*
X038316Y020112D01*
X038317Y020108D01*
X038319Y020103D01*
X038320Y020097D01*
X038322Y020092D01*
X038324Y020087D01*
X038325Y020082D01*
X038325Y020083D01*
X038326Y020084D01*
X038327Y020087D01*
X038328Y020091D01*
X038330Y020096D01*
X038332Y020102D01*
X038334Y020110D01*
X038337Y020118D01*
X038391Y020274D01*
X038431D01*
Y020050D01*
D02*
G37*
G36*
X035410Y020216D02*
X035412D01*
X035415Y020216D01*
X035421Y020215D01*
X035428Y020213D01*
X035435Y020210D01*
X035442Y020207D01*
X035449Y020203D01*
X035449D01*
X035449Y020202D01*
X035451Y020200D01*
X035454Y020197D01*
X035458Y020193D01*
X035461Y020188D01*
X035465Y020181D01*
X035468Y020174D01*
X035470Y020165D01*
X035443Y020161D01*
Y020161D01*
X035443Y020161D01*
X035443Y020163D01*
X035442Y020166D01*
X035440Y020170D01*
X035439Y020174D01*
X035436Y020178D01*
X035433Y020182D01*
X035430Y020185D01*
X035430Y020185D01*
X035428Y020186D01*
X035426Y020188D01*
X035423Y020189D01*
X035420Y020191D01*
X035416Y020192D01*
X035411Y020193D01*
X035407Y020194D01*
X035405D01*
X035403Y020193D01*
X035399Y020193D01*
X035395Y020192D01*
X035389Y020190D01*
X035384Y020187D01*
X035378Y020183D01*
X035375Y020181D01*
X035373Y020179D01*
Y020178D01*
X035372Y020178D01*
X035372Y020177D01*
X035371Y020176D01*
X035370Y020174D01*
X035369Y020172D01*
X035368Y020170D01*
X035366Y020167D01*
X035365Y020164D01*
X035364Y020160D01*
X035363Y020157D01*
X035362Y020152D01*
X035361Y020148D01*
X035361Y020143D01*
X035360Y020137D01*
Y020131D01*
Y020131D01*
Y020130D01*
Y020128D01*
X035360Y020126D01*
Y020123D01*
X035361Y020120D01*
X035361Y020113D01*
X035363Y020105D01*
X035365Y020097D01*
X035368Y020090D01*
X035370Y020087D01*
X035372Y020084D01*
X035373Y020083D01*
X035374Y020081D01*
X035377Y020079D01*
X035381Y020077D01*
X035386Y020074D01*
X035391Y020071D01*
X035398Y020070D01*
X035401Y020069D01*
X035405Y020069D01*
X035406D01*
X035407Y020069D01*
X035411Y020070D01*
X035414Y020070D01*
X035419Y020071D01*
X035423Y020073D01*
X035428Y020076D01*
X035432Y020079D01*
X035432Y020079D01*
X035433Y020081D01*
X035435Y020083D01*
X035438Y020087D01*
X035440Y020091D01*
X035442Y020096D01*
X035444Y020102D01*
X035446Y020110D01*
X035473Y020106D01*
Y020106D01*
X035473Y020105D01*
X035472Y020103D01*
X035472Y020102D01*
X035471Y020099D01*
X035471Y020096D01*
X035468Y020090D01*
X035465Y020083D01*
X035461Y020076D01*
X035456Y020068D01*
X035453Y020065D01*
X035450Y020062D01*
X035450Y020062D01*
X035449Y020061D01*
X035448Y020061D01*
X035447Y020060D01*
X035445Y020058D01*
X035443Y020057D01*
X035440Y020056D01*
X035438Y020054D01*
X035431Y020051D01*
X035423Y020049D01*
X035415Y020047D01*
X035410Y020047D01*
X035405Y020046D01*
X035402D01*
X035400Y020047D01*
X035397Y020047D01*
X035394Y020048D01*
X035390Y020048D01*
X035386Y020049D01*
X035377Y020052D01*
X035373Y020054D01*
X035369Y020056D01*
X035364Y020058D01*
X035360Y020061D01*
X035356Y020064D01*
X035352Y020068D01*
X035351Y020068D01*
X035351Y020069D01*
X035350Y020070D01*
X035349Y020072D01*
X035347Y020074D01*
X035345Y020077D01*
X035344Y020080D01*
X035342Y020084D01*
X035340Y020088D01*
X035338Y020093D01*
X035336Y020098D01*
X035335Y020104D01*
X035334Y020110D01*
X035333Y020116D01*
X035332Y020123D01*
X035332Y020131D01*
Y020131D01*
Y020132D01*
Y020133D01*
Y020135D01*
X035332Y020137D01*
Y020140D01*
X035332Y020143D01*
X035333Y020146D01*
X035334Y020153D01*
X035335Y020161D01*
X035337Y020169D01*
X035340Y020177D01*
Y020177D01*
X035340Y020178D01*
X035341Y020179D01*
X035342Y020180D01*
X035344Y020183D01*
X035347Y020188D01*
X035350Y020193D01*
X035355Y020197D01*
X035361Y020202D01*
X035367Y020206D01*
X035367D01*
X035368Y020206D01*
X035369Y020207D01*
X035370Y020208D01*
X035372Y020208D01*
X035373Y020209D01*
X035378Y020211D01*
X035384Y020213D01*
X035391Y020215D01*
X035398Y020216D01*
X035406Y020216D01*
X035408D01*
X035410Y020216D01*
D02*
G37*
G36*
X036003Y020278D02*
X036006Y020277D01*
X036010Y020277D01*
X036013Y020277D01*
X036018Y020276D01*
X036026Y020274D01*
X036036Y020271D01*
X036041Y020269D01*
X036045Y020267D01*
X036050Y020264D01*
X036055Y020261D01*
X036055Y020261D01*
X036055Y020260D01*
X036057Y020259D01*
X036058Y020258D01*
X036060Y020256D01*
X036062Y020254D01*
X036065Y020251D01*
X036067Y020249D01*
X036070Y020245D01*
X036072Y020241D01*
X036075Y020238D01*
X036078Y020233D01*
X036080Y020229D01*
X036083Y020224D01*
X036085Y020218D01*
X036087Y020213D01*
X036057Y020206D01*
Y020206D01*
X036057Y020207D01*
X036056Y020208D01*
X036056Y020210D01*
X036055Y020212D01*
X036054Y020214D01*
X036052Y020219D01*
X036048Y020225D01*
X036044Y020231D01*
X036040Y020237D01*
X036034Y020241D01*
X036034Y020242D01*
X036032Y020243D01*
X036029Y020245D01*
X036024Y020247D01*
X036019Y020249D01*
X036013Y020251D01*
X036005Y020252D01*
X035997Y020253D01*
X035995D01*
X035993Y020252D01*
X035991D01*
X035988Y020252D01*
X035982Y020251D01*
X035975Y020250D01*
X035968Y020248D01*
X035961Y020244D01*
X035954Y020240D01*
X035953D01*
X035953Y020240D01*
X035951Y020238D01*
X035948Y020235D01*
X035944Y020231D01*
X035940Y020227D01*
X035936Y020221D01*
X035933Y020214D01*
X035929Y020207D01*
Y020206D01*
X035929Y020206D01*
X035929Y020205D01*
X035928Y020203D01*
X035928Y020201D01*
X035927Y020199D01*
X035926Y020194D01*
X035925Y020187D01*
X035924Y020180D01*
X035923Y020172D01*
X035923Y020164D01*
Y020163D01*
Y020162D01*
Y020161D01*
Y020159D01*
X035923Y020157D01*
Y020154D01*
X035923Y020150D01*
X035924Y020147D01*
X035925Y020139D01*
X035926Y020131D01*
X035928Y020122D01*
X035931Y020114D01*
Y020113D01*
X035931Y020113D01*
X035932Y020112D01*
X035932Y020110D01*
X035934Y020106D01*
X035937Y020102D01*
X035941Y020097D01*
X035945Y020091D01*
X035951Y020086D01*
X035957Y020082D01*
X035957D01*
X035958Y020081D01*
X035959Y020081D01*
X035960Y020080D01*
X035962Y020079D01*
X035963Y020079D01*
X035968Y020077D01*
X035974Y020075D01*
X035980Y020073D01*
X035987Y020072D01*
X035995Y020071D01*
X035997D01*
X035999Y020072D01*
X036001D01*
X036004Y020072D01*
X036009Y020073D01*
X036016Y020075D01*
X036023Y020078D01*
X036030Y020081D01*
X036034Y020083D01*
X036037Y020086D01*
X036037Y020086D01*
X036038Y020086D01*
X036039Y020087D01*
X036040Y020088D01*
X036041Y020090D01*
X036043Y020092D01*
X036045Y020094D01*
X036046Y020096D01*
X036048Y020099D01*
X036051Y020102D01*
X036053Y020106D01*
X036055Y020110D01*
X036056Y020114D01*
X036058Y020118D01*
X036059Y020123D01*
X036061Y020128D01*
X036090Y020121D01*
Y020121D01*
X036090Y020119D01*
X036090Y020117D01*
X036089Y020115D01*
X036088Y020112D01*
X036086Y020108D01*
X036085Y020104D01*
X036083Y020100D01*
X036078Y020091D01*
X036072Y020082D01*
X036069Y020078D01*
X036065Y020073D01*
X036061Y020069D01*
X036057Y020065D01*
X036056Y020065D01*
X036056Y020064D01*
X036054Y020064D01*
X036053Y020062D01*
X036050Y020061D01*
X036047Y020059D01*
X036044Y020057D01*
X036040Y020056D01*
X036036Y020054D01*
X036032Y020052D01*
X036027Y020051D01*
X036021Y020049D01*
X036016Y020048D01*
X036010Y020047D01*
X036004Y020046D01*
X035997Y020046D01*
X035994D01*
X035991Y020046D01*
X035988D01*
X035985Y020047D01*
X035981Y020047D01*
X035976Y020048D01*
X035967Y020050D01*
X035957Y020052D01*
X035948Y020056D01*
X035943Y020058D01*
X035939Y020061D01*
X035938Y020061D01*
X035938Y020061D01*
X035936Y020062D01*
X035935Y020064D01*
X035933Y020065D01*
X035931Y020067D01*
X035928Y020069D01*
X035926Y020072D01*
X035923Y020075D01*
X035920Y020078D01*
X035914Y020085D01*
X035909Y020094D01*
X035904Y020103D01*
Y020104D01*
X035903Y020105D01*
X035903Y020106D01*
X035902Y020108D01*
X035901Y020111D01*
X035900Y020114D01*
X035899Y020118D01*
X035898Y020122D01*
X035897Y020126D01*
X035896Y020131D01*
X035894Y020141D01*
X035893Y020152D01*
X035892Y020164D01*
Y020164D01*
Y020165D01*
Y020167D01*
X035893Y020170D01*
Y020173D01*
X035893Y020176D01*
X035893Y020180D01*
X035894Y020184D01*
X035895Y020194D01*
X035898Y020204D01*
X035901Y020215D01*
X035905Y020225D01*
X035906Y020225D01*
X035906Y020226D01*
X035907Y020227D01*
X035908Y020229D01*
X035909Y020231D01*
X035911Y020234D01*
X035915Y020240D01*
X035921Y020246D01*
X035927Y020252D01*
X035935Y020259D01*
X035943Y020264D01*
X035944Y020265D01*
X035945Y020265D01*
X035946Y020266D01*
X035948Y020267D01*
X035950Y020268D01*
X035953Y020269D01*
X035956Y020270D01*
X035960Y020271D01*
X035963Y020273D01*
X035968Y020274D01*
X035977Y020276D01*
X035987Y020277D01*
X035998Y020278D01*
X036001D01*
X036003Y020278D01*
D02*
G37*
G36*
X037022Y020243D02*
X036995D01*
Y020274D01*
X037022D01*
Y020243D01*
D02*
G37*
G36*
X039405Y020216D02*
X039410Y020216D01*
X039416Y020215D01*
X039421Y020214D01*
X039427Y020213D01*
X039432Y020211D01*
X039433Y020211D01*
X039434Y020210D01*
X039436Y020209D01*
X039439Y020208D01*
X039443Y020206D01*
X039446Y020204D01*
X039449Y020201D01*
X039451Y020199D01*
X039452Y020198D01*
X039452Y020197D01*
X039453Y020196D01*
X039455Y020194D01*
X039456Y020191D01*
X039457Y020188D01*
X039459Y020184D01*
X039460Y020180D01*
Y020180D01*
X039460Y020179D01*
X039460Y020177D01*
X039461Y020174D01*
Y020171D01*
X039461Y020167D01*
X039461Y020161D01*
Y020155D01*
Y020118D01*
Y020118D01*
Y020116D01*
Y020114D01*
Y020112D01*
Y020109D01*
Y020105D01*
X039462Y020098D01*
Y020090D01*
X039462Y020081D01*
X039462Y020078D01*
Y020075D01*
X039463Y020072D01*
X039463Y020069D01*
Y020069D01*
X039463Y020068D01*
X039464Y020066D01*
X039465Y020063D01*
X039465Y020060D01*
X039467Y020057D01*
X039468Y020054D01*
X039470Y020050D01*
X039441D01*
X039441Y020050D01*
X039440Y020052D01*
X039440Y020053D01*
X039439Y020056D01*
X039438Y020059D01*
X039437Y020062D01*
X039436Y020066D01*
X039436Y020070D01*
X039435D01*
X039435Y020070D01*
X039433Y020068D01*
X039430Y020066D01*
X039426Y020063D01*
X039422Y020060D01*
X039417Y020057D01*
X039411Y020054D01*
X039406Y020052D01*
X039405Y020051D01*
X039403Y020051D01*
X039400Y020050D01*
X039397Y020049D01*
X039392Y020048D01*
X039387Y020047D01*
X039381Y020047D01*
X039376Y020046D01*
X039373D01*
X039371Y020047D01*
X039369D01*
X039366Y020047D01*
X039360Y020048D01*
X039354Y020050D01*
X039347Y020052D01*
X039340Y020055D01*
X039334Y020059D01*
X039334Y020060D01*
X039332Y020062D01*
X039330Y020065D01*
X039327Y020068D01*
X039325Y020073D01*
X039322Y020079D01*
X039321Y020086D01*
X039320Y020089D01*
X039320Y020093D01*
Y020093D01*
Y020095D01*
X039320Y020097D01*
X039321Y020100D01*
X039321Y020103D01*
X039322Y020107D01*
X039324Y020111D01*
X039325Y020114D01*
X039326Y020115D01*
X039326Y020116D01*
X039328Y020118D01*
X039329Y020120D01*
X039331Y020123D01*
X039334Y020125D01*
X039336Y020128D01*
X039340Y020130D01*
X039340Y020131D01*
X039341Y020131D01*
X039343Y020133D01*
X039345Y020134D01*
X039348Y020135D01*
X039352Y020137D01*
X039355Y020138D01*
X039360Y020139D01*
X039360D01*
X039361Y020140D01*
X039363Y020140D01*
X039366Y020141D01*
X039369Y020141D01*
X039373Y020142D01*
X039378Y020143D01*
X039384Y020144D01*
X039384D01*
X039386Y020144D01*
X039387D01*
X039389Y020144D01*
X039392Y020145D01*
X039395Y020145D01*
X039399Y020146D01*
X039403Y020146D01*
X039411Y020148D01*
X039419Y020149D01*
X039426Y020151D01*
X039430Y020152D01*
X039433Y020153D01*
Y020154D01*
Y020154D01*
X039434Y020156D01*
Y020159D01*
Y020160D01*
Y020160D01*
Y020161D01*
Y020161D01*
Y020163D01*
X039433Y020166D01*
X039433Y020170D01*
X039432Y020174D01*
X039430Y020178D01*
X039428Y020181D01*
X039425Y020184D01*
X039425Y020184D01*
X039423Y020186D01*
X039421Y020187D01*
X039418Y020189D01*
X039413Y020191D01*
X039408Y020192D01*
X039401Y020193D01*
X039394Y020194D01*
X039391D01*
X039388Y020193D01*
X039383Y020193D01*
X039378Y020192D01*
X039374Y020191D01*
X039369Y020189D01*
X039365Y020187D01*
X039365Y020186D01*
X039364Y020185D01*
X039362Y020184D01*
X039360Y020181D01*
X039358Y020178D01*
X039356Y020174D01*
X039354Y020169D01*
X039352Y020163D01*
X039325Y020166D01*
Y020167D01*
X039325Y020167D01*
Y020168D01*
X039326Y020169D01*
X039327Y020172D01*
X039328Y020176D01*
X039330Y020181D01*
X039331Y020185D01*
X039334Y020190D01*
X039337Y020194D01*
X039337Y020194D01*
X039339Y020195D01*
X039341Y020197D01*
X039343Y020200D01*
X039347Y020203D01*
X039351Y020205D01*
X039356Y020208D01*
X039361Y020210D01*
X039362D01*
X039362Y020211D01*
X039363Y020211D01*
X039364Y020211D01*
X039367Y020212D01*
X039372Y020213D01*
X039377Y020214D01*
X039384Y020215D01*
X039390Y020216D01*
X039398Y020216D01*
X039402D01*
X039405Y020216D01*
D02*
G37*
G36*
X038852Y020243D02*
X038824D01*
Y020274D01*
X038852D01*
Y020243D01*
D02*
G37*
G36*
X035044Y020278D02*
X035046D01*
X035052Y020277D01*
X035059Y020276D01*
X035066Y020275D01*
X035074Y020273D01*
X035081Y020270D01*
X035081D01*
X035082Y020270D01*
X035083Y020269D01*
X035084Y020268D01*
X035087Y020267D01*
X035092Y020264D01*
X035096Y020261D01*
X035101Y020256D01*
X035106Y020252D01*
X035110Y020246D01*
Y020246D01*
X035110Y020245D01*
X035111Y020244D01*
X035112Y020243D01*
X035113Y020240D01*
X035115Y020236D01*
X035118Y020231D01*
X035119Y020225D01*
X035121Y020218D01*
X035121Y020211D01*
X035093Y020209D01*
Y020209D01*
Y020210D01*
X035093Y020211D01*
X035092Y020212D01*
X035091Y020216D01*
X035090Y020221D01*
X035088Y020226D01*
X035085Y020231D01*
X035082Y020236D01*
X035077Y020241D01*
X035076Y020241D01*
X035075Y020242D01*
X035071Y020244D01*
X035067Y020246D01*
X035062Y020248D01*
X035055Y020250D01*
X035047Y020251D01*
X035038Y020252D01*
X035034D01*
X035032Y020251D01*
X035029Y020251D01*
X035023Y020250D01*
X035017Y020249D01*
X035010Y020247D01*
X035004Y020245D01*
X035002Y020243D01*
X034999Y020241D01*
X034998Y020241D01*
X034997Y020240D01*
X034995Y020238D01*
X034993Y020235D01*
X034991Y020231D01*
X034989Y020228D01*
X034988Y020223D01*
X034987Y020218D01*
Y020217D01*
Y020216D01*
X034987Y020214D01*
X034988Y020211D01*
X034989Y020208D01*
X034990Y020205D01*
X034992Y020201D01*
X034995Y020198D01*
X034996Y020198D01*
X034997Y020197D01*
X034999Y020196D01*
X035000Y020195D01*
X035002Y020194D01*
X035004Y020193D01*
X035007Y020192D01*
X035010Y020191D01*
X035014Y020189D01*
X035018Y020188D01*
X035023Y020186D01*
X035028Y020185D01*
X035034Y020183D01*
X035040Y020182D01*
X035040D01*
X035042Y020182D01*
X035044Y020181D01*
X035046Y020181D01*
X035049Y020180D01*
X035052Y020179D01*
X035056Y020178D01*
X035060Y020177D01*
X035068Y020175D01*
X035076Y020172D01*
X035080Y020171D01*
X035084Y020170D01*
X035087Y020169D01*
X035090Y020168D01*
X035090D01*
X035091Y020167D01*
X035092Y020167D01*
X035093Y020166D01*
X035096Y020164D01*
X035101Y020161D01*
X035106Y020158D01*
X035110Y020154D01*
X035115Y020149D01*
X035119Y020145D01*
X035119Y020144D01*
X035120Y020142D01*
X035122Y020139D01*
X035124Y020136D01*
X035125Y020131D01*
X035127Y020125D01*
X035128Y020119D01*
X035128Y020113D01*
Y020113D01*
Y020112D01*
Y020111D01*
Y020110D01*
X035128Y020106D01*
X035127Y020102D01*
X035126Y020097D01*
X035124Y020091D01*
X035121Y020085D01*
X035118Y020079D01*
Y020079D01*
X035118Y020079D01*
X035116Y020077D01*
X035114Y020074D01*
X035110Y020070D01*
X035106Y020067D01*
X035101Y020062D01*
X035095Y020058D01*
X035088Y020055D01*
X035088D01*
X035087Y020055D01*
X035086Y020054D01*
X035085Y020054D01*
X035083Y020053D01*
X035081Y020052D01*
X035076Y020051D01*
X035070Y020049D01*
X035062Y020047D01*
X035054Y020046D01*
X035045Y020046D01*
X035040D01*
X035037Y020046D01*
X035035D01*
X035031Y020047D01*
X035027Y020047D01*
X035019Y020048D01*
X035011Y020050D01*
X035002Y020052D01*
X034994Y020055D01*
X034994D01*
X034993Y020055D01*
X034992Y020056D01*
X034991Y020056D01*
X034987Y020058D01*
X034983Y020061D01*
X034978Y020065D01*
X034972Y020070D01*
X034967Y020075D01*
X034962Y020081D01*
Y020082D01*
X034961Y020082D01*
X034961Y020083D01*
X034960Y020085D01*
X034959Y020086D01*
X034958Y020088D01*
X034956Y020093D01*
X034954Y020099D01*
X034952Y020106D01*
X034951Y020114D01*
X034950Y020122D01*
X034978Y020125D01*
Y020124D01*
Y020124D01*
X034978Y020123D01*
Y020122D01*
X034979Y020119D01*
X034980Y020114D01*
X034981Y020110D01*
X034982Y020105D01*
X034985Y020101D01*
X034987Y020097D01*
X034987Y020096D01*
X034988Y020095D01*
X034990Y020093D01*
X034992Y020090D01*
X034996Y020088D01*
X034999Y020085D01*
X035004Y020082D01*
X035009Y020079D01*
X035010D01*
X035010Y020079D01*
X035011Y020079D01*
X035012Y020078D01*
X035015Y020077D01*
X035019Y020076D01*
X035025Y020075D01*
X035030Y020074D01*
X035037Y020073D01*
X035044Y020073D01*
X035047D01*
X035050Y020073D01*
X035054Y020073D01*
X035059Y020074D01*
X035064Y020075D01*
X035069Y020076D01*
X035074Y020078D01*
X035074Y020078D01*
X035076Y020079D01*
X035078Y020080D01*
X035081Y020081D01*
X035084Y020083D01*
X035087Y020086D01*
X035091Y020088D01*
X035093Y020091D01*
X035094Y020092D01*
X035094Y020093D01*
X035095Y020095D01*
X035096Y020097D01*
X035098Y020100D01*
X035099Y020103D01*
X035099Y020107D01*
X035100Y020111D01*
Y020111D01*
Y020113D01*
X035099Y020114D01*
X035099Y020117D01*
X035098Y020120D01*
X035097Y020123D01*
X035095Y020126D01*
X035093Y020129D01*
X035093Y020129D01*
X035092Y020130D01*
X035091Y020132D01*
X035088Y020134D01*
X035086Y020136D01*
X035082Y020138D01*
X035078Y020140D01*
X035073Y020142D01*
X035073Y020142D01*
X035071Y020143D01*
X035069Y020144D01*
X035067Y020144D01*
X035065Y020145D01*
X035062Y020146D01*
X035060Y020146D01*
X035056Y020147D01*
X035052Y020148D01*
X035048Y020149D01*
X035044Y020150D01*
X035039Y020152D01*
X035033Y020153D01*
X035033D01*
X035032Y020153D01*
X035030Y020154D01*
X035028Y020154D01*
X035026Y020155D01*
X035023Y020156D01*
X035016Y020158D01*
X035009Y020160D01*
X035002Y020162D01*
X034995Y020164D01*
X034992Y020166D01*
X034990Y020167D01*
X034990D01*
X034989Y020167D01*
X034987Y020169D01*
X034984Y020170D01*
X034981Y020173D01*
X034977Y020176D01*
X034973Y020179D01*
X034969Y020183D01*
X034966Y020188D01*
X034966Y020189D01*
X034965Y020190D01*
X034964Y020193D01*
X034962Y020196D01*
X034961Y020200D01*
X034960Y020205D01*
X034959Y020210D01*
X034958Y020216D01*
Y020216D01*
Y020217D01*
Y020218D01*
Y020219D01*
X034959Y020222D01*
X034960Y020226D01*
X034961Y020231D01*
X034962Y020237D01*
X034965Y020242D01*
X034968Y020248D01*
Y020248D01*
X034968Y020248D01*
X034970Y020250D01*
X034972Y020253D01*
X034975Y020256D01*
X034979Y020260D01*
X034984Y020264D01*
X034990Y020267D01*
X034996Y020270D01*
X034996D01*
X034997Y020271D01*
X034998Y020271D01*
X034999Y020272D01*
X035001Y020272D01*
X035003Y020273D01*
X035008Y020274D01*
X035014Y020275D01*
X035021Y020277D01*
X035029Y020278D01*
X035037Y020278D01*
X035041D01*
X035044Y020278D01*
D02*
G37*
G36*
X039187Y020077D02*
X039298D01*
Y020050D01*
X039157D01*
Y020274D01*
X039187D01*
Y020077D01*
D02*
G37*
G36*
X035524Y020243D02*
X035497D01*
Y020274D01*
X035524D01*
Y020243D01*
D02*
G37*
%LPC*%
G36*
X033660Y021734D02*
X033659Y021733D01*
X033659Y021733D01*
X033658Y021732D01*
X033657Y021731D01*
X033655Y021728D01*
X033652Y021725D01*
X033649Y021720D01*
X033647Y021716D01*
X033645Y021711D01*
X033643Y021706D01*
X033643Y021706D01*
X033643Y021705D01*
X033643Y021702D01*
X033643Y021699D01*
X033643Y021694D01*
X033644Y021688D01*
X033646Y021682D01*
X033648Y021676D01*
X033650Y021673D01*
X033653Y021669D01*
X033653Y021669D01*
X033653Y021669D01*
X033654Y021668D01*
X033655Y021667D01*
X033658Y021665D01*
X033661Y021662D01*
X033666Y021659D01*
X033671Y021656D01*
X033677Y021654D01*
X033683Y021653D01*
X033684Y021653D01*
X033686Y021653D01*
X033690Y021653D01*
X033694Y021654D01*
X033699Y021655D01*
X033705Y021657D01*
X033712Y021660D01*
X033718Y021664D01*
X033660Y021734D01*
D02*
G37*
G36*
X033967Y021316D02*
X033963Y021316D01*
X033959Y021316D01*
X033955Y021315D01*
X033949Y021313D01*
X033944Y021310D01*
X033938Y021306D01*
X033938Y021306D01*
X033938Y021306D01*
X033937Y021305D01*
X033935Y021303D01*
X033933Y021300D01*
X033930Y021297D01*
X033928Y021293D01*
X033926Y021289D01*
X033925Y021285D01*
X033925Y021285D01*
X033924Y021283D01*
X033924Y021281D01*
X033924Y021278D01*
X033924Y021274D01*
X033924Y021271D01*
X033925Y021267D01*
X033927Y021262D01*
X033927Y021262D01*
X033927Y021261D01*
X033928Y021259D01*
X033930Y021257D01*
X033932Y021254D01*
X033935Y021250D01*
X033938Y021245D01*
X033943Y021239D01*
X033979Y021196D01*
X034041Y021247D01*
X034004Y021291D01*
X034003Y021292D01*
X034003Y021292D01*
X034002Y021293D01*
X034000Y021295D01*
X033999Y021297D01*
X033997Y021298D01*
X033992Y021303D01*
X033987Y021307D01*
X033981Y021311D01*
X033975Y021314D01*
X033972Y021315D01*
X033969Y021316D01*
X033968Y021316D01*
X033967Y021316D01*
D02*
G37*
G36*
X033394Y022149D02*
X033390Y022148D01*
X033390Y022148D01*
X033389Y022148D01*
X033388Y022148D01*
X033386Y022148D01*
X033383Y022147D01*
X033380Y022146D01*
X033377Y022145D01*
X033373Y022143D01*
X033369Y022141D01*
X033364Y022139D01*
X033359Y022136D01*
X033353Y022132D01*
X033347Y022128D01*
X033340Y022123D01*
X033333Y022118D01*
X033325Y022111D01*
X033325Y022111D01*
X033324Y022111D01*
X033323Y022110D01*
X033321Y022108D01*
X033318Y022105D01*
X033315Y022103D01*
X033311Y022099D01*
X033307Y022095D01*
X033303Y022091D01*
X033295Y022082D01*
X033290Y022077D01*
X033287Y022072D01*
X033283Y022068D01*
X033281Y022063D01*
X033279Y022058D01*
X033277Y022054D01*
X033277Y022054D01*
X033277Y022053D01*
X033277Y022052D01*
X033276Y022051D01*
X033276Y022046D01*
X033275Y022041D01*
X033276Y022036D01*
X033277Y022029D01*
X033278Y022026D01*
X033280Y022023D01*
X033282Y022020D01*
X033284Y022017D01*
X033284Y022017D01*
X033284Y022017D01*
X033285Y022016D01*
X033286Y022015D01*
X033289Y022013D01*
X033292Y022010D01*
X033297Y022008D01*
X033302Y022006D01*
X033306Y022005D01*
X033309Y022004D01*
X033312Y022004D01*
X033316Y022004D01*
X033316Y022004D01*
X033317Y022004D01*
X033318Y022005D01*
X033320Y022005D01*
X033323Y022006D01*
X033326Y022007D01*
X033329Y022008D01*
X033333Y022010D01*
X033338Y022012D01*
X033343Y022015D01*
X033349Y022018D01*
X033354Y022021D01*
X033361Y022026D01*
X033368Y022031D01*
X033375Y022036D01*
X033383Y022042D01*
X033383Y022043D01*
X033385Y022044D01*
X033387Y022046D01*
X033390Y022048D01*
X033393Y022051D01*
X033397Y022055D01*
X033401Y022058D01*
X033405Y022063D01*
X033413Y022072D01*
X033417Y022077D01*
X033421Y022082D01*
X033424Y022086D01*
X033427Y022091D01*
X033429Y022095D01*
X033431Y022100D01*
X033431Y022100D01*
X033431Y022100D01*
X033432Y022103D01*
X033432Y022107D01*
X033432Y022112D01*
X033432Y022118D01*
X033430Y022124D01*
X033428Y022130D01*
X033426Y022133D01*
X033424Y022136D01*
X033424Y022136D01*
X033424Y022137D01*
X033423Y022137D01*
X033422Y022138D01*
X033419Y022140D01*
X033415Y022143D01*
X033410Y022145D01*
X033404Y022147D01*
X033401Y022148D01*
X033398Y022148D01*
X033394Y022149D01*
D02*
G37*
G36*
X035231Y020194D02*
X035229D01*
X035228Y020193D01*
X035224Y020193D01*
X035219Y020192D01*
X035214Y020190D01*
X035208Y020187D01*
X035202Y020183D01*
X035199Y020181D01*
X035197Y020178D01*
Y020178D01*
X035196Y020177D01*
X035196Y020176D01*
X035195Y020175D01*
X035194Y020173D01*
X035193Y020171D01*
X035191Y020169D01*
X035190Y020166D01*
X035189Y020163D01*
X035187Y020160D01*
X035187Y020156D01*
X035186Y020152D01*
X035185Y020147D01*
X035184Y020142D01*
X035184Y020137D01*
X035183Y020131D01*
Y020131D01*
Y020130D01*
Y020128D01*
X035184Y020126D01*
Y020124D01*
X035184Y020121D01*
X035185Y020114D01*
X035187Y020106D01*
X035189Y020098D01*
X035192Y020091D01*
X035195Y020088D01*
X035197Y020084D01*
X035197D01*
X035198Y020084D01*
X035199Y020082D01*
X035202Y020079D01*
X035206Y020077D01*
X035211Y020074D01*
X035217Y020071D01*
X035224Y020070D01*
X035227Y020069D01*
X035231Y020069D01*
X035233D01*
X035235Y020069D01*
X035238Y020070D01*
X035243Y020071D01*
X035248Y020073D01*
X035254Y020076D01*
X035260Y020079D01*
X035263Y020082D01*
X035265Y020085D01*
X035266Y020085D01*
X035266Y020085D01*
X035267Y020086D01*
X035268Y020088D01*
X035268Y020089D01*
X035270Y020091D01*
X035271Y020094D01*
X035272Y020096D01*
X035274Y020100D01*
X035275Y020103D01*
X035276Y020107D01*
X035277Y020111D01*
X035278Y020116D01*
X035279Y020121D01*
X035279Y020126D01*
Y020132D01*
Y020133D01*
Y020134D01*
Y020135D01*
X035279Y020137D01*
Y020140D01*
X035279Y020143D01*
X035278Y020149D01*
X035276Y020157D01*
X035273Y020164D01*
X035270Y020171D01*
X035268Y020175D01*
X035265Y020178D01*
Y020178D01*
X035265Y020179D01*
X035263Y020181D01*
X035260Y020183D01*
X035256Y020186D01*
X035251Y020189D01*
X035245Y020191D01*
X035239Y020193D01*
X035235Y020193D01*
X035231Y020194D01*
D02*
G37*
G36*
X036189D02*
X036187D01*
X036186Y020193D01*
X036182Y020193D01*
X036177Y020192D01*
X036172Y020190D01*
X036166Y020187D01*
X036160Y020183D01*
X036158Y020181D01*
X036155Y020178D01*
Y020178D01*
X036154Y020177D01*
X036154Y020176D01*
X036153Y020175D01*
X036152Y020173D01*
X036151Y020171D01*
X036149Y020169D01*
X036148Y020166D01*
X036147Y020163D01*
X036146Y020160D01*
X036145Y020156D01*
X036144Y020152D01*
X036143Y020147D01*
X036142Y020142D01*
X036142Y020137D01*
X036141Y020131D01*
Y020131D01*
Y020130D01*
Y020128D01*
X036142Y020126D01*
Y020124D01*
X036142Y020121D01*
X036143Y020114D01*
X036145Y020106D01*
X036147Y020098D01*
X036150Y020091D01*
X036153Y020088D01*
X036155Y020084D01*
X036155D01*
X036156Y020084D01*
X036158Y020082D01*
X036160Y020079D01*
X036164Y020077D01*
X036169Y020074D01*
X036175Y020071D01*
X036182Y020070D01*
X036185Y020069D01*
X036189Y020069D01*
X036191D01*
X036193Y020069D01*
X036196Y020070D01*
X036201Y020071D01*
X036206Y020073D01*
X036212Y020076D01*
X036218Y020079D01*
X036221Y020082D01*
X036223Y020085D01*
X036224Y020085D01*
X036224Y020085D01*
X036225Y020086D01*
X036226Y020088D01*
X036227Y020089D01*
X036228Y020091D01*
X036229Y020094D01*
X036230Y020096D01*
X036232Y020100D01*
X036233Y020103D01*
X036234Y020107D01*
X036235Y020111D01*
X036236Y020116D01*
X036237Y020121D01*
X036237Y020126D01*
Y020132D01*
Y020133D01*
Y020134D01*
Y020135D01*
X036237Y020137D01*
Y020140D01*
X036237Y020143D01*
X036236Y020149D01*
X036234Y020157D01*
X036231Y020164D01*
X036228Y020171D01*
X036226Y020175D01*
X036223Y020178D01*
Y020178D01*
X036223Y020179D01*
X036221Y020181D01*
X036218Y020183D01*
X036214Y020186D01*
X036209Y020189D01*
X036203Y020191D01*
X036197Y020193D01*
X036193Y020193D01*
X036189Y020194D01*
D02*
G37*
G36*
X039434Y020132D02*
X039433D01*
X039433Y020131D01*
X039432Y020131D01*
X039431Y020131D01*
X039429Y020130D01*
X039427Y020129D01*
X039425Y020129D01*
X039422Y020128D01*
X039419Y020127D01*
X039416Y020126D01*
X039412Y020125D01*
X039408Y020125D01*
X039403Y020124D01*
X039399Y020123D01*
X039394Y020122D01*
X039388Y020121D01*
X039388D01*
X039386Y020121D01*
X039382Y020120D01*
X039379Y020119D01*
X039375Y020119D01*
X039371Y020118D01*
X039367Y020117D01*
X039364Y020115D01*
X039364D01*
X039363Y020115D01*
X039362Y020114D01*
X039360Y020113D01*
X039356Y020111D01*
X039353Y020107D01*
Y020106D01*
X039353Y020106D01*
X039352Y020104D01*
X039352Y020103D01*
X039351Y020101D01*
X039350Y020099D01*
X039350Y020096D01*
X039350Y020094D01*
Y020093D01*
Y020092D01*
X039350Y020090D01*
X039351Y020087D01*
X039352Y020084D01*
X039353Y020081D01*
X039355Y020078D01*
X039358Y020075D01*
X039358Y020075D01*
X039359Y020074D01*
X039361Y020073D01*
X039364Y020072D01*
X039367Y020070D01*
X039372Y020069D01*
X039376Y020068D01*
X039382Y020068D01*
X039385D01*
X039388Y020068D01*
X039392Y020069D01*
X039396Y020070D01*
X039401Y020071D01*
X039406Y020073D01*
X039411Y020075D01*
X039411Y020075D01*
X039412Y020076D01*
X039415Y020078D01*
X039417Y020080D01*
X039420Y020083D01*
X039423Y020086D01*
X039426Y020090D01*
X039429Y020094D01*
X039429Y020094D01*
X039429Y020096D01*
X039430Y020098D01*
X039431Y020101D01*
X039432Y020105D01*
X039433Y020109D01*
X039433Y020115D01*
X039433Y020121D01*
X039434Y020132D01*
D02*
G37*
G36*
X035670D02*
X035670D01*
X035670Y020131D01*
X035669Y020131D01*
X035667Y020131D01*
X035666Y020130D01*
X035664Y020129D01*
X035661Y020129D01*
X035659Y020128D01*
X035656Y020127D01*
X035652Y020126D01*
X035649Y020125D01*
X035645Y020125D01*
X035640Y020124D01*
X035636Y020123D01*
X035630Y020122D01*
X035625Y020121D01*
X035624D01*
X035622Y020121D01*
X035619Y020120D01*
X035615Y020119D01*
X035612Y020119D01*
X035608Y020118D01*
X035604Y020117D01*
X035601Y020115D01*
X035601D01*
X035600Y020115D01*
X035598Y020114D01*
X035597Y020113D01*
X035593Y020111D01*
X035590Y020107D01*
Y020106D01*
X035589Y020106D01*
X035589Y020104D01*
X035588Y020103D01*
X035588Y020101D01*
X035587Y020099D01*
X035587Y020096D01*
X035586Y020094D01*
Y020093D01*
Y020092D01*
X035587Y020090D01*
X035587Y020087D01*
X035588Y020084D01*
X035590Y020081D01*
X035592Y020078D01*
X035594Y020075D01*
X035595Y020075D01*
X035596Y020074D01*
X035598Y020073D01*
X035601Y020072D01*
X035604Y020070D01*
X035608Y020069D01*
X035613Y020068D01*
X035619Y020068D01*
X035622D01*
X035625Y020068D01*
X035628Y020069D01*
X035633Y020070D01*
X035638Y020071D01*
X035642Y020073D01*
X035647Y020075D01*
X035648Y020075D01*
X035649Y020076D01*
X035651Y020078D01*
X035654Y020080D01*
X035657Y020083D01*
X035660Y020086D01*
X035663Y020090D01*
X035665Y020094D01*
X035666Y020094D01*
X035666Y020096D01*
X035667Y020098D01*
X035668Y020101D01*
X035669Y020105D01*
X035669Y020109D01*
X035670Y020115D01*
X035670Y020121D01*
X035670Y020132D01*
D02*
G37*
G36*
X038998D02*
X038997D01*
X038997Y020131D01*
X038996Y020131D01*
X038995Y020131D01*
X038993Y020130D01*
X038991Y020129D01*
X038989Y020129D01*
X038986Y020128D01*
X038983Y020127D01*
X038980Y020126D01*
X038976Y020125D01*
X038972Y020125D01*
X038968Y020124D01*
X038963Y020123D01*
X038958Y020122D01*
X038952Y020121D01*
X038952D01*
X038950Y020121D01*
X038947Y020120D01*
X038943Y020119D01*
X038939Y020119D01*
X038935Y020118D01*
X038932Y020117D01*
X038928Y020115D01*
X038928D01*
X038927Y020115D01*
X038926Y020114D01*
X038925Y020113D01*
X038921Y020111D01*
X038917Y020107D01*
Y020106D01*
X038917Y020106D01*
X038916Y020104D01*
X038916Y020103D01*
X038915Y020101D01*
X038914Y020099D01*
X038914Y020096D01*
X038914Y020094D01*
Y020093D01*
Y020092D01*
X038914Y020090D01*
X038915Y020087D01*
X038916Y020084D01*
X038917Y020081D01*
X038919Y020078D01*
X038922Y020075D01*
X038922Y020075D01*
X038924Y020074D01*
X038925Y020073D01*
X038928Y020072D01*
X038932Y020070D01*
X038936Y020069D01*
X038941Y020068D01*
X038947Y020068D01*
X038949D01*
X038952Y020068D01*
X038956Y020069D01*
X038960Y020070D01*
X038965Y020071D01*
X038970Y020073D01*
X038975Y020075D01*
X038975Y020075D01*
X038977Y020076D01*
X038979Y020078D01*
X038982Y020080D01*
X038984Y020083D01*
X038988Y020086D01*
X038990Y020090D01*
X038993Y020094D01*
X038993Y020094D01*
X038994Y020096D01*
X038994Y020098D01*
X038995Y020101D01*
X038996Y020105D01*
X038997Y020109D01*
X038997Y020115D01*
X038997Y020121D01*
X038998Y020132D01*
D02*
G37*
G36*
X036628Y020194D02*
X036627D01*
X036625Y020194D01*
X036622Y020194D01*
X036618Y020193D01*
X036613Y020191D01*
X036608Y020188D01*
X036605Y020186D01*
X036602Y020183D01*
X036600Y020181D01*
X036597Y020178D01*
Y020178D01*
X036597Y020177D01*
X036596Y020176D01*
X036595Y020175D01*
X036594Y020173D01*
X036593Y020171D01*
X036592Y020169D01*
X036591Y020166D01*
X036589Y020163D01*
X036588Y020159D01*
X036587Y020155D01*
X036586Y020151D01*
X036585Y020146D01*
X036585Y020141D01*
X036584Y020136D01*
Y020130D01*
Y020130D01*
Y020129D01*
Y020127D01*
X036584Y020125D01*
Y020123D01*
X036585Y020120D01*
X036586Y020113D01*
X036587Y020105D01*
X036589Y020098D01*
X036592Y020090D01*
X036594Y020087D01*
X036597Y020084D01*
X036597Y020083D01*
X036599Y020082D01*
X036601Y020079D01*
X036605Y020077D01*
X036610Y020074D01*
X036615Y020071D01*
X036621Y020070D01*
X036624Y020069D01*
X036627Y020069D01*
X036629D01*
X036630Y020069D01*
X036634Y020070D01*
X036638Y020071D01*
X036643Y020073D01*
X036648Y020076D01*
X036653Y020079D01*
X036656Y020082D01*
X036658Y020084D01*
Y020085D01*
X036659Y020085D01*
X036660Y020086D01*
X036660Y020087D01*
X036662Y020089D01*
X036663Y020091D01*
X036664Y020093D01*
X036665Y020096D01*
X036666Y020099D01*
X036668Y020103D01*
X036669Y020107D01*
X036670Y020111D01*
X036670Y020116D01*
X036671Y020121D01*
X036672Y020127D01*
Y020133D01*
Y020133D01*
Y020134D01*
Y020136D01*
X036671Y020138D01*
Y020140D01*
X036671Y020143D01*
X036670Y020150D01*
X036669Y020158D01*
X036666Y020165D01*
X036663Y020172D01*
X036661Y020176D01*
X036659Y020179D01*
Y020179D01*
X036658Y020180D01*
X036657Y020182D01*
X036654Y020184D01*
X036650Y020187D01*
X036646Y020190D01*
X036641Y020192D01*
X036635Y020194D01*
X036632Y020194D01*
X036628Y020194D01*
D02*
G37*
G36*
X038542Y020194D02*
X038540D01*
X038539Y020193D01*
X038535Y020193D01*
X038531Y020192D01*
X038526Y020190D01*
X038520Y020188D01*
X038515Y020185D01*
X038510Y020181D01*
X038509Y020180D01*
X038508Y020178D01*
X038506Y020175D01*
X038504Y020171D01*
X038501Y020167D01*
X038499Y020161D01*
X038497Y020154D01*
X038496Y020147D01*
X038587D01*
Y020147D01*
Y020148D01*
X038587Y020149D01*
Y020150D01*
X038586Y020154D01*
X038585Y020158D01*
X038583Y020163D01*
X038582Y020168D01*
X038579Y020173D01*
X038576Y020177D01*
Y020178D01*
X038576Y020178D01*
X038574Y020180D01*
X038571Y020183D01*
X038567Y020185D01*
X038562Y020188D01*
X038556Y020191D01*
X038550Y020193D01*
X038546Y020193D01*
X038542Y020194D01*
D02*
G37*
G36*
X033200Y022309D02*
X033123Y022244D01*
X033246Y022255D01*
X033200Y022309D01*
D02*
G37*
G36*
X037304Y020194D02*
X037299D01*
X037297Y020193D01*
X037294Y020193D01*
X037290Y020192D01*
X037284Y020190D01*
X037279Y020187D01*
X037274Y020183D01*
X037271Y020181D01*
X037269Y020178D01*
Y020178D01*
X037268Y020178D01*
X037268Y020177D01*
X037267Y020175D01*
X037266Y020174D01*
X037265Y020172D01*
X037264Y020170D01*
X037263Y020167D01*
X037261Y020164D01*
X037260Y020161D01*
X037259Y020157D01*
X037258Y020153D01*
X037258Y020149D01*
X037257Y020144D01*
X037256Y020139D01*
Y020134D01*
Y020134D01*
Y020133D01*
Y020131D01*
X037257Y020129D01*
Y020126D01*
X037257Y020123D01*
X037258Y020116D01*
X037259Y020108D01*
X037261Y020101D01*
X037265Y020093D01*
X037267Y020090D01*
X037269Y020087D01*
X037270Y020087D01*
X037271Y020085D01*
X037274Y020083D01*
X037278Y020080D01*
X037282Y020077D01*
X037288Y020075D01*
X037294Y020073D01*
X037297Y020073D01*
X037301Y020073D01*
X037303D01*
X037304Y020073D01*
X037307Y020073D01*
X037312Y020075D01*
X037317Y020076D01*
X037322Y020079D01*
X037328Y020082D01*
X037330Y020085D01*
X037333Y020087D01*
Y020088D01*
X037333Y020088D01*
X037334Y020089D01*
X037335Y020090D01*
X037336Y020091D01*
X037337Y020093D01*
X037338Y020096D01*
X037339Y020099D01*
X037340Y020102D01*
X037341Y020105D01*
X037343Y020109D01*
X037344Y020113D01*
X037344Y020117D01*
X037345Y020122D01*
X037346Y020127D01*
Y020133D01*
Y020133D01*
Y020134D01*
Y020136D01*
X037345Y020138D01*
Y020140D01*
X037345Y020143D01*
X037344Y020150D01*
X037342Y020157D01*
X037340Y020165D01*
X037337Y020172D01*
X037335Y020175D01*
X037332Y020178D01*
Y020179D01*
X037332Y020179D01*
X037330Y020181D01*
X037327Y020183D01*
X037323Y020186D01*
X037319Y020189D01*
X037313Y020191D01*
X037307Y020193D01*
X037304Y020194D01*
D02*
G37*
G36*
X038711D02*
X038709D01*
X038708Y020193D01*
X038704Y020193D01*
X038700Y020192D01*
X038695Y020190D01*
X038690Y020187D01*
X038685Y020183D01*
X038682Y020181D01*
X038680Y020178D01*
Y020178D01*
X038679Y020178D01*
X038679Y020177D01*
X038678Y020175D01*
X038677Y020174D01*
X038676Y020172D01*
X038675Y020170D01*
X038674Y020167D01*
X038672Y020164D01*
X038671Y020160D01*
X038670Y020156D01*
X038670Y020152D01*
X038669Y020148D01*
X038668Y020142D01*
X038668Y020137D01*
Y020131D01*
Y020131D01*
Y020130D01*
Y020128D01*
X038668Y020126D01*
Y020123D01*
X038668Y020120D01*
X038669Y020113D01*
X038671Y020106D01*
X038673Y020098D01*
X038676Y020091D01*
X038678Y020088D01*
X038681Y020084D01*
X038681D01*
X038681Y020084D01*
X038683Y020082D01*
X038686Y020079D01*
X038689Y020077D01*
X038694Y020074D01*
X038699Y020071D01*
X038705Y020070D01*
X038708Y020069D01*
X038712Y020069D01*
X038713D01*
X038715Y020069D01*
X038718Y020070D01*
X038722Y020071D01*
X038727Y020073D01*
X038732Y020075D01*
X038738Y020079D01*
X038740Y020081D01*
X038742Y020084D01*
Y020084D01*
X038743Y020084D01*
X038744Y020085D01*
X038744Y020087D01*
X038745Y020088D01*
X038747Y020090D01*
X038748Y020092D01*
X038749Y020095D01*
X038750Y020098D01*
X038751Y020101D01*
X038752Y020105D01*
X038753Y020109D01*
X038754Y020113D01*
X038755Y020118D01*
X038755Y020123D01*
Y020129D01*
Y020129D01*
Y020130D01*
Y020132D01*
X038755Y020134D01*
Y020137D01*
X038755Y020140D01*
X038754Y020144D01*
X038754Y020148D01*
X038752Y020155D01*
X038750Y020163D01*
X038747Y020171D01*
X038745Y020174D01*
X038742Y020178D01*
Y020178D01*
X038742Y020178D01*
X038740Y020180D01*
X038737Y020183D01*
X038734Y020186D01*
X038729Y020189D01*
X038724Y020191D01*
X038717Y020193D01*
X038714Y020193D01*
X038711Y020194D01*
D02*
G37*
G36*
X039576D02*
X039571D01*
X039570Y020193D01*
X039566Y020193D01*
X039562Y020192D01*
X039557Y020190D01*
X039552Y020187D01*
X039549Y020185D01*
X039547Y020183D01*
X039544Y020181D01*
X039541Y020178D01*
Y020177D01*
X039541Y020177D01*
X039540Y020176D01*
X039539Y020175D01*
X039538Y020173D01*
X039537Y020171D01*
X039536Y020169D01*
X039535Y020166D01*
X039534Y020163D01*
X039533Y020160D01*
X039531Y020156D01*
X039530Y020152D01*
X039530Y020148D01*
X039529Y020143D01*
X039528Y020138D01*
Y020132D01*
Y020132D01*
Y020131D01*
Y020129D01*
Y020127D01*
X039529Y020125D01*
Y020122D01*
X039529Y020116D01*
X039530Y020109D01*
X039532Y020102D01*
X039534Y020096D01*
X039535Y020093D01*
X039536Y020090D01*
Y020090D01*
X039537Y020089D01*
X039538Y020088D01*
X039538Y020087D01*
X039541Y020083D01*
X039546Y020080D01*
X039550Y020076D01*
X039557Y020072D01*
X039560Y020071D01*
X039564Y020070D01*
X039567Y020069D01*
X039572Y020069D01*
X039573D01*
X039574Y020069D01*
X039578Y020070D01*
X039582Y020071D01*
X039587Y020073D01*
X039592Y020076D01*
X039597Y020079D01*
X039600Y020082D01*
X039603Y020085D01*
Y020085D01*
X039603Y020085D01*
X039604Y020086D01*
X039605Y020088D01*
X039606Y020089D01*
X039607Y020091D01*
X039608Y020094D01*
X039609Y020096D01*
X039610Y020100D01*
X039612Y020103D01*
X039613Y020107D01*
X039614Y020111D01*
X039615Y020115D01*
X039615Y020120D01*
X039616Y020126D01*
Y020131D01*
Y020132D01*
Y020133D01*
Y020134D01*
X039616Y020137D01*
Y020139D01*
X039615Y020142D01*
X039614Y020149D01*
X039613Y020157D01*
X039611Y020165D01*
X039608Y020172D01*
X039606Y020175D01*
X039603Y020178D01*
Y020179D01*
X039603Y020179D01*
X039601Y020181D01*
X039598Y020183D01*
X039595Y020186D01*
X039590Y020189D01*
X039585Y020191D01*
X039579Y020193D01*
X039576Y020194D01*
D02*
G37*
%LPD*%
D13*
X037703Y021026D02*
G03*
X037703Y021026I-000022J000000D01*
G01*
D19*
X037250Y022245D02*
X037584D01*
Y022146D02*
Y022245D01*
X036324D02*
X036654D01*
X036324Y022146D02*
Y022245D01*
Y021054D02*
X036654D01*
X036324D02*
Y021154D01*
X037250Y021054D02*
X037584D01*
Y021154D01*
D20*
X033850Y028750D02*
X039850D01*
Y022750D02*
Y028750D01*
X033850Y022750D02*
X039850D01*
X033850D02*
Y028750D01*
M02*
