G04 Layer_Color=8388736*
%FSAX24Y24*%
%MOIN*%
G70*
G01*
G75*
%ADD19C,0.0236*%
%ADD35R,0.0300X0.0560*%
%ADD36R,0.0770X0.0770*%
G04:AMPARAMS|DCode=37|XSize=23mil|YSize=41mil|CornerRadius=8.9mil|HoleSize=0mil|Usage=FLASHONLY|Rotation=90.000|XOffset=0mil|YOffset=0mil|HoleType=Round|Shape=RoundedRectangle|*
%AMROUNDEDRECTD37*
21,1,0.0230,0.0233,0,0,90.0*
21,1,0.0053,0.0410,0,0,90.0*
1,1,0.0178,0.0116,0.0026*
1,1,0.0178,0.0116,-0.0026*
1,1,0.0178,-0.0116,-0.0026*
1,1,0.0178,-0.0116,0.0026*
%
%ADD37ROUNDEDRECTD37*%
G04:AMPARAMS|DCode=38|XSize=23mil|YSize=41mil|CornerRadius=8.9mil|HoleSize=0mil|Usage=FLASHONLY|Rotation=180.000|XOffset=0mil|YOffset=0mil|HoleType=Round|Shape=RoundedRectangle|*
%AMROUNDEDRECTD38*
21,1,0.0230,0.0233,0,0,180.0*
21,1,0.0053,0.0410,0,0,180.0*
1,1,0.0178,-0.0026,0.0116*
1,1,0.0178,0.0026,0.0116*
1,1,0.0178,0.0026,-0.0116*
1,1,0.0178,-0.0026,-0.0116*
%
%ADD38ROUNDEDRECTD38*%
G04:AMPARAMS|DCode=39|XSize=140mil|YSize=40mil|CornerRadius=12mil|HoleSize=0mil|Usage=FLASHONLY|Rotation=0.000|XOffset=0mil|YOffset=0mil|HoleType=Round|Shape=RoundedRectangle|*
%AMROUNDEDRECTD39*
21,1,0.1400,0.0160,0,0,0.0*
21,1,0.1160,0.0400,0,0,0.0*
1,1,0.0240,0.0580,-0.0080*
1,1,0.0240,-0.0580,-0.0080*
1,1,0.0240,-0.0580,0.0080*
1,1,0.0240,0.0580,0.0080*
%
%ADD39ROUNDEDRECTD39*%
%ADD40R,0.0316X0.0316*%
%ADD41R,0.0316X0.0277*%
%ADD42R,0.0277X0.0316*%
%ADD43C,0.0513*%
%ADD44C,0.0350*%
%ADD45C,0.0580*%
%ADD46C,0.0380*%
D19*
X002896Y007313D02*
D03*
D35*
X003926Y006038D02*
D03*
X004300D02*
D03*
X004680D02*
D03*
Y007070D02*
D03*
X003926D02*
D03*
D36*
X005081Y002444D02*
D03*
D37*
X004371Y002061D02*
D03*
Y002317D02*
D03*
Y002574D02*
D03*
Y002834D02*
D03*
X005829D02*
D03*
Y002574D02*
D03*
Y002317D02*
D03*
Y002061D02*
D03*
D38*
X004711Y003174D02*
D03*
X004971D02*
D03*
X005228D02*
D03*
X005484D02*
D03*
Y001726D02*
D03*
X005228D02*
D03*
X004971D02*
D03*
X004711D02*
D03*
D39*
X007250Y006250D02*
D03*
Y005750D02*
D03*
Y005250D02*
D03*
Y003750D02*
D03*
Y004250D02*
D03*
Y004750D02*
D03*
Y003250D02*
D03*
Y002750D02*
D03*
X012550D02*
D03*
Y003250D02*
D03*
Y004750D02*
D03*
Y004250D02*
D03*
Y003750D02*
D03*
Y005250D02*
D03*
Y005750D02*
D03*
Y006250D02*
D03*
Y002250D02*
D03*
Y001750D02*
D03*
Y001250D02*
D03*
D40*
X005250Y005697D02*
D03*
Y005303D02*
D03*
X005750Y005303D02*
D03*
Y005697D02*
D03*
X005700Y006353D02*
D03*
Y006747D02*
D03*
Y007153D02*
D03*
Y007547D02*
D03*
D41*
X004647Y005450D02*
D03*
X004253D02*
D03*
D42*
X005250Y006747D02*
D03*
Y006353D02*
D03*
X006000Y003997D02*
D03*
Y003603D02*
D03*
X004700Y004047D02*
D03*
Y003653D02*
D03*
X006300Y002603D02*
D03*
Y002997D02*
D03*
X005250Y007153D02*
D03*
Y007547D02*
D03*
X003800Y002697D02*
D03*
Y002303D02*
D03*
D43*
X013839Y003746D02*
D03*
X013850Y002749D02*
D03*
Y004749D02*
D03*
Y005749D02*
D03*
X013861Y001751D02*
D03*
D44*
X006150Y004450D02*
D03*
D45*
X010450Y001900D02*
D03*
X013850Y002750D02*
D03*
X007100Y007200D02*
D03*
D46*
X003450Y003000D02*
D03*
X004400Y001200D02*
D03*
X004150Y007750D02*
D03*
X004900Y004850D02*
D03*
X003100Y002500D02*
D03*
X002650Y005700D02*
D03*
X003100D02*
D03*
X005300Y004150D02*
D03*
M02*
