G04 Layer_Color=128*
%FSAX24Y24*%
%MOIN*%
G70*
G01*
G75*
%ADD24C,0.0120*%
%ADD25R,0.1000X0.2000*%
%ADD26C,0.3150*%
G04:AMPARAMS|DCode=27|XSize=36mil|YSize=36mil|CornerRadius=18mil|HoleSize=0mil|Usage=FLASHONLY|Rotation=0.000|XOffset=0mil|YOffset=0mil|HoleType=Round|Shape=RoundedRectangle|*
%AMROUNDEDRECTD27*
21,1,0.0360,0.0000,0,0,0.0*
21,1,0.0000,0.0360,0,0,0.0*
1,1,0.0360,0.0000,0.0000*
1,1,0.0360,0.0000,0.0000*
1,1,0.0360,0.0000,0.0000*
1,1,0.0360,0.0000,0.0000*
%
%ADD27ROUNDEDRECTD27*%
G04:AMPARAMS|DCode=28|XSize=28mil|YSize=28mil|CornerRadius=14mil|HoleSize=0mil|Usage=FLASHONLY|Rotation=0.000|XOffset=0mil|YOffset=0mil|HoleType=Round|Shape=RoundedRectangle|*
%AMROUNDEDRECTD28*
21,1,0.0280,0.0000,0,0,0.0*
21,1,0.0000,0.0280,0,0,0.0*
1,1,0.0280,0.0000,0.0000*
1,1,0.0280,0.0000,0.0000*
1,1,0.0280,0.0000,0.0000*
1,1,0.0280,0.0000,0.0000*
%
%ADD28ROUNDEDRECTD28*%
D24*
X014776Y018893D02*
G03*
X014966Y019083I-000080J000270D01*
G01*
Y019235D02*
G03*
X014776Y019430I-000274J-000078D01*
G01*
X014430Y019083D02*
G03*
X014623Y018893I000271J000083D01*
G01*
Y019428D02*
G03*
X014428Y019235I000080J-000276D01*
G01*
X014776Y028893D02*
G03*
X014966Y029083I-000080J000270D01*
G01*
Y029235D02*
G03*
X014776Y029430I-000274J-000078D01*
G01*
X014430Y029083D02*
G03*
X014623Y028893I000271J000083D01*
G01*
Y029428D02*
G03*
X014428Y029235I000080J-000276D01*
G01*
X014776Y038893D02*
G03*
X014966Y039083I-000080J000270D01*
G01*
Y039235D02*
G03*
X014776Y039430I-000274J-000078D01*
G01*
X014430Y039083D02*
G03*
X014623Y038893I000271J000083D01*
G01*
Y039428D02*
G03*
X014428Y039235I000080J-000276D01*
G01*
X014776Y048893D02*
G03*
X014966Y049083I-000080J000270D01*
G01*
Y049235D02*
G03*
X014776Y049430I-000274J-000078D01*
G01*
X014430Y049083D02*
G03*
X014623Y048893I000271J000083D01*
G01*
Y049428D02*
G03*
X014428Y049235I000080J-000276D01*
G01*
X014776Y058893D02*
G03*
X014966Y059083I-000080J000270D01*
G01*
Y059235D02*
G03*
X014776Y059430I-000274J-000078D01*
G01*
X014430Y059083D02*
G03*
X014623Y058893I000271J000083D01*
G01*
Y059428D02*
G03*
X014428Y059235I000080J-000276D01*
G01*
D25*
X015750Y016200D02*
D03*
X024750D02*
D03*
X015750Y026200D02*
D03*
X024750D02*
D03*
X015750Y036200D02*
D03*
X024750D02*
D03*
X015750Y046200D02*
D03*
X024750D02*
D03*
X015750Y056200D02*
D03*
X024750D02*
D03*
D26*
X020200Y016200D02*
D03*
Y026200D02*
D03*
Y036200D02*
D03*
Y046200D02*
D03*
Y056200D02*
D03*
D27*
X015176Y018123D02*
D03*
X014223D02*
D03*
X014696D02*
D03*
X015176Y028123D02*
D03*
X014223D02*
D03*
X014696D02*
D03*
X015176Y038123D02*
D03*
X014223D02*
D03*
X014696D02*
D03*
X015176Y048123D02*
D03*
X014223D02*
D03*
X014696D02*
D03*
X015176Y058123D02*
D03*
X014223D02*
D03*
X014696D02*
D03*
D28*
X015216Y019477D02*
D03*
X014184D02*
D03*
X015216Y029477D02*
D03*
X014184D02*
D03*
X015216Y039477D02*
D03*
X014184D02*
D03*
X015216Y049477D02*
D03*
X014184D02*
D03*
X015216Y059477D02*
D03*
X014184D02*
D03*
M02*
