G04 Layer_Physical_Order=1*
G04 Layer_Color=255*
%FSAX24Y24*%
%MOIN*%
G70*
G01*
G75*
%ADD10R,0.0220X0.0480*%
%ADD11R,0.0690X0.0690*%
G04:AMPARAMS|DCode=12|XSize=15mil|YSize=33mil|CornerRadius=4.9mil|HoleSize=0mil|Usage=FLASHONLY|Rotation=90.000|XOffset=0mil|YOffset=0mil|HoleType=Round|Shape=RoundedRectangle|*
%AMROUNDEDRECTD12*
21,1,0.0150,0.0233,0,0,90.0*
21,1,0.0053,0.0330,0,0,90.0*
1,1,0.0098,0.0116,0.0026*
1,1,0.0098,0.0116,-0.0026*
1,1,0.0098,-0.0116,-0.0026*
1,1,0.0098,-0.0116,0.0026*
%
%ADD12ROUNDEDRECTD12*%
G04:AMPARAMS|DCode=13|XSize=15mil|YSize=33mil|CornerRadius=4.9mil|HoleSize=0mil|Usage=FLASHONLY|Rotation=180.000|XOffset=0mil|YOffset=0mil|HoleType=Round|Shape=RoundedRectangle|*
%AMROUNDEDRECTD13*
21,1,0.0150,0.0233,0,0,180.0*
21,1,0.0053,0.0330,0,0,180.0*
1,1,0.0098,-0.0026,0.0116*
1,1,0.0098,0.0026,0.0116*
1,1,0.0098,0.0026,-0.0116*
1,1,0.0098,-0.0026,-0.0116*
%
%ADD13ROUNDEDRECTD13*%
G04:AMPARAMS|DCode=14|XSize=132mil|YSize=32mil|CornerRadius=8mil|HoleSize=0mil|Usage=FLASHONLY|Rotation=0.000|XOffset=0mil|YOffset=0mil|HoleType=Round|Shape=RoundedRectangle|*
%AMROUNDEDRECTD14*
21,1,0.1320,0.0160,0,0,0.0*
21,1,0.1160,0.0320,0,0,0.0*
1,1,0.0160,0.0580,-0.0080*
1,1,0.0160,-0.0580,-0.0080*
1,1,0.0160,-0.0580,0.0080*
1,1,0.0160,0.0580,0.0080*
%
%ADD14ROUNDEDRECTD14*%
%ADD15R,0.0236X0.0236*%
%ADD16R,0.0236X0.0197*%
%ADD17R,0.0197X0.0236*%
%ADD18C,0.0100*%
%ADD19C,0.0236*%
%ADD20C,0.0433*%
%ADD21C,0.0270*%
%ADD22C,0.0500*%
%ADD23C,0.0300*%
D10*
X003926Y006038D02*
D03*
X004300D02*
D03*
X004680D02*
D03*
Y007070D02*
D03*
X003926D02*
D03*
D11*
X005081Y002444D02*
D03*
D12*
X004371Y002061D02*
D03*
Y002317D02*
D03*
Y002574D02*
D03*
Y002834D02*
D03*
X005829D02*
D03*
Y002574D02*
D03*
Y002317D02*
D03*
Y002061D02*
D03*
D13*
X004711Y003174D02*
D03*
X004971D02*
D03*
X005228D02*
D03*
X005484D02*
D03*
Y001726D02*
D03*
X005228D02*
D03*
X004971D02*
D03*
X004711D02*
D03*
D14*
X007250Y006250D02*
D03*
Y005750D02*
D03*
Y005250D02*
D03*
Y003750D02*
D03*
Y004250D02*
D03*
Y004750D02*
D03*
Y003250D02*
D03*
Y002750D02*
D03*
X012550D02*
D03*
Y003250D02*
D03*
Y004750D02*
D03*
Y004250D02*
D03*
Y003750D02*
D03*
Y005250D02*
D03*
Y005750D02*
D03*
Y006250D02*
D03*
Y002250D02*
D03*
Y001750D02*
D03*
Y001250D02*
D03*
D15*
X005250Y005697D02*
D03*
Y005303D02*
D03*
X005750Y005303D02*
D03*
Y005697D02*
D03*
X005700Y006353D02*
D03*
Y006747D02*
D03*
Y007153D02*
D03*
Y007547D02*
D03*
D16*
X004647Y005450D02*
D03*
X004253D02*
D03*
D17*
X005250Y006747D02*
D03*
Y006353D02*
D03*
X006000Y003997D02*
D03*
Y003603D02*
D03*
X004700Y004047D02*
D03*
Y003653D02*
D03*
X006300Y002603D02*
D03*
Y002997D02*
D03*
X005250Y007153D02*
D03*
Y007547D02*
D03*
X003800Y002697D02*
D03*
Y002303D02*
D03*
D18*
X006000Y004300D02*
X006150Y004450D01*
X006000Y003997D02*
Y004300D01*
X006682Y004250D02*
X007250D01*
X006035Y003603D02*
X006682Y004250D01*
X006000Y003603D02*
X006035D01*
X005322Y003550D02*
X005947D01*
X006300Y003550D02*
X006500Y003750D01*
X006300Y002997D02*
Y003550D01*
X003950Y005648D02*
X004248D01*
X003950Y005050D02*
Y005648D01*
Y005050D02*
X004150Y004850D01*
X004900D01*
X004248Y005455D02*
Y005648D01*
X004300Y005700D02*
Y006038D01*
X004248Y005648D02*
X004300Y005700D01*
X005800Y004750D02*
X007250D01*
X005650Y004600D02*
X005800Y004750D01*
X005650Y004000D02*
Y004600D01*
X011900Y005750D02*
X012550D01*
X011350Y005200D02*
X011900Y005750D01*
X011350Y002750D02*
Y005200D01*
Y002750D02*
X012550D01*
X010500Y001900D02*
X011350Y002750D01*
X010450Y001900D02*
X011250D01*
X011400Y001750D02*
X012550D01*
X011250Y001900D02*
X011400Y001750D01*
X006400Y005750D02*
X007250D01*
X005953Y005303D02*
X006400Y005750D01*
X005750Y005303D02*
X005953D01*
X003312Y001738D02*
X003862D01*
X002650Y002400D02*
X003312Y001738D01*
X002650Y002400D02*
Y005700D01*
X003862Y001738D02*
X004400Y001200D01*
X003450Y003000D02*
X003700Y002750D01*
X005259Y001391D02*
Y001726D01*
X005068Y001200D02*
X005259Y001391D01*
X004400Y001200D02*
X005068D01*
X006300Y002603D02*
X007103D01*
X005829Y002574D02*
X006371D01*
X005300Y001350D02*
X005650D01*
X005259Y001391D02*
X005300Y001350D01*
X005650D02*
X005850Y001550D01*
Y002040D01*
X005829Y002061D02*
X005850Y002040D01*
X005829Y001932D02*
Y002061D01*
X005228Y001726D02*
X005259D01*
X005829Y002061D02*
Y002317D01*
Y002574D01*
X007103Y002603D02*
X007250Y002750D01*
X006500Y003750D02*
X007250D01*
X005992Y002997D02*
X006300D01*
X005829Y002834D02*
X005992Y002997D01*
X006700Y007650D02*
X007500D01*
X006400Y007350D02*
X006700Y007650D01*
X006400Y006550D02*
Y007350D01*
X008350Y003550D02*
Y006800D01*
X007500Y007650D02*
X008350Y006800D01*
X006203Y006353D02*
X006400Y006550D01*
X005700Y006353D02*
X006203D01*
X007250Y003250D02*
X008050D01*
X008350Y003550D01*
X005259Y003487D02*
X005322Y003550D01*
X005400Y003750D02*
X005650Y004000D01*
X004797Y003750D02*
X005400D01*
X005259Y003205D02*
Y003487D01*
X005228Y003174D02*
X005259Y003205D01*
X004700Y003653D02*
X004797Y003750D01*
X005250Y006353D02*
X005700D01*
X005250Y006747D02*
X005700D01*
X005250Y007153D02*
X005700D01*
X006100Y006950D02*
Y007350D01*
X005903Y007547D02*
X006100Y007350D01*
X005700Y007547D02*
X005903D01*
X005897Y006747D02*
X006100Y006950D01*
X005700Y006747D02*
X005897D01*
X004700Y003185D02*
Y003653D01*
X005097Y004047D02*
X005300Y004150D01*
X004700Y004047D02*
X005097D01*
X004680Y005417D02*
Y006038D01*
Y005417D02*
X004698Y005398D01*
X004997Y005697D01*
X005250D01*
X005750D02*
X005750Y005697D01*
X005250Y005697D02*
X005750D01*
X005047Y007750D02*
X005250Y007547D01*
X004150Y007750D02*
X005047D01*
X003926Y006550D02*
X004850D01*
X003926Y006038D02*
Y006550D01*
X005047Y006353D02*
X005250D01*
X004850Y006550D02*
X005047Y006353D01*
X005050Y006700D02*
X005203D01*
X004680Y007070D02*
X005050Y006700D01*
X003100Y005700D02*
Y006244D01*
X003926Y007070D01*
X005250Y004700D02*
Y005150D01*
X005050Y004500D02*
X005250Y004700D01*
X003900Y004500D02*
X005050D01*
X005250Y005150D02*
Y005303D01*
X003100Y005300D02*
Y005700D01*
Y005300D02*
X003900Y004500D01*
X005250Y005150D02*
X005450Y004950D01*
X006050D01*
X006350Y005250D01*
X007250D01*
X004371Y002317D02*
Y002574D01*
X004357Y002303D02*
X004371Y002317D01*
X003800Y002303D02*
X004357D01*
X003297D02*
X003800D01*
X003100Y002500D02*
X003297Y002303D01*
X013351Y005250D02*
X013850Y005749D01*
X012550Y005250D02*
X013351D01*
X012550Y004750D02*
X013849D01*
X013349Y003250D02*
X013850Y002749D01*
X012550Y003250D02*
X013349D01*
X012550Y003750D02*
X013836D01*
X013859Y001750D02*
X013861Y001751D01*
X012550Y001750D02*
X013859D01*
X012550Y001250D02*
Y001750D01*
Y005750D02*
Y006250D01*
X007250D02*
Y007050D01*
X007100Y007200D02*
X007250Y007050D01*
Y005750D02*
Y006250D01*
D19*
X002896Y007313D02*
D03*
D20*
X013839Y003746D02*
D03*
X013850Y002749D02*
D03*
Y004749D02*
D03*
Y005749D02*
D03*
X013861Y001751D02*
D03*
D21*
X006150Y004450D02*
D03*
D22*
X010450Y001900D02*
D03*
X013850Y002750D02*
D03*
X007100Y007200D02*
D03*
D23*
X003450Y003000D02*
D03*
X004400Y001200D02*
D03*
X004150Y007750D02*
D03*
X004900Y004850D02*
D03*
X003100Y002500D02*
D03*
X002650Y005700D02*
D03*
X003100D02*
D03*
X005300Y004150D02*
D03*
M02*
