G04 Layer_Color=8388736*
%FSAX24Y24*%
%MOIN*%
G70*
G01*
G75*
%ADD21R,0.0340X0.0140*%
%ADD22R,0.0140X0.0340*%
G04:AMPARAMS|DCode=23|XSize=140mil|YSize=40mil|CornerRadius=12mil|HoleSize=0mil|Usage=FLASHONLY|Rotation=0.000|XOffset=0mil|YOffset=0mil|HoleType=Round|Shape=RoundedRectangle|*
%AMROUNDEDRECTD23*
21,1,0.1400,0.0160,0,0,0.0*
21,1,0.1160,0.0400,0,0,0.0*
1,1,0.0240,0.0580,-0.0080*
1,1,0.0240,-0.0580,-0.0080*
1,1,0.0240,-0.0580,0.0080*
1,1,0.0240,0.0580,0.0080*
%
%ADD23ROUNDEDRECTD23*%
%ADD24C,0.0513*%
%ADD25C,0.0380*%
%ADD26C,0.0580*%
D21*
X037486Y021254D02*
D03*
Y021454D02*
D03*
Y021654D02*
D03*
Y021851D02*
D03*
Y022048D02*
D03*
X036414D02*
D03*
Y021851D02*
D03*
Y021654D02*
D03*
Y021454D02*
D03*
Y021254D02*
D03*
D22*
X037151Y022156D02*
D03*
X036954D02*
D03*
X036754D02*
D03*
Y021144D02*
D03*
X036954D02*
D03*
X037151D02*
D03*
D23*
X034200Y028200D02*
D03*
Y027700D02*
D03*
Y027200D02*
D03*
Y025700D02*
D03*
Y026200D02*
D03*
Y026700D02*
D03*
Y025200D02*
D03*
Y024700D02*
D03*
X039500D02*
D03*
Y025200D02*
D03*
Y026700D02*
D03*
Y026200D02*
D03*
Y025700D02*
D03*
Y027200D02*
D03*
Y027700D02*
D03*
Y028200D02*
D03*
Y024200D02*
D03*
Y023700D02*
D03*
Y023200D02*
D03*
D24*
X040600Y024699D02*
D03*
X040589Y025696D02*
D03*
X040600Y026699D02*
D03*
Y027699D02*
D03*
X040611Y023701D02*
D03*
D25*
X034250Y024000D02*
D03*
X032500Y027300D02*
D03*
X039700Y020650D02*
D03*
X032600Y028200D02*
D03*
X040450Y021100D02*
D03*
X040350Y021600D02*
D03*
D26*
X039400Y029250D02*
D03*
X038400D02*
D03*
X035500Y021650D02*
D03*
M02*
